<svg width="133" height="163" viewBox="0 0 133 163" fill="none" xmlns="http://www.w3.org/2000/svg">
<path d="M119.379 32.8481C118.96 34.8676 119.205 37.291 118.925 39.5798C118.845 40.8984 119.125 42.2143 119.737 43.3957C120.349 44.5771 121.272 45.5826 122.414 46.3115C125.599 48.5759 128.33 51.3818 130.472 54.5914C131.853 57.021 132.685 59.7052 132.914 62.4675C133.212 65.539 132.734 68.6345 131.518 71.4879C130.715 73.4982 129.533 75.3471 128.03 76.9406C125.937 79.1284 123.46 81.0133 121.053 83.0664C120.148 83.9301 119.479 84.9976 119.108 86.1727C118.736 87.3479 118.674 88.5938 118.925 89.7981C120.143 95.4573 119.162 101.351 116.17 106.358C113.26 110.609 108.761 113.612 103.612 114.739C103.333 114.755 103.053 114.755 102.775 114.739C101.763 114.739 101.763 115.277 102.007 116.052C102.67 118.374 103.298 120.73 103.961 123.086L111.767 151.763C112.116 153.042 112.43 154.321 112.848 155.567C113.267 156.812 112.848 156.98 111.837 157.283C110.453 157.711 108.965 157.711 107.581 157.283C105.279 156.893 103.118 155.943 101.302 154.523C100.604 153.917 100.046 154.153 99.6278 155.129C98.5068 157.847 96.4985 160.14 93.9069 161.659L93.4883 161.861C91.186 162.971 90.6279 162.736 90 160.38C85.9536 145.772 86.2632 146.266 82.1935 131.703L80.1005 124.096C79.9261 123.456 79.7866 123.12 79.054 123.759C75.6864 126.537 71.4147 128.086 66.9844 128.135C61.9433 128.329 57.0233 126.614 53.2753 123.355C52.2986 122.48 52.194 122.48 51.88 123.692L44.3104 151.763C42.0081 160.043 43.8569 152.961 41.45 161.241C41.0662 162.722 40.8221 162.857 39.357 162.419C37.7232 161.863 36.2326 160.974 34.9866 159.812C33.7407 158.651 32.7685 157.244 32.1361 155.687C31.4385 154.274 31.2292 154.24 29.9036 155.082C28.5301 156.15 26.9352 156.923 25.2263 157.346C23.5174 157.77 21.7342 157.836 19.9968 157.539C18.8805 157.303 18.4968 156.764 18.8456 155.586C22.5898 142.123 22.1944 144.1 25.892 130.794C27.2176 125.981 28.5432 121.168 29.9036 116.388C30.1478 115.547 30.1827 115.109 29.0315 114.907C25.1854 114.024 21.693 112.07 18.9888 109.287C16.2847 106.505 14.4881 103.016 13.8225 99.2561C13.4907 96.0846 13.561 92.8859 14.0318 89.7308C14.2103 88.2679 13.9812 86.7855 13.368 85.4365C12.7548 84.0875 11.7798 82.9208 10.5434 82.0567C7.29406 79.7432 4.54485 76.8389 2.45055 73.5074C1.11894 71.0868 0.311872 68.4299 0.0784903 65.6987C-0.246551 62.2199 0.442115 58.7226 2.06683 55.6012C3.65873 52.7835 5.81708 50.3004 8.41557 48.2973C10.1048 47.0836 11.6182 45.6573 12.9155 44.0564C13.97 42.408 14.3783 40.45 14.0666 38.5364C13.4851 34.8818 13.5678 31.1574 14.3108 27.5301C15.0706 24.6088 16.5435 21.9053 18.6068 19.6451C20.67 17.385 23.2636 15.6339 26.1711 14.538C29.2404 13.33 32.5733 12.8788 35.8686 13.2253C38.0093 13.4772 40.1661 13.5785 42.322 13.5282C43.4993 13.415 44.6368 13.0552 45.6551 12.4738C46.6733 11.8925 47.5478 11.1036 48.2173 10.1624C50.3963 7.36958 53.0083 4.9174 55.9614 2.8922C58.6823 1.26572 61.7694 0.295911 64.9612 0.0648945C68.0976 -0.182259 71.2506 0.278691 74.1704 1.41123C77.6237 2.93293 80.6409 5.24343 82.9609 8.1429C84.1595 9.5159 85.4285 10.8302 86.7632 12.0809C87.6596 12.7444 88.695 13.2116 89.7974 13.4499C90.8998 13.6882 92.0427 13.692 93.1468 13.4609C98.8369 12.4328 104.72 13.3492 109.786 16.0526C112.718 17.848 115.125 20.3365 116.779 23.2819C118.434 26.2273 119.281 29.5318 119.239 32.8818L119.379 32.8481Z" fill="url(#paint0_linear_2154_22055)"/>
<circle cx="66.5" cy="67.5" r="50.5" fill="#352E1E"/>
<defs>
<linearGradient id="paint0_linear_2154_22055" x1="9.13893e-07" y1="81.319" x2="133" y2="81.319" gradientUnits="userSpaceOnUse">
<stop stop-color="#A16706"/>
<stop offset="0.208985" stop-color="#E3B61B"/>
<stop offset="0.535549" stop-color="#F9F3A5"/>
<stop offset="0.854429" stop-color="#E3B61B"/>
<stop offset="1" stop-color="#A16706"/>
</linearGradient>
</defs>
</svg>
