<svg width="95" height="120" viewBox="0 0 95 120" fill="none" xmlns="http://www.w3.org/2000/svg">
<path d="M94.9819 84.5082H0C1.60001 93.1769 5.78457 101.159 12.004 107.406C21.6673 115.869 33.5513 119.11 46.2155 119.98C46.485 120.007 46.7564 120.007 47.0258 119.98H47.7161C47.9855 120.007 48.2569 120.007 48.5263 119.98C61.1906 119.11 73.0746 115.869 82.7678 107.406C89.0581 101.182 93.3163 93.199 94.9819 84.5082Z" fill="#FFFBE5"/>
<path d="M47.086 79.8271H94.772C94.3372 73.7954 93.2505 67.8287 91.5309 62.0311C90.7307 59.3502 89.8304 56.7093 88.83 54.1084H6.15221C5.16187 56.7193 4.26157 59.3602 3.48131 62.0311C1.73818 67.8243 0.641139 73.7926 0.210205 79.8271H47.086Z" fill="#FFFBE5"/>
<path d="M47.0862 50.6872H87.6599C84.7066 43.4697 81.0793 36.5468 76.8262 30.0103H18.3065C14.065 36.5535 10.4383 43.4753 7.4729 50.6872H47.0862Z" fill="#FFFBE5"/>
<path d="M46.3361 25.5686H73.6753C66.0828 14.915 53.5085 0.150051 47.5365 0C41.5345 0 28.9903 15.0051 21.4277 25.5686H46.4261H46.3361Z" fill="#FFFBE5"/>
</svg>
