<svg width="53" height="53" viewBox="0 0 53 53" fill="none" xmlns="http://www.w3.org/2000/svg">
<circle cx="26.5" cy="26.5" r="26" stroke="#FFF1A8"/>
<path fill-rule="evenodd" clip-rule="evenodd" d="M34.0228 19.9516C34.0228 21.2773 33.6296 22.5733 32.8929 23.6755C32.1562 24.7777 31.1092 25.6367 29.8842 26.1437C28.6593 26.6507 27.3115 26.783 26.0113 26.5239C24.7111 26.2647 23.517 25.6258 22.5801 24.6879C21.6431 23.7499 21.0054 22.5552 20.7476 21.2548C20.4898 19.9543 20.6235 18.6067 21.1318 17.3822C21.6401 16.1578 22.5001 15.1116 23.6031 14.3761C24.706 13.6405 26.0024 13.2486 27.3281 13.25C28.2079 13.25 29.079 13.4234 29.8917 13.7603C30.7043 14.0971 31.4427 14.5909 32.0644 15.2133C32.6862 15.8357 33.1792 16.5745 33.5152 17.3875C33.8512 18.2005 34.0237 19.0718 34.0228 19.9516ZM24.6833 34.2294L26.9906 36.1924L27.1077 36.275C27.2937 36.4128 27.3626 36.4128 27.5416 36.275L28.685 35.3108L30.2278 34.0159L32.294 32.294L34.7253 30.2278C34.0321 29.8198 33.3065 29.4696 32.5558 29.1809L31.7706 29.8283L29.9523 31.3711L27.6243 33.3065C27.335 33.5476 27.2661 33.5407 26.9837 33.3065L24.0428 30.8477L22.0867 29.2153C21.334 29.5022 20.608 29.8548 19.9171 30.2691C20.7643 30.9579 21.6252 31.6879 22.4724 32.4042L24.6833 34.2294ZM36.3921 31.3918L35.5312 32.0805L33.8093 33.5131L31.743 35.235L29.9385 36.7503L27.6105 38.6788C27.3212 38.9199 27.2524 38.913 26.97 38.6788L24.029 36.2268L21.3773 34.009L18.698 31.7844L18.2366 31.3711C15.8116 33.3025 14.0649 35.9563 13.25 38.9474H41.4062C40.5858 35.9535 38.8317 33.2994 36.399 31.3711L36.3921 31.3918ZM24.6833 28.8089L26.9906 30.7581L27.1077 30.8477C27.2937 30.9785 27.3626 30.9785 27.5416 30.8477C27.9205 30.5239 28.2993 30.2002 28.685 29.8834L30.2278 28.5885L30.2829 28.5403C29.3105 28.3413 28.3207 28.2398 27.3281 28.2373C26.3283 28.2383 25.3313 28.3422 24.3527 28.5472L24.6833 28.8089Z" fill="#FFF1A8"/>
</svg>
