<svg width="99" height="99" viewBox="0 0 99 99" fill="none" xmlns="http://www.w3.org/2000/svg">
<circle cx="49.5" cy="49.5" r="49.5" fill="#BFA443"/>
<circle cx="49.4998" cy="49.4998" r="43.8429" stroke="#FFFBE5" stroke-width="2.82857"/>
<path d="M64.0628 40.399C63.5856 40.6528 63.0932 40.8769 62.5883 41.07L54.7739 43.5574C54.4569 43.6392 54.1244 43.6392 53.8074 43.5574L43.1752 41.3154H42.8639C42.8639 41.0209 42.8639 40.7099 42.8639 40.4154C42.8639 38.0916 42.995 35.7841 43.0441 33.4603C43.0441 31.7093 43.126 29.9582 43.1752 28.2072C43.1835 27.2711 43.4317 26.3528 43.896 25.5397C44.7315 24.0996 45.5342 22.594 46.2551 21.1212C46.882 19.984 47.7416 18.9915 48.778 18.2082C48.8155 18.359 48.8429 18.512 48.8599 18.6665C48.8599 20.8593 48.7616 23.0359 48.696 25.2124L48.5978 28.1581C48.5978 29.2873 48.5978 30.4001 48.5978 31.5129C48.5978 33.1494 48.4667 34.9168 48.4012 36.6187C48.4012 36.946 48.565 37.0115 48.8435 37.0769L52.5623 37.8461L61.1631 39.6299L64.1119 40.2354L64.0628 40.399ZM56.1501 30.8419V30.4328C56.1501 28.7963 56.2483 27.2744 56.2811 25.7034C56.2811 23.7068 56.2811 21.7267 56.4122 19.7302C56.4122 18.7646 56.5105 17.8155 56.5432 16.85C56.5432 16.4408 56.5432 16.0317 56.5432 15.5571C55.2225 15.5682 53.9119 15.7892 52.6606 16.2117C52.6606 18.0119 52.5459 19.7302 52.4804 21.4648C52.4149 23.1995 52.3985 24.656 52.3493 26.2434C52.3493 28.6327 52.2347 31.0219 52.1855 33.4112C52.1642 33.5906 52.1642 33.7719 52.1855 33.9512L67.3556 37.126C68.1572 36.0351 68.8177 34.8474 69.3215 33.5912L56.1501 30.8419ZM48.7452 45.2103L46.6974 44.8012L41.111 43.8356C40.6031 43.7538 40.4229 43.5738 40.3738 43.0665V42.6901C40.3738 40.0226 40.2591 37.3551 40.1936 34.6713V32.8384C40.0536 32.8959 39.9378 33 39.8659 33.133C39.2106 34.3604 38.5389 35.5877 37.8836 36.8315C36.2454 40.1044 34.5252 43.2301 32.8706 46.4376C32.6959 46.7861 32.585 47.163 32.543 47.5505C32.4853 47.9914 32.5993 48.4376 32.8615 48.7969C33.1237 49.1563 33.514 49.4014 33.9519 49.4815C34.2353 49.5061 34.5203 49.5061 34.8037 49.4815C36.2131 49.2796 37.597 48.9285 38.9321 48.4342C42.2086 47.485 45.3376 46.5031 48.5486 45.5376L49.0401 45.3412L48.7452 45.2103ZM61.2941 21.4976C61.2941 19.7138 61.4088 17.93 61.458 16.1626C60.6157 15.8444 59.7207 15.6889 58.8204 15.7044C58.6566 16.2445 58.3289 28.5672 58.4927 29.0745L70.2881 31.5292L70.714 28.829L61.1631 26.8489C61.1958 25.0324 61.245 23.265 61.2941 21.4976ZM64.8491 22.414C64.8491 20.9412 64.931 19.4847 64.9638 18.0119C64.9638 17.8318 64.9638 17.57 64.7836 17.5045C64.2757 17.21 63.7515 16.9645 63.1454 16.6699C63.0143 19.6811 62.9488 22.5777 62.8996 25.507L70.6649 27.1435C70.6649 26.5707 70.5502 26.0961 70.5174 25.6215C70.522 25.4897 70.4749 25.3612 70.3862 25.2635C70.2975 25.1657 70.1742 25.1063 70.0424 25.0979C69.1413 24.9342 68.2403 24.7378 67.3393 24.5578L64.7181 23.985C64.7181 23.4123 64.8164 22.905 64.8491 22.414ZM67.2573 20.4175C67.2573 19.2065 67.2573 19.2065 66.2908 18.4864C66.2237 18.4414 66.1524 18.4031 66.0778 18.3719C65.8663 19.9559 65.8278 21.5581 65.9631 23.1504C67.2977 23.5888 68.6875 23.8367 70.0915 23.8869C70.0096 23.6414 69.8949 23.3959 69.8294 23.1504C69.7837 22.9504 69.6745 22.7706 69.518 22.6379C69.3614 22.5051 69.1661 22.4266 68.9611 22.414C68.3877 22.3322 67.8143 22.1685 67.3229 22.054L67.2573 20.4175ZM69.2069 21.7921C68.873 21.1629 68.4661 20.5752 67.9946 20.0411V21.5467L69.2069 21.7921Z" fill="#FFFBE5"/>
<path d="M61.7466 67.5594L54.231 55.2014C56.4231 53.2964 58.5162 51.3915 60.7083 49.6005C62.952 47.8991 65.052 46.0205 66.9878 43.9832C66.1412 43.796 65.2632 43.796 64.4166 43.9832C62.2905 44.4879 60.1974 45.0415 58.0712 45.6114C57.9295 45.659 57.8001 45.7368 57.6921 45.8393C57.1647 46.2627 56.6538 46.7186 56.1429 47.1582L53.9014 49.112L48.3635 53.85C47.9021 54.2408 47.9021 54.2571 48.2152 54.7781L53.1597 62.919C53.2956 63.138 53.4819 63.3221 53.7036 63.4563C55.9011 64.7155 58.0987 65.9529 60.2962 67.1686C60.7058 67.3727 61.13 67.5468 61.5653 67.6896L61.7466 67.5594ZM63.1476 56.5854L66.6911 53.557L70.1687 50.5448C71.306 49.5353 72.5091 48.591 73.6134 47.5164C72.7822 46.6712 71.8332 45.9475 70.795 45.3672C66.7241 48.9166 62.6531 52.3684 58.6481 55.8853C58.8129 56.1783 58.9118 56.39 59.0436 56.5854C60.2468 58.588 61.4664 60.5907 62.6861 62.5934C63.6585 64.2216 64.6639 65.8498 65.6363 67.478C65.6922 67.6303 65.8065 67.7549 65.9544 67.8249C66.1023 67.8949 66.2722 67.9048 66.4274 67.8524C67.2515 67.6245 68.0756 67.4454 68.9326 67.25C69.0974 67.25 69.2458 67.1035 69.4765 67.0058L63.1476 56.5854ZM46.9791 58.8486C46.0726 57.3018 45.1331 55.755 44.2102 54.2082C43.8311 53.5732 43.8805 53.4593 44.4409 52.9708L49.3854 48.5421C49.6049 48.3058 49.8086 48.0556 49.9952 47.7932C49.8196 47.7815 49.6434 47.7815 49.4678 47.7932L38.3262 50.9844C38.1081 51.0473 37.8979 51.1347 37.6999 51.2449C37.4525 51.3497 37.2374 51.517 37.0762 51.7299C36.915 51.9429 36.8134 52.1941 36.7817 52.4581C36.7499 52.7222 36.7892 52.9899 36.8954 53.2342C37.0016 53.4785 37.1711 53.6909 37.3868 53.85C37.9356 54.3238 38.5258 54.7488 39.1503 55.12C41.4413 56.4714 43.7652 57.7902 46.0726 59.1091C46.4768 59.3529 46.9243 59.5186 47.3911 59.5975C47.2263 59.2068 47.1439 59.0277 47.0285 58.8486H46.9791ZM76.3164 51.1147L75.344 49.5679L74.9319 49.0306L65.7187 56.9924L71.3554 66.2894C72.144 65.9878 72.8537 65.5148 73.4321 64.9054L68.9821 57.4972L76.3164 51.1147ZM70.8774 57.8065L74.6517 64.0099L75.8219 62.6748L73.1354 58.2299L73.3827 57.9531C74.6353 56.8947 75.8879 55.8364 77.124 54.6967C77.2888 54.5664 77.4866 54.3385 77.4701 54.1919C77.3712 53.6709 77.1899 53.1499 77.0086 52.5638L70.8774 57.8065ZM76.7614 60.9489C76.8725 60.8004 76.9324 60.6207 76.9324 60.436C76.9324 60.2514 76.8725 60.0717 76.7614 59.9232C76.4647 59.4998 76.2175 59.0439 75.9538 58.588L76.2505 58.2624C76.6625 57.9205 77.091 57.5786 77.4866 57.2041C77.6334 57.0843 77.7327 56.917 77.7668 56.7319C77.7914 56.3524 77.7914 55.9717 77.7668 55.5922H77.6019C76.5636 56.5691 75.4099 57.4158 74.3056 58.4578L76.3493 61.8119C76.5801 61.3885 76.679 61.1606 76.8108 60.9489H76.7614ZM77.3218 59.5324C77.5154 59.0112 77.6104 58.4593 77.6019 57.9042L76.5966 58.7183L77.1734 59.6301L77.3218 59.5324Z" fill="#FFFBE5"/>
<path d="M39.0953 63.2557L36.7979 70.5724C36.7489 70.7636 36.7489 70.9639 36.7979 71.1551C37.2052 73.0976 37.6126 75.0562 38.0362 76.9987C38.1399 77.3196 38.2651 77.6333 38.411 77.9376H38.5576C39.1116 76.1408 39.6656 74.3602 40.187 72.5634C40.7084 70.7666 41.2786 68.9374 41.9141 67.1568C46.346 67.6748 50.6963 68.2738 55.1771 68.7756C55.1078 68.6183 55.0261 68.4667 54.9327 68.3223C54.4848 67.6957 53.934 67.1485 53.3033 66.7036C52.2931 66.0561 51.2666 65.4248 50.3053 64.7287C49.6715 64.3044 48.934 64.0583 48.1708 64.0165L41.8163 63.2557L39.2419 62.9158C39.1768 63.11 39.1279 63.1748 39.0953 63.2557ZM45.7268 72.9681C49.3766 73.3566 52.9286 73.9069 56.5294 74.2792C56.6235 73.3522 56.5574 72.4161 56.3339 71.5112L52.3257 71.0094L47.6494 70.4429L44.1463 69.9896C44.0513 69.9647 43.9502 69.9779 43.8649 70.0264C43.7795 70.0748 43.7168 70.1546 43.6901 70.2486C43.6901 70.3943 43.5923 70.54 43.5435 70.6857C42.8428 72.9357 42.1259 75.1857 41.4253 77.452C41.0994 78.4556 40.7898 79.4754 40.464 80.5599L42.8428 82.1787L45.7268 72.9681ZM45.515 61.4427C45.3357 61.3294 45.1728 61.1999 44.9936 61.1028C44.0648 60.5039 43.1198 59.9211 42.1911 59.306C40.3173 58.1081 38.4761 56.8779 36.6024 55.68C36.318 55.4865 36.0045 55.3389 35.6737 55.243C35.473 55.1655 35.2557 55.1399 35.0424 55.1687C34.829 55.1975 34.6265 55.2796 34.4538 55.4075C34.2812 55.5353 34.144 55.7046 34.0553 55.8995C33.9666 56.0944 33.9291 56.3086 33.9465 56.5218C33.9488 57.1089 34.0089 57.6944 34.1258 58.27C34.6146 60.779 35.1197 63.2719 35.6248 65.7809C35.6859 66.2169 35.8599 66.6297 36.1299 66.9788C36.2276 66.7036 36.3254 66.4932 36.4069 66.2665C36.912 64.6478 37.4008 63.0291 37.9222 61.4913C38.1014 60.9085 38.2155 60.8438 38.802 60.9085L44.9773 61.5722C45.1398 61.5883 45.3036 61.5883 45.4661 61.5722L45.515 61.4427ZM46.8185 74.6354L44.2441 82.8747L46.1504 83.3603L48.2197 76.7721L55.8288 77.7271L56.3828 75.8656L46.8185 74.6354ZM49.0344 78.0671C48.4641 79.8801 47.8775 81.6121 47.405 83.4413H48.4804C48.5773 83.4504 48.6741 83.4218 48.7501 83.3614C48.8261 83.3009 48.8755 83.2135 48.8878 83.1175L49.0344 82.6805C49.344 81.6445 49.6698 80.6247 49.9957 79.5725C50.1368 79.565 50.2782 79.565 50.4193 79.5725L54.0365 80.0419C54.2809 80.0419 54.5253 80.1552 54.6883 79.9124L55.34 78.8441L49.0344 78.0671ZM51.8695 81.4826H52.5864C53.2544 81.4826 53.5151 81.3855 53.8247 80.6732L50.4845 80.2685L49.6535 83.247C50.5823 83.247 50.68 83.247 50.9245 82.47C51.0222 82.1463 51.1363 81.8225 51.2666 81.4502L51.8695 81.4826ZM51.4133 82.729L52.4398 82.0977V81.9682L51.5599 81.8549L51.3318 82.5995L51.4133 82.729Z" fill="#FFFBE5"/>
<path d="M24.3284 67.6322C24.4165 67.4004 24.517 67.1748 24.6293 66.9565C25.2613 65.8753 25.8932 64.794 26.5402 63.7128C26.6183 63.5868 26.7213 63.4827 26.8411 63.4087L30.9188 61.0942H31.0391C31.1144 61.2125 31.2047 61.3138 31.2799 61.4152L33.0704 64.0338L34.4096 66.0104C34.6572 66.3566 34.8182 66.7707 34.876 67.2099C34.9813 67.987 35.1318 68.7473 35.2672 69.5244C35.3866 70.1252 35.3866 70.7481 35.2672 71.3489L35.1168 71.1969L33.3563 68.6628L32.604 67.5478C32.3181 67.1423 32.0172 66.72 31.7463 66.2976L30.347 64.3548C30.2718 64.2365 30.1965 64.3548 30.0912 64.3548C29.6248 64.642 29.1433 64.9123 28.6618 65.1826L25.3816 67.0578L24.2531 67.7167L24.3284 67.6322ZM29.4442 68.8148L29.5495 68.9669L30.7533 70.6563L32.2579 72.8863C32.4987 73.258 32.7244 73.6297 32.9651 73.9844C33.2058 74.3392 33.1908 74.2885 33.3112 74.4744C33.7439 74.0785 34.1151 73.6046 34.4096 73.0721L33.0855 71.0955L31.8517 69.3723L30.016 66.6862L29.8505 66.5003L24.0425 69.8792C24.0681 70.5041 24.1641 71.1228 24.3284 71.7206L29.4442 68.8148ZM28.075 61.3307L28.8574 60.8577L30.9338 59.5569C30.9619 59.5236 30.9958 59.4972 31.0333 59.4791C31.0708 59.461 31.1112 59.4517 31.152 59.4517C31.1928 59.4517 31.2332 59.461 31.2707 59.4791C31.3082 59.4972 31.3421 59.5236 31.3702 59.5569L31.4755 59.7089C32.1977 60.6719 32.9802 61.6348 33.6572 62.6147L34.1387 63.2905C34.1582 63.2247 34.1582 63.1535 34.1387 63.0877C34.0334 62.4289 33.9281 61.7869 33.8077 61.128C33.5218 59.4386 33.2209 57.7492 32.92 56.0598C32.8846 55.881 32.8237 55.7098 32.7394 55.5529C32.6396 55.3744 32.4839 55.2441 32.3029 55.1879C32.122 55.1316 31.9288 55.1534 31.7614 55.2489C31.6645 55.324 31.5738 55.4088 31.4905 55.5023C31.0824 55.9951 30.7195 56.5328 30.4072 57.1072L28.0148 61.0266L27.9095 61.2463L28.075 61.3307ZM30.2116 73.7648C30.683 74.4406 31.1344 75.1163 31.5658 75.7921C31.927 75.651 32.2632 75.4394 32.5588 75.167C32.4686 74.9305 29.3238 70.2846 29.1433 70.0988L24.6293 72.6836L25.2011 73.7986L28.8423 71.7544C29.2336 72.4471 29.6849 73.1059 30.1363 73.7648H30.2116ZM28.8122 74.4913L29.9407 76.1807C29.9609 76.216 29.9874 76.2462 30.0184 76.2694C30.0495 76.2927 30.0845 76.3085 30.1213 76.3158L30.8887 76.13C30.1363 74.9812 29.384 73.8831 28.6317 72.7512L25.6224 74.4406L26.0738 74.9474C26.0934 74.9699 26.1168 74.9877 26.1426 74.9999C26.1685 75.0121 26.1962 75.0184 26.2242 75.0184C26.2523 75.0184 26.28 75.0121 26.3058 74.9999C26.3317 74.9877 26.3551 74.9699 26.3747 74.9474L27.3979 74.3561L28.3909 73.7817L28.8122 74.4913ZM28.5414 75.9273C28.8724 76.3834 28.8724 76.3834 29.369 76.3665H29.4743C29.1227 75.7251 28.7144 75.1251 28.2555 74.5757C27.7183 74.8135 27.2122 75.1318 26.7509 75.5218L27.0368 75.7245C27.1032 75.7834 27.1853 75.8155 27.27 75.8155C27.3546 75.8155 27.4368 75.7834 27.5032 75.7245C27.7177 75.5872 27.9387 75.4631 28.1652 75.3529L28.5414 75.9273ZM27.5483 75.9273C27.8285 76.053 28.1217 76.1382 28.421 76.1807L28.0599 75.6063L27.5483 75.9273Z" fill="#FFFBE5"/>
<path d="M19.8546 55.695C20.0267 55.6171 20.2061 55.5574 20.3899 55.517L23.2043 54.9653C23.3179 54.9386 23.4359 54.9386 23.5496 54.9653L27.141 56.2289H27.2446C27.2531 56.3355 27.2531 56.4427 27.2446 56.5493L26.8647 59.0764L26.6057 60.8561C26.5629 61.1913 26.4382 61.5098 26.2431 61.7816C25.8805 62.2621 25.5697 62.7782 25.2244 63.2587C24.96 63.6434 24.6185 63.9651 24.223 64.202C24.2142 64.143 24.2142 64.083 24.223 64.024C24.3266 63.2409 24.4474 62.4757 24.551 61.6926C24.551 61.3366 24.6719 60.9807 24.7064 60.6248C24.741 60.2688 24.81 59.8239 24.8791 59.4324C24.9482 59.0408 25.069 58.2222 25.1554 57.6527C25.1554 57.5281 25.1554 57.4925 25.0345 57.4747L23.7741 57.0298L20.8561 56.0153L19.8546 55.6594V55.695ZM22.1856 59.468C22.1966 59.5147 22.1966 59.5636 22.1856 59.6103C22.0992 60.162 22.0302 60.7315 21.9438 61.39C21.8575 62.0485 21.7539 62.8138 21.6503 63.5257C21.6503 63.8638 21.5295 64.202 21.4777 64.5401V65.0028C21.9296 65.075 22.3897 65.075 22.8417 65.0028C22.9453 64.3621 23.0489 63.7392 23.1352 63.1163C23.2215 62.4934 23.3079 61.9773 23.3769 61.3366L23.7395 58.7917C23.7482 58.7208 23.7482 58.649 23.7395 58.5781L18.5597 56.7984C18.2315 57.1547 17.9526 57.5559 17.7309 57.9908L22.1856 59.468ZM25.3798 54.6272L26.0705 54.8763L27.9697 55.4458C28.1424 55.4458 28.1942 55.5704 28.1942 55.7662C28.1942 55.9619 28.1942 55.7662 28.1942 55.9086C28.0906 56.8696 28.0043 57.8128 27.9179 58.7739C27.9179 59.0052 27.9179 59.2188 27.9179 59.4502C27.9179 59.4502 28.0215 59.4502 28.0388 59.3434L28.8848 58.1154L30.9395 54.8941C31.0132 54.774 31.0658 54.6415 31.0949 54.5026C31.1333 54.3493 31.1135 54.1867 31.0398 54.0479C30.966 53.9091 30.8437 53.8044 30.6978 53.7551C30.6006 53.7385 30.5014 53.7385 30.4043 53.7551C29.9034 53.7578 29.4048 53.8235 28.9194 53.9509L25.4661 54.556H25.2935C25.2935 54.556 25.3453 54.6272 25.3798 54.6272ZM20.01 62.6358C19.9064 63.2765 19.8201 63.9172 19.7165 64.5401C19.9958 64.6922 20.3004 64.7888 20.6144 64.8249C20.7007 64.6291 21.3395 60.2332 21.305 60.0375L17.3165 58.6493L17.0403 59.5925L20.2863 60.7315C20.1827 61.3188 20.0964 61.9417 20.01 62.6358ZM18.8532 62.1019C18.7669 62.618 18.6805 63.1519 18.6115 63.6681C18.6115 63.6681 18.6115 63.8282 18.6115 63.8638L19.1467 64.2376C19.3194 63.1519 19.4575 62.1197 19.6129 61.0697L16.9712 60.162V60.7137C16.9786 60.7517 16.9977 60.7861 17.0258 60.8117C17.0538 60.8374 17.0892 60.853 17.1266 60.8561L18.0417 61.1587L18.9223 61.479C18.8804 61.684 18.8573 61.8925 18.8532 62.1019ZM17.9208 62.707C17.9208 63.1519 17.9208 63.1519 18.1798 63.4367C18.3192 62.8535 18.4002 62.2572 18.4215 61.657C17.9761 61.4468 17.5059 61.2972 17.023 61.2121V61.4968C17.0298 61.5717 17.0607 61.6422 17.1107 61.697C17.1608 61.7518 17.2271 61.7878 17.2992 61.7994L17.869 61.9951L17.9208 62.707ZM17.2992 62.1375C17.3985 62.3782 17.526 62.6053 17.6791 62.8138V62.2799L17.2992 62.1375Z" fill="#FFFBE5"/>
<path d="M25.3817 48.1947L25.6887 48.3502L27.2072 49.3449C27.2387 49.3609 27.2664 49.3829 27.2887 49.4097C27.3109 49.4364 27.3272 49.4673 27.3364 49.5004C27.6918 50.1998 28.0472 50.8837 28.4188 51.5832L28.2734 51.7075L27.0295 52.609L26.0764 53.2774C25.9144 53.4046 25.7184 53.4854 25.511 53.5105L24.4125 53.697C24.1306 53.7584 23.8381 53.7584 23.5563 53.697V53.6193L24.7355 52.78L25.2686 52.4069L25.8664 51.9717L26.7872 51.3345C26.7872 51.3345 26.7872 51.2567 26.7872 51.2101C26.7872 51.1635 26.5448 50.7127 26.4156 50.4796L25.6402 48.8009L25.3494 48.2258L25.3817 48.1947ZM24.784 50.7905H24.7032L23.8632 51.3966L22.797 52.1583L22.2639 52.5313L22.0377 52.6867C22.2202 52.9101 22.4383 53.1042 22.6839 53.2618C23.007 53.0442 23.3301 52.8266 23.637 52.5935L24.4932 51.9873C24.9294 51.692 25.3494 51.3811 25.7694 51.0702H25.8664L24.2509 48.0859C23.949 48.0882 23.6493 48.1353 23.3624 48.2258L24.784 50.7905ZM28.3218 50.1376C28.3218 50.2775 28.4672 50.4019 28.5318 50.5418L29.1296 51.5987C29.1296 51.7075 29.1296 51.7541 29.1296 51.8318L27.7403 52.9199L27.4172 53.1686H27.3849L28.3057 53.0131L30.6804 52.5935C30.767 52.579 30.8496 52.5472 30.9227 52.5002C31.009 52.4514 31.0723 52.3724 31.0994 52.2797C31.1265 52.1869 31.1153 52.0878 31.0681 52.0028L30.9873 51.9096C30.7483 51.706 30.4946 51.519 30.2281 51.35L28.4026 50.1066H28.3057C28.3057 50.1066 28.3057 50.1221 28.3218 50.1376ZM22.4416 51.1479L21.4723 51.8318C21.5284 52.0169 21.6279 52.187 21.7631 52.3292C21.8762 52.3292 24.0894 50.7749 24.154 50.6195L22.9586 48.3035L22.4255 48.5989L23.3947 50.464L22.4416 51.1479ZM22.1024 50.433L21.3108 50.9925C21.3108 50.9925 21.3108 51.0702 21.3108 51.1013C21.3108 51.1324 21.3108 51.3345 21.3916 51.4899L23.007 50.3552L22.2154 48.8009L21.9731 49.0341C21.9731 49.0341 21.9731 49.0341 21.9731 49.174C21.9731 49.3138 22.167 49.5315 22.2478 49.7024C22.3285 49.8734 22.4255 50.0288 22.5062 50.2154L22.1024 50.433ZM21.4239 50.3552C21.2139 50.5107 21.2139 50.5107 21.2139 50.7749C21.5197 50.601 21.8065 50.3979 22.0701 50.1687C21.9613 49.8873 21.8147 49.6208 21.6339 49.376L21.537 49.5159C21.5094 49.549 21.4944 49.5901 21.4944 49.6325C21.4944 49.6749 21.5094 49.716 21.537 49.7491C21.537 49.8579 21.65 49.9822 21.7147 50.091L21.4239 50.3552ZM21.4239 49.8423C21.3712 49.9899 21.3281 50.1404 21.2946 50.2931L21.5693 50.1066L21.4239 49.8423Z" fill="#FFFBE5"/>
<path d="M30.0055 46.281C30.0379 46.3526 30.0648 46.4276 30.0859 46.505L30.4073 47.6727C30.4141 47.7203 30.4141 47.769 30.4073 47.8166L30.0055 49.4802H29.8849H29.0143H28.3579C28.2353 49.4833 28.1144 49.4444 28.0097 49.3682C27.8355 49.2402 27.648 49.1282 27.4605 49.0163C27.319 48.9196 27.1958 48.7888 27.0988 48.6324H27.9293H28.7196H29.3625C29.3625 48.4404 29.4295 48.2645 29.4697 48.0725C29.5099 47.8806 29.617 47.2088 29.6974 46.7769L29.7778 46.345L30.0055 46.281ZM28.8 47.4647H28.157H27.4069H26.8711C26.8761 47.6601 26.9031 47.8538 26.9515 48.0406H27.6212H28.224H29.1214H29.1884L29.6036 45.7532C29.4607 45.6384 29.3081 45.5419 29.1482 45.4653L28.8 47.4647ZM30.6083 48.5844C30.6083 48.6964 30.6083 48.7923 30.6083 48.9043L30.4877 49.7361C30.4877 49.8161 30.4877 49.8321 30.3939 49.848H29.0545L29.5233 50.152L30.7288 50.9038C30.7727 50.918 30.8189 50.918 30.8628 50.9038C30.8902 50.9107 30.9185 50.9106 30.9459 50.9037C30.9733 50.8968 30.9991 50.8831 31.0218 50.8635C31.0445 50.8439 31.0636 50.8189 31.0777 50.79C31.0918 50.7611 31.1007 50.729 31.1039 50.6958C31.1173 50.6547 31.1173 50.609 31.1039 50.5678C31.0829 50.3553 31.0425 50.1461 30.9833 49.944L30.6216 48.5044C30.6249 48.4779 30.6249 48.451 30.6216 48.4244C30.6216 48.4244 30.5413 48.6004 30.5413 48.6164L30.6083 48.5844ZM27.6212 46.6809H26.9515C26.9283 46.8128 26.9283 46.949 26.9515 47.0808C26.9515 47.0808 28.5722 47.1608 28.6392 47.0808L28.9473 45.3053H28.6124L28.3579 46.7449L27.6212 46.6809ZM27.7418 46.1531H27.0586C27.0586 46.1531 26.9916 46.313 26.9515 46.409H28.0632L28.2776 45.2573H28.0766C28.0608 45.3973 28.0384 45.5362 28.0097 45.6732C28.0097 45.8012 28.0097 45.9131 27.9427 46.0571L27.7418 46.1531ZM27.5007 45.7852C27.3399 45.7852 27.3399 45.7852 27.2461 45.9291C27.4462 45.9612 27.6489 45.9612 27.8489 45.9291C27.9024 45.7323 27.934 45.528 27.9427 45.3213H27.8489C27.8248 45.33 27.8032 45.3465 27.7866 45.3692C27.77 45.3918 27.7591 45.4196 27.7552 45.4493C27.7627 45.5343 27.7627 45.6201 27.7552 45.7052L27.5007 45.7852ZM27.6748 45.4973C27.5917 45.5481 27.515 45.6127 27.4471 45.6892H27.6346L27.6748 45.4973Z" fill="#FFFBE5"/>
</svg>
