<svg width="15" height="13" viewBox="0 0 15 13" fill="none" xmlns="http://www.w3.org/2000/svg">
<path d="M9.49222 10.8741C8.89217 10.8741 8.29505 10.8741 7.695 10.8741H5.11917C5.05285 10.8819 4.98594 10.865 4.93172 10.8267C4.87751 10.7884 4.83994 10.7315 4.82647 10.6673L4.49864 9.62227C4.16495 8.60399 3.83224 7.58379 3.5005 6.56168C3.46538 6.44971 3.43318 6.33774 3.39806 6.22864C3.37476 6.16843 3.37277 6.1023 3.39242 6.04085C3.41206 5.97941 3.45219 5.92623 3.50636 5.88985C3.91322 5.5769 4.30838 5.26108 4.70353 4.93377L7.20618 2.88669C7.25096 2.84695 7.29786 2.80958 7.34667 2.77471C7.39986 2.73954 7.46254 2.72074 7.52669 2.72074C7.59084 2.72074 7.65352 2.73954 7.7067 2.77471C7.75342 2.80783 7.79836 2.84328 7.84135 2.88094C8.99462 3.81979 10.1391 4.77299 11.3011 5.70036C11.389 5.77213 11.4738 5.84391 11.5646 5.90995C11.6115 5.93988 11.6465 5.98481 11.6636 6.03713C11.6806 6.08945 11.6788 6.14594 11.6582 6.19705C11.6261 6.32051 11.588 6.44397 11.5499 6.56743C11.105 7.92258 10.6455 9.28061 10.2211 10.6472C10.2096 10.7091 10.1777 10.7656 10.1303 10.808C10.0857 10.8445 10.0302 10.8657 9.97226 10.8683H9.49222V10.8741ZM8.58483 10.0127C8.8307 10.0127 9.0795 10.0127 9.32537 10.0127C9.37673 10.016 9.42777 10.0029 9.47099 9.97551C9.51421 9.94811 9.5473 9.90782 9.56539 9.86057C9.58881 9.80889 9.60637 9.75434 9.62686 9.70266C9.93518 8.79348 10.2435 7.88717 10.5518 6.98373C10.5987 6.84592 10.6426 6.69662 10.6777 6.56168C10.6922 6.52289 10.6938 6.48059 10.6822 6.44086C10.6706 6.40114 10.6465 6.36603 10.6133 6.34061L10.505 6.24586L8.88924 4.85338L7.68914 3.82553C7.66187 3.80171 7.6298 3.78377 7.595 3.77289C7.56021 3.76201 7.52347 3.75842 7.48717 3.76237C7.434 3.77299 7.38574 3.80018 7.3496 3.83989L4.58937 6.18844C4.53376 6.23438 4.47815 6.28319 4.42546 6.33487C4.39862 6.35721 4.37925 6.38695 4.36985 6.42023C4.36046 6.45351 4.36147 6.48878 4.37277 6.52149C4.40204 6.63059 4.43131 6.74256 4.46644 6.84879L5.44115 9.73711C5.45579 9.77731 5.4675 9.81463 5.48506 9.85195C5.50253 9.90179 5.53654 9.94444 5.58165 9.97307C5.62676 10.0017 5.68035 10.0147 5.73386 10.0099C5.83631 10.0099 5.93875 10.0099 6.0412 10.0099H7.15641C7.33204 10.0099 7.50766 9.9869 7.68329 10.0099C7.85891 10.0328 8.00819 10.0099 8.17211 10.0099L8.58483 10.0127Z" fill="#FFF1A8"/>
<path d="M7.52815 2.34979C7.48461 2.35584 7.44441 2.37606 7.414 2.40721C7.1008 2.6369 6.7876 2.86659 6.47734 3.09915C6.26951 3.25131 6.05291 3.38626 5.85387 3.55278C5.84089 3.56239 5.8272 3.57103 5.81289 3.57862C5.78069 3.59297 5.74557 3.60733 5.71337 3.57862C5.69641 3.56703 5.68342 3.55069 5.67611 3.53173C5.6688 3.51277 5.6675 3.49208 5.67239 3.47239C5.69609 3.37178 5.73454 3.27507 5.78655 3.18528C5.95924 2.82065 6.1378 2.45889 6.31049 2.09426C6.33211 2.04916 6.3667 2.01123 6.41001 1.98516L7.20325 1.52866C7.28228 1.47985 7.35253 1.42243 7.43741 1.37936C7.46399 1.36243 7.495 1.35342 7.52669 1.35342C7.55838 1.35342 7.58939 1.36243 7.61597 1.37936L8.11942 1.68944L8.64337 2.00239C8.68726 2.02776 8.72204 2.06589 8.74289 2.11149L9.3283 3.35467C9.34807 3.39765 9.36186 3.44304 9.36928 3.48962C9.37202 3.508 9.36967 3.52676 9.36246 3.54394C9.35524 3.56112 9.34345 3.57608 9.3283 3.58723C9.29318 3.61307 9.26098 3.58723 9.22878 3.58723C9.21408 3.58032 9.20031 3.57164 9.1878 3.56139L7.61889 2.41296C7.59745 2.38181 7.56521 2.35936 7.52815 2.34979Z" fill="#FFF1A8"/>
<path d="M5.37676 12.0139L4.66255 11.9479C4.53961 11.9479 4.4196 11.922 4.29667 11.922C4.07421 11.922 4.05372 11.9019 3.98347 11.6981C3.86932 11.3736 3.73467 11.0607 3.60881 10.742C3.58164 10.6816 3.57447 10.6143 3.58832 10.5496C3.68491 10.1075 3.77565 9.66246 3.88102 9.22031C3.89011 9.17391 3.90692 9.12929 3.93078 9.08824C3.93793 9.07157 3.94994 9.05733 3.9653 9.04732C3.98066 9.03731 3.99869 9.03197 4.01713 9.03197C4.03557 9.03197 4.05361 9.03731 4.06897 9.04732C4.08433 9.05733 4.09633 9.07157 4.10348 9.08824C4.11159 9.10594 4.11844 9.12417 4.12397 9.14279C4.29959 9.73998 4.4762 10.3372 4.65377 10.9344C4.65698 10.9571 4.66479 10.979 4.67674 10.9987C4.68868 11.0184 4.70453 11.0356 4.72334 11.0493C4.74216 11.0629 4.76356 11.0727 4.7863 11.0781C4.80903 11.0835 4.83264 11.0844 4.85574 11.0808C5.44115 11.0808 6.04706 11.0808 6.64418 11.0808C6.68808 11.0808 6.73199 11.0808 6.7759 11.0808C6.8198 11.0808 6.87542 11.0808 6.89591 11.1439C6.90718 11.1707 6.90771 11.2007 6.8974 11.2279C6.88709 11.255 6.86669 11.2773 6.84029 11.2904C6.76648 11.3444 6.687 11.3906 6.6032 11.4282L5.50555 12.0024C5.48612 12.0131 5.4646 12.0197 5.4424 12.0217C5.42021 12.0236 5.39784 12.021 5.37676 12.0139Z" fill="#FFF1A8"/>
<path d="M9.25805 11.0894H10.1918C10.3235 11.0894 10.3674 11.0578 10.4025 10.9315C10.5694 10.3745 10.7274 9.81463 10.906 9.26051C10.906 9.2117 10.9294 9.16002 10.944 9.11408C10.9587 9.06814 10.9821 9.03656 11.0319 9.03656C11.0816 9.03656 11.1109 9.06528 11.1343 9.10834C11.1693 9.19204 11.1929 9.27988 11.2046 9.36961C11.2924 9.77443 11.3743 10.1764 11.4592 10.5783C11.4723 10.6204 11.4723 10.6654 11.4592 10.7075C11.3538 10.9659 11.2514 11.2272 11.1431 11.4856C11.0992 11.5976 11.0699 11.7124 11.0201 11.8215C11.0106 11.8445 10.9949 11.8645 10.9749 11.8797C10.9548 11.8948 10.9311 11.9044 10.906 11.9077C10.7655 11.9278 10.6133 11.922 10.4845 11.9392C10.2386 11.9651 9.99275 11.9823 9.7498 12.0081C9.67064 12.0191 9.58996 12.0061 9.51856 11.9708L8.30383 11.3449C8.26728 11.3256 8.23294 11.3025 8.20138 11.276C8.18245 11.2634 8.16821 11.2451 8.16082 11.2239C8.15342 11.2026 8.15328 11.1796 8.1604 11.1583C8.16761 11.1389 8.18149 11.1225 8.19965 11.1121C8.21781 11.1016 8.23912 11.0976 8.25992 11.1009C8.32724 11.1009 8.39457 11.1009 8.46189 11.1009H9.25805V11.0894Z" fill="#FFF1A8"/>
<path d="M10.546 4.50885C10.6288 4.51288 10.7111 4.52442 10.7918 4.54331C11.1987 4.61508 11.6056 4.6926 12.0124 4.76151C12.0618 4.77035 12.1069 4.79451 12.1412 4.83041L12.8115 5.45344C12.8788 5.51373 12.9549 5.56828 13.0193 5.63432C13.0399 5.65152 13.0546 5.67452 13.0615 5.70021C13.0683 5.72589 13.0668 5.75301 13.0574 5.77787C13.0018 5.9444 12.9491 6.11092 12.8964 6.28032C12.8437 6.44971 12.7705 6.69662 12.6944 6.91196C12.6855 6.95486 12.6617 6.99341 12.6271 7.02106L11.5441 7.92258C11.5138 7.94625 11.4814 7.96737 11.4475 7.98574C11.4278 7.99934 11.4043 8.00663 11.3802 8.00663C11.3561 8.00663 11.3326 7.99934 11.3129 7.98574C11.2748 7.94842 11.2865 7.90535 11.3129 7.86229L11.3597 7.75893C11.5763 7.19907 11.8075 6.64782 12.0329 6.0937C12.0529 6.05349 12.0565 6.00729 12.0429 5.96457C12.0293 5.92186 11.9995 5.88588 11.9597 5.86401L10.8562 5.00268C10.7274 4.90219 10.6045 4.79022 10.4669 4.69834H10.4494C10.3996 4.65528 10.382 4.61508 10.3996 4.57776C10.4095 4.55621 10.4263 4.5384 10.4474 4.52701C10.4685 4.51562 10.4928 4.51126 10.5167 4.51459L10.546 4.50885Z" fill="#FFF1A8"/>
<path d="M1.99014 5.74055C1.98798 5.72451 1.98949 5.70821 1.99456 5.69282C1.99962 5.67742 2.00811 5.66333 2.01941 5.65155C2.05746 5.61422 2.09551 5.57403 2.13649 5.53957C2.40285 5.3185 2.6458 5.07446 2.90046 4.8419C2.94218 4.79912 2.99636 4.77004 3.05559 4.75864C3.50929 4.68112 3.96298 4.59786 4.41668 4.51747C4.45174 4.51463 4.48699 4.51463 4.52205 4.51747C4.57767 4.51747 4.63328 4.51747 4.6567 4.5835C4.68011 4.64954 4.62743 4.68112 4.58645 4.71557C4.54547 4.75002 4.5162 4.76151 4.48693 4.78735C4.03323 5.15198 3.57075 5.50512 3.10535 5.85539C3.06318 5.88443 3.03294 5.92726 3.02006 5.9762C3.00719 6.02514 3.01252 6.07698 3.0351 6.12241C3.25756 6.65643 3.48001 7.19332 3.68784 7.73309C3.7054 7.77903 3.72882 7.81922 3.74345 7.86229C3.75809 7.90535 3.77272 7.95129 3.74345 7.98574C3.72453 8.00115 3.70072 8.00959 3.67613 8.00959C3.65154 8.00959 3.62772 8.00115 3.60881 7.98574C3.57555 7.96733 3.5433 7.94721 3.51221 7.92545L2.44969 7.03828C2.40431 7.00383 2.3723 6.95521 2.35895 6.90047C2.27406 6.61336 2.18625 6.32625 2.10137 6.03914C2.06729 5.95466 2.03797 5.86839 2.01355 5.78075C1.99599 5.76639 1.99014 5.74629 1.99014 5.74055Z" fill="#FFF1A8"/>
<path d="M7.52815 1.03483C7.4791 1.02929 7.42976 1.04267 7.39058 1.07216L6.85785 1.4052C6.81792 1.43039 6.77978 1.45821 6.7437 1.48846L6.65589 1.56311C6.63832 1.57747 6.61491 1.58895 6.59442 1.56311C6.57393 1.53727 6.59442 1.52292 6.59442 1.50282C6.63832 1.4052 6.68516 1.31046 6.73199 1.21571C6.88712 0.89702 7.03933 0.575458 7.19447 0.253895C7.20343 0.231093 7.21419 0.209014 7.22667 0.18786C7.25321 0.13175 7.29556 0.0842529 7.34872 0.0509687C7.40188 0.0176844 7.46362 0 7.52669 0C7.58975 0 7.6515 0.0176844 7.70466 0.0509687C7.75782 0.0842529 7.80017 0.13175 7.82671 0.18786C7.89111 0.311317 7.94965 0.434774 8.00819 0.561102L8.44433 1.47124C8.44433 1.49995 8.49701 1.5344 8.45896 1.56311C8.42091 1.59182 8.39457 1.56311 8.36822 1.52866C8.18391 1.38097 7.98818 1.24755 7.78281 1.12958L7.695 1.07503C7.67129 1.05781 7.64433 1.04539 7.61569 1.03849C7.58705 1.03159 7.55729 1.03035 7.52815 1.03483Z" fill="#FFF1A8"/>
<path d="M3.14926 12.6742C3.16682 12.5938 3.18438 12.4962 3.20487 12.3871C3.28683 12.0024 3.36879 11.6177 3.45367 11.2387C3.45367 11.2071 3.45367 11.1583 3.49758 11.1554C3.54148 11.1526 3.54441 11.2042 3.55027 11.2358C3.61103 11.463 3.68831 11.6856 3.7815 11.9019L3.83419 12.034C3.84509 12.0687 3.86672 12.0992 3.89609 12.1213C3.92546 12.1435 3.96111 12.1561 3.99811 12.1574C4.28342 12.1937 4.57099 12.21 4.85866 12.2062C4.89379 12.2062 4.94062 12.2062 4.95233 12.2321C4.96404 12.2579 4.91721 12.2838 4.88794 12.2981C4.5162 12.4934 4.14153 12.6857 3.76687 12.8723L3.61466 12.9527C3.5633 12.9792 3.50579 12.9921 3.44782 12.9901C3.24878 13.013 3.16096 12.8723 3.14926 12.6742Z" fill="#FFF1A8"/>
<path d="M10.3089 12.2206C10.5138 12.2206 10.7187 12.1948 10.9206 12.1775H11.0465C11.087 12.1766 11.1262 12.1631 11.1583 12.1388C11.1905 12.1145 11.2138 12.0808 11.225 12.0426C11.2836 11.8904 11.3392 11.7383 11.4007 11.5861C11.4486 11.4764 11.4839 11.3618 11.506 11.2444C11.5037 11.2202 11.5099 11.1958 11.5236 11.1755C11.5412 11.1583 11.5646 11.1554 11.5763 11.1755C11.5849 11.1958 11.5908 11.217 11.5939 11.2387C11.6817 11.6493 11.7666 12.057 11.8544 12.4675C11.8544 12.5163 11.8778 12.5651 11.8866 12.6139C11.9032 12.6738 11.9018 12.7371 11.8826 12.7962C11.8634 12.8553 11.8271 12.9076 11.7783 12.947C11.7254 12.9816 11.6633 13 11.5997 13C11.5362 13 11.474 12.9816 11.4212 12.947L10.3528 12.4101L10.1391 12.2981C10.1157 12.2981 10.0776 12.278 10.0893 12.2407C10.101 12.2034 10.1362 12.212 10.1654 12.2149L10.3089 12.2206Z" fill="#FFF1A8"/>
<path d="M14.3863 5.4075C14.3876 5.45891 14.3769 5.50992 14.3551 5.55668C14.3333 5.60344 14.3009 5.64472 14.2604 5.67739L13.6311 6.19993L13.1686 6.58178C13.1573 6.59381 13.1445 6.60442 13.1306 6.61336C13.1159 6.61336 13.0984 6.6392 13.0808 6.62772C13.0632 6.61623 13.0632 6.59039 13.0808 6.56742V6.54158C13.1976 6.27876 13.2954 6.00821 13.3735 5.73194C13.3881 5.69477 13.39 5.65396 13.379 5.61564C13.3679 5.57732 13.3444 5.54357 13.312 5.51948L12.8408 5.09168C12.791 5.04862 12.7325 5.01416 12.6798 4.97684C12.6577 4.96376 12.638 4.94728 12.6213 4.92803C12.6155 4.92426 12.6114 4.91864 12.6095 4.91215C12.6076 4.90566 12.6081 4.89872 12.6108 4.89255C12.6136 4.88638 12.6186 4.88137 12.6248 4.87841C12.6309 4.87545 12.638 4.87472 12.6447 4.87635H12.712L13.9853 5.10317C14.0395 5.11065 14.0933 5.12119 14.1463 5.13475C14.1918 5.14431 14.2347 5.16336 14.2721 5.1906C14.3094 5.21785 14.3404 5.25265 14.3629 5.29266C14.3841 5.32708 14.3924 5.36772 14.3863 5.4075Z" fill="#FFF1A8"/>
<path d="M0.667101 5.36444C0.677085 5.32701 0.694678 5.29195 0.718822 5.26136C0.742966 5.23077 0.773163 5.20529 0.8076 5.18643C0.855904 5.15461 0.910957 5.13399 0.968589 5.12614L2.33846 4.88497H2.36773C2.397 4.88497 2.43798 4.862 2.44969 4.90219C2.46139 4.94239 2.42334 4.95674 2.397 4.97397C2.20125 5.1123 2.01722 5.26592 1.84671 5.43334L1.75304 5.51661C1.72035 5.5424 1.6968 5.57766 1.68577 5.61737C1.67473 5.65707 1.67676 5.69918 1.69158 5.73768L1.83207 6.18844C1.86588 6.30983 1.91299 6.42727 1.97257 6.53871C1.97417 6.54726 1.97417 6.55601 1.97257 6.56455C1.97999 6.57291 1.98407 6.58362 1.98407 6.5947C1.98407 6.60578 1.97999 6.61649 1.97257 6.62485C1.94916 6.64494 1.9316 6.62485 1.91403 6.61049L1.6623 6.40951L0.842725 5.72907C0.783942 5.68824 0.736893 5.63324 0.706127 5.56936C0.67536 5.50548 0.661918 5.4349 0.667101 5.36444Z" fill="#FFF1A8"/>
<path d="M7.52523 9.81176H5.96217C5.89538 9.81315 5.82864 9.80738 5.76313 9.79453C5.72843 9.78816 5.69639 9.772 5.67091 9.74803C5.64544 9.72406 5.62764 9.69333 5.6197 9.65959C5.50555 9.30358 5.38554 8.95043 5.26553 8.59442C5.04892 7.93694 4.82647 7.27946 4.60986 6.62198C4.57955 6.5667 4.57268 6.50193 4.59077 6.44172C4.60885 6.38151 4.65043 6.33073 4.70646 6.30041C5.21869 5.88411 5.73093 5.47067 6.24317 5.05149C6.56515 4.79022 6.88713 4.52895 7.2091 4.26194C7.27477 4.20363 7.34752 4.15348 7.42571 4.11264C7.45926 4.09429 7.49705 4.08465 7.53547 4.08465C7.57389 4.08465 7.61168 4.09429 7.64524 4.11264C7.71628 4.15479 7.7821 4.20489 7.84135 4.26194C8.0199 4.41124 8.20431 4.54905 8.38579 4.70696C9.03852 5.24385 9.69126 5.77787 10.3528 6.30616C10.3868 6.32997 10.4157 6.36023 10.4377 6.39516C10.4557 6.4263 10.4666 6.46093 10.4696 6.49662C10.4727 6.53232 10.4678 6.56823 10.4552 6.60188C10.3264 6.97799 10.2035 7.3541 10.0776 7.73022C9.86688 8.3676 9.65028 9.00211 9.44538 9.63949C9.43512 9.68519 9.40975 9.72629 9.37323 9.7564C9.33671 9.78651 9.29108 9.80395 9.24342 9.80602C9.18886 9.81023 9.13406 9.81023 9.0795 9.80602L7.52523 9.81176Z" fill="#FFF1A8"/>
</svg>
