<svg width="50" height="70" viewBox="0 0 50 70" fill="none" xmlns="http://www.w3.org/2000/svg">
<path fill-rule="evenodd" clip-rule="evenodd" d="M28.4382 0.486268C26.7743 0.695181 25.3693 1.48141 24.4397 2.72374C23.0766 4.54564 22.8716 6.84575 23.8911 8.87894C24.4555 10.0045 25.6217 11.0596 26.8569 11.5622C27.4852 11.8179 27.9083 11.903 28.7101 11.9351C29.6897 11.9743 30.3511 11.8614 31.1506 11.5185C32.7979 10.8121 33.9261 9.5363 34.4583 7.77801C34.6077 7.2844 34.623 7.14354 34.6266 6.23058C34.63 5.34885 34.6133 5.16745 34.4893 4.74506C33.7574 2.24937 31.725 0.615377 29.1935 0.487241C28.8944 0.472084 28.5545 0.471659 28.4382 0.486268ZM18.7399 8.22043C18.4993 8.2519 16.6439 8.80297 12.6975 10.0151C12.0328 10.2192 11.3666 10.4205 11.217 10.4622C10.0676 10.7835 8.07308 11.4284 7.75325 11.5822C7.06845 11.9115 6.46033 12.6445 6.23761 13.4093C6.04147 14.0829 6.09808 14.587 6.53973 16.0982C6.75883 16.848 6.96283 17.4918 6.9931 17.5289C7.02337 17.5659 7.25879 17.6141 7.5162 17.6362C7.77367 17.6582 8.54173 17.731 9.22302 17.798C9.90431 17.8651 11.1279 17.9738 11.9421 18.0397C12.7564 18.1056 13.5449 18.1741 13.6945 18.192C14.1623 18.2479 17.4068 18.4595 18.8608 18.5288C20.0843 18.5872 24.3989 18.7061 24.4326 18.6824C24.4501 18.6702 24.2642 18.0373 22.9776 13.7301C21.7597 9.65293 21.7291 9.5752 21.1145 8.99983C20.4731 8.39939 19.5896 8.10934 18.7399 8.22043ZM39.798 9.41802C39.3985 9.53551 39.3384 9.57154 36.9795 11.1078C34.6441 12.6288 32.3002 14.1529 30.7794 15.1395C27.9407 16.9811 27.6972 17.1787 27.3312 17.9373C27.2152 18.1778 27.1011 18.4401 27.0775 18.5202L27.0347 18.6659L28.0839 18.625C30.9463 18.5135 34.2304 18.3015 37.1998 18.0368C37.9475 17.9701 39.0352 17.8749 39.6168 17.8252C40.1984 17.7756 41.0652 17.694 41.5431 17.6439C42.021 17.5938 42.4329 17.5528 42.4586 17.5528C42.5541 17.5528 42.7713 11.8759 42.6961 11.3438C42.545 10.2737 41.611 9.42405 40.5188 9.36318C40.2512 9.3482 39.9602 9.37036 39.798 9.41802ZM3.65329 19.3511C3.13297 19.4783 2.77882 19.6699 2.38461 20.0375C1.97281 20.4216 1.76344 20.7525 1.60247 21.2736C1.44452 21.7847 1.45818 22.1168 1.69371 23.5005C3.14935 32.0498 3.75789 39.1968 3.55456 45.3554C3.3334 52.0563 2.41809 57.7384 0.247561 65.8852C0.0633856 66.5766 0.0333541 66.7746 0.0584305 67.1331C0.129913 68.1561 0.770962 69.0373 1.73033 69.4314L2.06267 69.5679L24.4789 69.5835C44.8606 69.5976 46.9252 69.5902 47.227 69.5018C47.9905 69.2782 48.5557 68.8046 48.9024 68.0976C49.0913 67.7128 49.1295 67.5664 49.1511 67.1445C49.1733 66.7104 49.1478 66.5401 48.9531 65.8243C46.576 57.0844 45.6012 50.3958 45.5996 42.8147C45.5986 37.962 46.0056 33.2614 47.0149 26.4705C47.0647 26.1357 47.2478 24.9923 47.4219 23.9297C47.7143 22.1451 47.7333 21.9675 47.6716 21.6048C47.5758 21.0412 47.3466 20.5855 46.9458 20.1618C46.356 19.5382 45.5025 19.209 44.6622 19.2808C44.2665 19.3145 43.6967 19.3684 40.4023 19.6829C30.5905 20.6199 24.7401 20.7977 17.4408 20.3808C15.3204 20.2597 10.8561 19.9117 9.28345 19.7449C8.96773 19.7114 8.1112 19.6277 7.38006 19.5588C6.64892 19.4899 5.69173 19.3938 5.25298 19.3453C4.3025 19.2403 4.10388 19.2411 3.65329 19.3511ZM14.9569 29.8096C14.4952 30.001 14.2824 30.1644 14.0655 30.4943C13.7737 30.938 13.6752 31.3134 13.7095 31.85C13.747 32.4364 13.9067 32.8078 14.2856 33.1895C15.0292 33.9386 16.2312 33.9384 17.0452 33.1889C17.5241 32.748 17.7127 32.3288 17.7127 31.7055C17.7127 31.2956 17.686 31.1637 17.5439 30.8722C17.07 29.8999 15.8993 29.4191 14.9569 29.8096ZM32.819 29.7515C32.426 29.8767 32.2237 30.0055 31.9494 30.3054C31.5451 30.7472 31.4299 31.0576 31.4295 31.7055C31.4292 32.173 31.4529 32.3045 31.5912 32.6016C31.8056 33.0626 32.2177 33.4592 32.6545 33.6252C32.9346 33.7316 33.092 33.7516 33.4836 33.7307C35.0075 33.6493 35.8891 32.1382 35.2031 30.7834C34.7716 29.9312 33.7045 29.4693 32.819 29.7515ZM14.1861 37.3587C13.8851 37.4684 13.514 37.8084 13.3865 38.0914C13.1114 38.7016 13.3997 40.7643 13.9786 42.3277C15.2086 45.6496 17.4324 47.981 20.4208 49.0818C21.6434 49.5322 22.6209 49.7 24.2388 49.7374C25.6892 49.7709 26.3809 49.7047 27.5758 49.4183C31.232 48.5418 34.0571 45.7773 35.3194 41.8407C35.722 40.5852 35.9531 38.9612 35.8167 38.3469C35.7262 37.9394 35.4526 37.6049 35.059 37.4203C34.6708 37.2382 34.3509 37.2382 33.9627 37.4203C33.4233 37.6733 33.1515 38.1366 33.1511 38.8042C33.1501 39.9877 32.5577 41.8951 31.819 43.0931C30.6215 45.0349 28.9544 46.2628 26.766 46.8151C26.1418 46.9725 26.0424 46.9801 24.6012 46.9803C22.9546 46.9805 22.496 46.9181 21.4893 46.5564C18.417 45.4527 16.2388 42.4369 15.9944 38.9486C15.9286 38.0107 15.7449 37.6763 15.1447 37.4022C14.8408 37.2634 14.491 37.2475 14.1861 37.3587Z" fill="#FFF1A8"/>
</svg>
