<svg width="120" height="105" viewBox="0 0 120 105" fill="none" xmlns="http://www.w3.org/2000/svg">
<path d="M55.4782 104.584C46.7982 104.82 38.1749 103.122 30.2403 99.6118C28.5666 99.0131 27.0897 97.9696 25.9699 96.5947C25.2948 95.8513 24.8289 94.9437 24.619 93.9637C24.4092 92.9838 24.463 91.9661 24.7749 91.0134C25.0868 90.0607 25.6458 89.2068 26.3955 88.5378C27.1452 87.8689 28.059 87.4087 29.0446 87.2036C31.6955 86.7435 34.3819 86.516 37.0729 86.5237C46.2207 86.1471 55.1972 83.9312 63.4612 80.0094C71.7252 76.0876 79.1055 70.5412 85.1573 63.7046C90.0177 58.0143 93.7686 51.4716 96.2176 44.4125C98.1305 39.7732 99.4781 34.9228 100.232 29.9646C100.477 26.4876 100.204 22.9935 99.4204 19.5962C99.2841 19.0317 98.9698 18.5254 98.5236 18.1514C98.2951 17.9199 98.0033 17.7603 97.6845 17.6923C97.3656 17.6243 97.0338 17.651 96.73 17.7689C95.9613 18.1089 96.3884 18.7888 96.4311 19.2987C97.4589 25.7839 96.8123 32.4227 94.5521 38.5908C92.396 45.8343 89.0169 52.6599 84.5595 58.7753C77.3327 67.7077 67.5481 74.2431 56.5031 77.515C46.1644 80.8626 35.3877 82.6809 24.518 82.9118C18.8203 83.0744 13.2602 81.1545 8.8884 77.515C6.14147 75.3347 3.64906 72.8546 1.45795 70.1211C0.58235 69.17 0.0688372 67.944 0.00643926 66.6556C-0.0559586 65.3672 0.336693 64.0977 1.11632 63.0672C1.74333 61.8211 2.80169 60.8425 4.09647 60.3115C5.39124 59.7805 6.83522 59.733 8.16244 60.1776C13.8327 61.7503 19.6997 62.5087 25.5856 62.4298C34.8092 62.3014 43.8972 60.2 52.2327 56.2682C58.0238 53.5592 63.4474 50.1325 68.3747 46.0697C73.6039 41.2935 78.261 35.9321 82.2534 30.0921C84.2303 27.0501 86.6315 24.3031 89.385 21.9333C89.586 21.8258 89.7578 21.6713 89.8856 21.4831C90.0134 21.2949 90.0933 21.0786 90.1185 20.8529C90.1437 20.6272 90.1135 20.3987 90.0303 20.1872C89.9472 19.9757 89.8136 19.7874 89.6412 19.6386C89.2301 19.1073 88.9343 18.4968 88.7726 17.8458C88.6109 17.1948 88.5867 16.5175 88.7017 15.8567C88.823 12.8168 89.1799 9.79078 89.7693 6.80556C90.0593 5.26254 90.8299 3.84944 91.9719 2.76646C93.1139 1.68348 94.5694 0.985517 96.1322 0.771454C97.4987 0.558986 98.8652 0.219037 100.403 0.0915561C101.494 -0.137683 102.633 0.0674614 103.575 0.663098C104.517 1.25874 105.187 2.19754 105.442 3.27858C106.172 5.27796 106.505 7.39934 106.424 9.52515C106.342 11.9275 106.741 14.3222 107.599 16.5693C108.457 18.8164 109.756 20.871 111.42 22.6132C116.077 28.166 118.923 34.9996 119.577 42.2028C123.164 68.1239 103.435 93.1952 80.3745 100.717C72.3884 103.53 63.9461 104.842 55.4782 104.584Z" fill="#FFFBE5"/>
<path d="M55.8342 73.84C55.3181 73.8638 54.8015 73.8092 54.2984 73.6774C54.1275 73.6304 53.9675 73.5423 53.8295 73.4192C53.6915 73.296 53.5786 73.1407 53.4985 72.9638C52.7997 71.632 52.3956 70.1296 52.3205 68.5839C52.2453 67.0382 52.5012 65.4948 53.0665 64.0846C53.5481 63.0377 54.2101 62.11 55.0137 61.3561C55.8173 60.6022 56.7462 60.0373 57.7459 59.6947C58.0899 59.5439 58.4426 59.4201 58.8017 59.3243C58.8491 59.3198 58.8952 59.3047 58.9373 59.2799C58.9795 59.2552 59.0169 59.2213 59.0473 59.1801C59.0778 59.139 59.1008 59.0914 59.1149 59.0402C59.1291 58.989 59.1341 58.9351 59.1297 58.8817C59.1521 58.1037 59.2956 57.3362 59.5536 56.6145C59.6509 56.3386 59.7829 56.08 59.9456 55.8467C60.1136 55.6118 60.2415 55.2686 60.5935 55.4221C60.694 55.4479 60.7887 55.497 60.8715 55.5663C60.9544 55.6355 61.0236 55.7235 61.0747 55.8246C61.1258 55.9256 61.1578 56.0376 61.1686 56.1534C61.1794 56.2691 61.1688 56.3862 61.1374 56.497C61.0414 56.9667 60.8894 57.4003 60.7775 57.8971C60.7135 58.1862 60.6655 58.4752 60.6095 58.8004C60.5535 59.1256 60.6655 59.1798 60.8894 59.2069C62.0446 59.3058 63.1662 59.6914 64.1742 60.3363C65.1822 60.9811 66.0517 61.8693 66.7206 62.9374C67.1698 63.6409 67.4882 64.4398 67.6565 65.286C67.6989 65.4625 67.7036 65.6479 67.6703 65.8269C67.6369 66.0059 67.5664 66.1734 67.4645 66.3157C66.6478 67.6146 65.7665 68.8601 64.8249 70.0462C63.3939 71.5527 61.6584 72.6411 59.7696 73.2168C58.4932 73.6479 57.1663 73.858 55.8342 73.84Z" fill="#FFFBE5"/>
<path d="M62.1337 58.4612C61.5392 58.4612 61.4213 58.1069 61.6424 56.8268C61.8039 55.8694 62.0462 54.9968 62.3551 54.2607C62.6639 53.5246 63.033 52.9398 63.4405 52.5409C63.6896 52.3229 63.9584 52.256 64.2217 52.3466C64.4968 52.4037 64.6049 52.6895 64.6147 53.3524C64.6241 54.1181 64.548 54.8765 64.3938 55.5535C64.2397 56.2305 64.0128 56.8031 63.7353 57.2154C63.2708 58.011 62.7105 58.4468 62.1337 58.4612Z" fill="#FFFBE5"/>
</svg>
