<svg width="37" height="16" viewBox="0 0 37 16" fill="none" xmlns="http://www.w3.org/2000/svg">
<path d="M0.360663 2.39751L0.360663 0.646837C0.360663 0.096408 0.712326 -0.117647 1.19395 0.172857C1.53797 0.363978 1.8667 0.593323 2.20307 0.799734L4.39714 2.17581C5.20749 2.68036 6.01785 3.18492 6.83585 3.70477C7.83732 4.31636 8.84644 4.92795 9.84791 5.54718C10.7118 6.07467 11.5756 6.60217 12.4395 7.13731L15.6503 9.12497L17.5845 10.3099C17.735 10.3963 17.8737 10.5016 17.9973 10.6234C18.0359 10.6636 18.0821 10.6956 18.1334 10.7175C18.1846 10.7394 18.2397 10.7506 18.2955 10.7506C18.3512 10.7506 18.4063 10.7394 18.4576 10.7175C18.5088 10.6956 18.5551 10.6636 18.5936 10.6234C18.9192 10.3275 19.2784 10.0709 19.6639 9.85887C20.8106 9.13261 21.9573 8.414 23.1346 7.70303C24.6177 6.79329 26.0779 5.85297 27.5763 4.97382C28.4478 4.46161 29.304 3.91883 30.1679 3.38369L34.1432 0.914405C34.4414 0.730929 34.7319 0.532165 35.03 0.348689C35.1731 0.247791 35.3239 0.158323 35.4811 0.0811175C35.9398 -0.132938 36.2456 0.081118 36.2456 0.547453L36.2456 4.1864C36.2452 4.34525 36.2007 4.50089 36.117 4.6359C36.0333 4.77091 35.9137 4.87997 35.7716 4.95088C34.1356 5.97019 32.4996 6.97677 30.8636 7.9706L25.3899 11.3496C24.3145 12.0224 23.234 12.69 22.1485 13.3526C21.1011 14.033 20.0308 14.6904 18.9606 15.2944C18.7643 15.4123 18.5397 15.4746 18.3108 15.4746C18.0818 15.4746 17.8572 15.4123 17.6609 15.2944C16.713 14.7363 15.7803 14.1553 14.8476 13.5819L11.7897 11.6936L9.38922 10.2029C8.36481 9.56837 7.3404 8.94914 6.33129 8.31461L2.50886 5.96765C1.98901 5.66185 1.41565 5.35606 0.865223 4.99675C0.706489 4.92124 0.573776 4.80026 0.48394 4.64917C0.394103 4.49808 0.351194 4.3237 0.360663 4.14817C0.360663 3.56717 0.360663 2.97851 0.360663 2.39751Z" fill="#FFF1A8"/>
</svg>
