<svg width="70" height="120" viewBox="0 0 70 120" fill="none" xmlns="http://www.w3.org/2000/svg">
<path d="M49.0102 35.6378C50.6909 35.4342 52.3113 34.8874 53.7702 34.0317C55.2291 33.176 56.4951 32.0297 57.4891 30.6646C58.3684 29.3822 59.3419 29.3822 60.6294 30.0703C62.5824 31.3191 64.1652 33.0648 65.2142 35.1268C66.2631 37.1889 66.7402 39.4925 66.596 41.7997C66.5115 42.8104 66.1815 43.7856 65.6344 44.6411C65.0873 45.4966 64.3396 46.2067 63.4557 46.7104C60.9094 48.3478 57.8384 48.973 54.8512 48.4619C54.0512 48.2643 53.2053 48.3879 52.4959 48.806C50.8653 49.9894 48.9391 50.703 46.9284 50.8685C44.9177 51.034 42.9001 50.6451 41.0965 49.7444C40.5313 49.4316 40.123 49.7444 39.6834 49.9633C37.8823 51.1288 35.79 51.7698 33.6426 51.814C31.4953 51.8582 29.3782 51.3039 27.5303 50.2135C27.2604 50.0507 26.9508 49.9646 26.6353 49.9646C26.3197 49.9646 26.0102 50.0507 25.7403 50.2135C23.8547 51.0462 21.7772 51.3521 19.7304 51.0987C17.6836 50.8452 15.7445 50.0419 14.1211 48.7747C13.8132 48.5493 13.453 48.4052 13.074 48.3559C12.6951 48.3067 12.3099 48.3539 11.9542 48.4932C10.4755 48.8915 8.92813 48.9692 7.41667 48.721C5.9052 48.4728 4.46479 47.9045 3.19269 47.0544C2.10961 46.4836 1.22805 45.596 0.66662 44.5112C0.105187 43.4263 -0.109184 42.1963 0.0523511 40.9864C0.215687 39.1007 0.806437 37.2765 1.78011 35.6512C2.75379 34.0258 4.08502 32.6416 5.67355 31.6029C7.40074 30.4456 8.06021 30.6333 9.28494 32.2598C10.8759 34.4059 13.0575 36.0465 15.5656 36.9828C22.1994 39.1738 29.2999 39.5625 36.1348 38.1088C29.47 37.987 22.879 36.6952 16.6647 34.2929C14.2752 32.9486 12.1046 31.2506 10.227 29.2571C9.03371 28.2249 9.53616 26.8799 10.227 25.7539C11.906 22.9442 14.6226 20.9009 17.7952 20.0612C18.6431 19.7797 19.6166 19.8736 19.9621 20.7494C20.5076 21.9679 21.3853 23.0096 22.4956 23.756C23.6059 24.5025 24.9041 24.9237 26.2427 24.9719C29.0821 25.6234 32.0411 25.5462 34.8424 24.7475C37.6436 23.9488 40.1954 22.4547 42.2584 20.4053C43.1816 19.6165 43.8666 18.5878 44.2369 17.4338C44.2643 17.1762 44.3543 16.9291 44.4991 16.7139C44.6439 16.4987 44.8391 16.3218 45.0679 16.1987C45.2967 16.0755 45.5523 16.0096 45.8123 16.0069C46.0724 16.0041 46.3293 16.0644 46.5607 16.1827C49.2155 16.8958 51.6531 18.2494 53.6579 20.1238C54.4848 20.8988 55.1438 21.8342 55.5943 22.8723C56.0447 23.9105 56.2771 25.0295 56.2771 26.1605C56.2771 27.2915 56.0447 28.4105 55.5943 29.4487C55.1438 30.4868 54.4848 31.4222 53.6579 32.1972C52.2607 33.5349 50.699 34.691 49.0102 35.6378ZM33.3085 22.9076C41.6932 20.7806 45.0219 12.6795 38.8041 4.79741C37.8011 3.39517 36.4912 2.23847 34.9733 1.4148C33.4554 0.591133 31.7693 0.122075 30.0425 0.0431042C29.3831 0.0431042 28.5038 -0.238402 28.2212 0.637391C27.9385 1.51318 28.8178 1.6383 29.2575 2.07619C29.8104 2.4881 30.2635 3.01829 30.5834 3.62773C30.9033 4.23717 31.0819 4.91032 31.106 5.59761C31.1301 6.2849 30.9991 6.96883 30.7227 7.59902C30.4462 8.2292 30.0314 8.7896 29.5087 9.23893C28.7643 10.0232 27.894 10.6785 26.9336 11.1782C25.6944 11.725 24.6142 12.575 23.7933 13.6492C21.7521 16.777 21.6579 19.3106 24.704 21.3749C26.5097 22.5917 28.6478 23.2251 30.8276 23.1891C31.6278 23.1393 32.4246 23.0453 33.2143 22.9076H33.3085Z" fill="#FFFBE5"/>
<path d="M64.0781 88.3626C63.8947 84.9074 62.7579 81.5793 60.8026 78.7732C57.4427 74.8363 52.8 72.3195 47.7616 71.7035C42.7232 71.0876 37.6423 72.4158 33.4897 75.4343C31.6585 76.9034 29.8015 78.2924 27.9703 79.7348C23.6116 83.2073 18.7886 86.0654 14.4557 89.5913C13.9832 89.9004 13.5799 90.3106 13.273 90.7943C12.9661 91.278 12.7626 91.8241 12.6761 92.396C12.2247 98.1205 12.2247 103.874 12.6761 109.598C12.7227 110.126 12.8781 110.638 13.1317 111.099C13.3852 111.559 13.7312 111.959 14.1462 112.269C15.4407 113.202 17.0128 113.627 18.5823 113.471C24.1274 113.471 29.6726 113.071 34.0571 113.231C37.9516 113.231 40.6854 113.231 43.4193 113.231C46.1742 113.226 48.8915 112.568 51.363 111.308C55.4771 109.267 58.8958 105.981 61.1664 101.883C63.437 97.7859 64.4524 93.0709 64.0781 88.3626ZM41.0465 108.156C37.5905 107.995 34.1087 108.156 30.73 108.156H19.4076C18.1954 108.156 17.6538 107.702 17.6796 106.419C17.6796 103.989 17.6796 101.558 17.6796 99.1272C17.6796 98.1656 18.0665 97.7917 19.0208 97.7917C27.1708 97.7917 35.3209 97.3376 43.4709 97.5245C43.9933 97.45 44.5251 97.4949 45.029 97.6561C45.5329 97.8172 45.9965 98.0907 46.3874 98.4574C46.7782 98.824 47.0868 99.2748 47.2914 99.7782C47.496 100.282 47.5917 100.825 47.5717 101.371C47.7179 102.294 47.6503 103.239 47.3745 104.13C47.0987 105.02 46.6226 105.83 45.9854 106.493C45.3482 107.155 44.5681 107.651 43.7095 107.94C42.8508 108.23 41.9381 108.303 41.0465 108.156Z" fill="#FFFBE5"/>
<path d="M31.5998 76.5024C25.6378 76.3136 19.839 78.4843 15.4424 82.5506C13.7343 84.0713 12.3575 85.9328 11.399 88.0176C10.4405 90.1023 9.92114 92.365 9.87369 94.6625C9.82624 96.96 10.2518 99.2425 11.1233 101.366C11.9949 103.489 13.2937 105.407 14.9374 106.998C16.714 108.563 18.7276 109.831 20.9018 110.754C26.0115 112.926 31.5627 113.832 37.0908 113.396C42.4021 113.335 47.6123 111.923 52.2384 109.29C55.2473 106.919 57.551 103.758 58.897 100.154C59.6986 96.0118 58.9927 91.7171 56.9089 88.0576C54.3574 83.4966 50.184 80.0832 45.2326 78.5079C40.7858 77.2839 36.2079 76.6105 31.5998 76.5024ZM26.1088 96.3022C25.8454 96.3421 25.5764 96.318 25.3241 96.2319C25.0718 96.1457 24.8436 96.0001 24.6584 95.807C24.4732 95.614 24.3363 95.3791 24.2593 95.1219C24.1822 94.8648 24.1671 94.5928 24.2153 94.3286C24.2153 92.7051 25.6985 92.7688 26.6137 92.4186C27.5289 92.0685 28.5703 93.0553 28.4756 94.2331C28.4791 94.5338 28.4177 94.8317 28.2955 95.106C28.1732 95.3802 27.9932 95.6244 27.7679 95.8213C27.5426 96.0183 27.2775 96.1633 26.9909 96.2464C26.7044 96.3294 26.4034 96.3485 26.1088 96.3022ZM37.7851 88.2486C37.7851 87.1663 39.2051 85.9566 40.9408 86.0203C41.6666 86.0203 42.3293 86.6888 42.2347 87.8666C42.14 89.0444 40.8461 89.7447 39.5838 89.872C39.3553 89.9105 39.121 89.8967 38.8985 89.8316C38.6759 89.7666 38.4707 89.6518 38.298 89.496C38.1253 89.3401 37.9895 89.1471 37.9008 88.9312C37.812 88.7153 37.7724 88.482 37.7851 88.2486ZM40.9408 101.937C39.6154 101.937 38.858 101.364 38.9527 100.281C39.0473 99.1989 40.4359 98.5941 41.5719 98.4349C42.708 98.2758 43.497 98.6896 43.3707 99.7719C43.2787 100.385 42.9684 100.943 42.4978 101.341C42.0273 101.74 41.4288 101.951 40.8146 101.937H40.9408Z" fill="#FFFBE5"/>
<path d="M69.0299 50.6085C67.812 49.6661 64.8635 53.7499 60.7291 54.0955C58.037 54.284 57.7165 52.6504 54.768 52.9332C51.8195 53.2159 51.7233 54.818 48.8389 55.2578C45.9545 55.6976 45.1212 53.9384 41.692 54.0955C38.2627 54.2526 37.7499 56.5458 34.545 56.4202C30.7632 56.2631 28.9043 53.0274 26.2122 54.0955C25.5392 54.3782 25.7956 54.4725 24.7059 54.9437C22.9204 55.6407 20.9522 55.751 19.0973 55.2578C16.4693 54.6295 16.6295 53.6557 14.322 52.9332C10.7004 51.7394 9.41847 54.1269 6.02126 52.9332C2.62405 51.7394 0.829292 48.8807 0.0601126 49.4148C-0.196281 49.6032 0.0601111 108.537 7.20707 114.694C14.354 120.851 47.4929 125.657 61.4983 112.715C67.3954 107.249 69.4786 50.9226 69.0299 50.6085Z" fill="#FFFBE5"/>
</svg>
