<svg width="52" height="35" viewBox="0 0 52 35" fill="none" xmlns="http://www.w3.org/2000/svg">
<path d="M45.2043 0.263672H6.61946C3.18072 0.263672 0.382812 3.01123 0.382812 6.38807V28.1781C0.382812 31.5549 3.18072 34.3025 6.61946 34.3025H45.2043C48.6431 34.3025 51.441 31.5549 51.441 28.1781V6.38874C51.4417 3.01123 48.6437 0.263672 45.2043 0.263672ZM42.1569 4.25915L25.9119 14.5368L9.66692 4.25915H42.1569ZM45.2043 30.3076H6.61946C5.42394 30.3076 4.45152 29.3521 4.45152 28.1787V6.50194L24.6567 19.2608C24.6838 19.2775 24.713 19.2888 24.7408 19.3041C24.7699 19.3201 24.7998 19.3354 24.8296 19.3501C24.9863 19.4293 25.1477 19.4932 25.3124 19.5352C25.3294 19.5398 25.3463 19.5418 25.3633 19.5458C25.5444 19.5878 25.7275 19.6138 25.9105 19.6138H25.9119C25.9133 19.6138 25.9146 19.6138 25.9146 19.6138C26.0977 19.6138 26.2808 19.5884 26.4619 19.5458C26.4788 19.5418 26.4958 19.5398 26.5127 19.5352C26.6775 19.4932 26.8382 19.4293 26.9955 19.3501C27.0254 19.3354 27.0552 19.3201 27.0844 19.3041C27.1122 19.2888 27.1413 19.2775 27.1684 19.2608L47.3736 6.50194V28.1781C47.373 29.3521 46.3999 30.3076 45.2043 30.3076Z" fill="#FFFBE5"/>
</svg>
