<svg width="68" height="120" viewBox="0 0 68 120" fill="none" xmlns="http://www.w3.org/2000/svg">
<path d="M41.9794 100.423C42.1147 100.775 42.2316 101.174 42.3269 101.609L42.4338 102.077C42.4338 102.077 42.4494 102.119 42.4338 102.149C42.4182 102.178 42.416 102.149 42.4048 102.149C42.0312 102.194 41.6569 102.112 41.2911 101.905C41.1641 101.834 41.0371 101.775 40.9102 101.722C41.0215 101.84 41.1329 101.941 41.251 102.03C41.5414 102.262 41.8399 102.415 42.142 102.486C42.1554 102.486 42.1821 102.486 42.1821 102.486C42.1821 102.486 42.1665 102.564 42.1554 102.593C42.0578 102.813 41.95 102.998 41.8346 103.145C41.8346 103.145 41.8145 103.145 41.8101 103.192C41.9184 103.147 42.0222 103.044 42.1153 102.89C42.1747 102.799 42.2314 102.696 42.2846 102.581C42.3091 102.531 42.3384 102.501 42.3692 102.492C42.4776 102.463 42.5839 102.395 42.6855 102.291C42.7011 102.291 42.7211 102.232 42.7323 102.291C42.7434 102.35 42.7323 102.374 42.7211 102.415C42.6926 102.648 42.6584 102.876 42.6187 103.097C42.5689 103.333 42.4996 103.536 42.416 103.69C42.1851 104.141 41.905 104.379 41.6185 104.366H41.5873C41.5472 104.366 41.5339 104.307 41.5428 104.206C41.5517 104.105 41.5428 104.117 41.5161 104.117C41.4327 104.125 41.3493 104.115 41.2666 104.087C41.1029 103.996 40.9472 103.823 40.8077 103.577C40.7698 103.506 40.7654 103.453 40.7921 103.346L40.8033 103.305C40.8233 103.234 40.8188 103.192 40.7877 103.156C40.6687 102.988 40.5623 102.763 40.4736 102.492C40.3675 102.202 40.2707 101.889 40.184 101.556C40.1216 101.307 40.1239 101.224 40.2107 101.034C40.4161 100.571 40.6486 100.2 40.899 99.9371C40.9625 99.8744 41.0282 99.8287 41.0951 99.8008C41.124 99.8008 41.1352 99.7652 41.1218 99.694C41.1141 99.6436 41.1074 99.5922 41.1017 99.5399C41.1017 99.4569 41.1017 99.4095 41.1352 99.3739C41.2696 99.2497 41.4097 99.1739 41.5517 99.1486C41.6747 99.1316 41.7979 99.1656 41.917 99.2494C41.9482 99.2494 41.9593 99.2494 41.966 99.1664C41.9727 99.0834 41.9883 98.9945 42.044 99.0182C42.1757 99.0601 42.3023 99.1798 42.4144 99.3685C42.5266 99.5572 42.6215 99.8102 42.6922 100.109C42.77 100.458 42.813 100.854 42.8169 101.259C42.8169 101.449 42.8169 101.639 42.8169 101.852C42.8169 101.905 42.8169 101.929 42.788 101.947L42.5875 102.107C42.5697 102.107 42.5585 102.107 42.5474 102.066C42.4647 101.713 42.37 101.382 42.2645 101.075C42.1796 100.829 42.0839 100.61 41.9794 100.423Z" fill="#FFFBE5"/>
<path d="M45.4932 96.0841C45.4932 96.0144 45.4932 95.9813 45.4932 95.9813C45.4932 95.9813 45.4931 96.0898 45.4931 96.2896C45.4931 96.4742 45.4931 96.6903 45.4931 96.9312C45.4931 97.1701 45.4931 97.4145 45.4931 97.6561C45.4931 97.6922 45.4931 97.7561 45.493 97.7283C45.493 97.7006 45.493 97.6395 45.493 97.5978C45.4931 97.0618 45.4931 96.4868 45.4931 95.9647C45.4931 95.7896 45.4931 95.6404 45.4931 95.53C45.4931 95.4197 45.4931 95.3515 45.4932 95.3314C45.4932 95.3113 45.4932 95.3092 45.4932 95.3092C45.4932 95.3092 45.4931 94.8037 45.4931 94.9954C45.4931 95.0231 45.4931 95.0731 45.4931 95.0343C45.4931 94.9954 45.4931 94.9565 45.4931 94.9204C45.4931 94.5288 45.4931 94.126 45.4932 93.7455C45.4932 93.5214 45.4932 93.3479 45.4932 93.2567C45.4932 93.0809 45.4932 92.7911 45.4932 92.4277C45.4933 92.0643 45.4933 91.6454 45.4933 91.2292C45.4933 91.057 45.4933 90.9737 45.4932 90.9876C45.4932 90.9938 45.4932 91.1167 45.4932 91.3403C45.4932 91.517 45.4932 91.7661 45.4931 92.058C45.4931 92.35 45.4931 92.6725 45.4931 92.9873C45.4931 93.2278 45.4931 93.4769 45.4931 93.7039C45.4931 93.9094 45.4931 94.1122 45.4931 94.3121C45.4931 95.1315 45.4931 95.9452 45.493 96.7868C45.493 97.1562 45.493 97.5839 45.493 97.9422C45.493 98.2672 45.493 98.7449 45.493 99.0143C45.493 98.7206 45.493 98.472 45.493 98.2883C45.4931 98.1046 45.4931 97.9909 45.4931 97.9561C45.4931 97.945 45.4932 97.7565 45.4932 97.42C45.4932 97.1599 45.4932 96.8188 45.4932 96.4341C45.4932 96.2174 45.4932 96.1424 45.4932 96.0841Z" fill="#FFFBE5"/>
<path d="M47.5795 78.9324C46.7804 73.0388 46.4807 67.1118 45.3153 61.2847C45.1155 60.3857 45.4818 60.1526 46.2809 60.3524L47.5129 60.7187C48.9481 61.2332 50.4821 61.4125 51.9972 61.2426C53.5124 61.0728 54.9686 60.5584 56.2542 59.7388C57.5399 58.9192 58.6208 57.8162 59.4143 56.5143C60.2078 55.2123 60.6927 53.7461 60.832 52.2278C61.0777 49.9648 60.8035 47.6757 60.0303 45.5348C59.257 43.394 58.0051 41.458 56.3701 39.8744C54.9226 38.6226 53.362 37.5079 51.7084 36.5446C51.8749 36.5446 51.9748 36.3115 52.0414 36.3115H52.8738C54.7161 36.5695 56.5922 36.4327 58.3775 35.9103C60.1629 35.3879 61.8168 34.4918 63.2294 33.2814C64.9111 32.0215 66.1882 30.2978 66.904 28.3221C67.6197 26.3464 67.7429 24.2047 67.2584 22.16C66.9139 20.0346 65.9133 18.0701 64.3967 16.5415C62.8801 15.013 60.9235 13.9971 58.8008 13.6358C55.1049 13.0085 51.3052 13.6048 47.9791 15.334C46.0422 16.3239 44.2681 17.604 42.7181 19.1299C43.2508 17.9645 43.6504 17.1987 43.9168 16.3995C44.6162 14.4064 44.7914 12.2668 44.4256 10.1864C44.0598 8.10603 43.1652 6.15462 41.8278 4.51962C40.4903 2.88462 38.755 1.62094 36.7884 0.849961C34.8218 0.0789772 32.69 -0.173419 30.5977 0.117009C28.618 0.253586 26.7335 1.01829 25.2183 2.29986C23.7032 3.58144 22.6365 5.31302 22.1734 7.2427C20.9721 11.3219 21.3771 15.7062 23.3056 19.4962C22.5397 19.4962 22.24 18.9968 21.8072 18.6971C20.2916 17.5636 18.5622 16.7487 16.7232 16.3016C14.8842 15.8545 12.9737 15.7844 11.1068 16.0955C9.24001 16.4067 7.45551 17.0926 5.86092 18.112C4.26633 19.1314 2.89467 20.4631 1.82861 22.0268C0.779839 23.4547 0.154811 25.1492 0.0252403 26.9161C-0.10433 28.683 0.266805 30.4506 1.09607 32.0161C2.25288 34.362 4.08617 36.3074 6.35936 37.6013C8.63255 38.8952 11.2413 39.4782 13.849 39.275C14.3152 39.275 14.9479 39.0086 15.2143 39.5081C15.4806 40.0075 14.8147 40.3072 14.515 40.6402C12.1684 42.9738 10.6583 46.0173 10.2196 49.2976C9.79518 51.0263 9.78193 52.8305 10.1809 54.5653C10.5799 56.3001 11.3801 57.9172 12.5171 59.2869C15.0322 61.5034 18.2907 62.69 21.6422 62.6098C24.9937 62.5295 28.1916 61.1884 30.5977 58.854C32.5322 56.7645 33.7963 54.1434 34.2272 51.3287C34.2272 50.7627 34.2272 49.7637 34.9264 49.6971C35.6257 49.6306 35.5258 50.5962 35.7589 51.1289C37.4188 56.2649 38.6331 61.5343 39.3883 66.8787C41.184 74.3066 41.8796 81.9578 41.4528 89.5877C40.9841 95.6315 39.5333 101.559 37.1574 107.136C36.3249 108.8 35.6257 110.465 34.7599 112.163C33.9059 113.681 33.2246 115.289 32.7288 116.958C32.4624 118.19 32.5623 119.489 33.9941 119.722C34.9597 120.065 36.0092 120.091 36.9909 119.798C37.9726 119.505 38.8356 118.907 39.4549 118.09C40.2077 117.053 40.8442 115.937 41.3529 114.761C44.4964 107.078 46.7314 99.0544 48.0124 90.853C47.746 86.6575 47.746 80.1645 47.5795 78.9324ZM34.5935 41.9721C30.0983 41.6724 25.8029 39.3083 25.7696 34.1805C25.6503 32.9907 25.7867 31.7893 26.1696 30.6566C26.5525 29.5238 27.173 28.486 27.9896 27.6127C28.8062 26.7393 29.8001 26.0505 30.9046 25.5925C32.009 25.1345 33.1986 24.9178 34.3937 24.957C35.4772 24.9095 36.5584 25.0947 37.5643 25.5001C38.5703 25.9056 39.4777 26.5219 40.2254 27.3075C40.9732 28.0931 41.5439 29.0298 41.8992 30.0545C42.2545 31.0793 42.3861 32.1682 42.2852 33.2481C42.2852 37.7433 38.5892 42.2052 34.5935 41.9721Z" fill="#FFFBE5"/>
</svg>
