<svg width="99" height="99" viewBox="0 0 99 99" fill="none" xmlns="http://www.w3.org/2000/svg">
<circle cx="49.5" cy="49.5" r="49.5" fill="#BFA443"/>
<circle cx="49.4998" cy="49.4998" r="43.8429" stroke="#FFFBE5" stroke-width="2.82856"/>
<path d="M40.8596 82.0208H38.95C38.6588 82.0521 38.3662 81.9752 38.1276 81.8046C37.8891 81.6339 37.7211 81.3814 37.6554 81.0948C37.4946 80.4529 37.4453 79.7879 37.5098 79.1291C37.527 78.9708 37.5952 78.8225 37.704 78.7067L40.1476 75.8312C41.8791 73.7679 43.9181 72.0459 45.8276 70.1776L46.6529 69.3166C46.7417 69.1888 46.8576 69.0824 46.9922 69.0049C47.1268 68.9275 47.2769 68.8809 47.4315 68.8684C47.5862 68.856 47.7417 68.8781 47.8868 68.9331C48.032 68.9881 48.1633 69.0747 48.2712 69.1866L49.4201 70.1451L56.3786 76.3673L58.4014 78.1543C58.5708 78.2896 58.7059 78.4631 58.7959 78.6607C58.8859 78.8583 58.9282 79.0744 58.9193 79.2915C58.9193 80.7212 58.45 81.4035 56.8155 81.501C54.8089 81.5984 52.7861 81.6147 50.7795 81.6797C48.3521 81.7609 45.9247 81.8909 43.4973 81.9234L40.8596 82.0208Z" fill="#FFFBE5"/>
<path d="M46.9766 44.964C47.3667 44.9204 47.7615 44.9601 48.1352 45.0805C48.5089 45.2009 48.8531 45.3992 49.145 45.6626L57.5114 52.5346L64.7612 58.4318C64.923 58.5618 65.0848 58.6755 65.0524 58.9192C64.9362 60.3769 64.6316 61.8131 64.1462 63.1919C64.1442 63.2298 64.1442 63.2677 64.1462 63.3056C64.0006 63.6468 63.9359 63.6793 63.6284 63.4356L61.2172 61.4698L54.8898 56.3361C54.7288 56.2184 54.5822 56.0821 54.4529 55.93C53.4423 54.8806 52.3311 53.9337 51.1355 53.1032C50.9265 52.9545 50.6899 52.8495 50.4396 52.7945C49.2051 52.4623 48.0111 51.9937 46.8795 51.3974C46.2603 51.0438 45.7262 50.5578 45.3151 49.9738C44.904 49.3899 44.6259 48.7222 44.5006 48.0182C44.3867 47.5565 44.4138 47.0709 44.5783 46.6248C44.7428 46.1786 45.0371 45.7924 45.4231 45.5164C45.8894 45.21 46.4221 45.0206 46.9766 44.964Z" fill="#FFFBE5"/>
<path d="M59.4047 71.3311C59.4047 71.3311 59.4047 71.526 59.2915 71.6397C58.8934 72.3647 58.6977 73.1842 58.7251 74.0116V74.1903C58.7251 74.4828 58.5956 74.5477 58.3367 74.3853L57.7379 73.8817C55.8284 72.2571 53.838 70.6325 51.8799 69.0079L48.2712 66.0511L47.9799 65.8887C47.9086 65.8088 47.8212 65.7449 47.7237 65.7011C47.6261 65.6574 47.5204 65.6348 47.4135 65.6348C47.3066 65.6348 47.2009 65.6574 47.1033 65.7011C47.0058 65.7449 46.9184 65.8088 46.8471 65.8887C46.3293 66.2786 45.8114 66.701 45.2289 67.1071L37.6231 73.3455L36.9272 73.9141C36.7169 74.0766 36.5388 74.0929 36.377 73.9141C35.893 73.2802 35.3512 72.6928 34.7588 72.1596C34.4028 71.8184 34.4028 71.7372 34.7588 71.4935C37.5021 69.5945 40.1385 67.5444 42.6558 65.3526C43.5782 64.6215 44.4683 63.858 45.3907 63.1107C45.8299 62.7647 46.2362 62.3785 46.6044 61.9572C47.0089 61.5023 47.2679 61.4698 47.721 61.876C49.2259 63.2244 50.8118 64.4591 52.3815 65.7425C54.55 67.5133 56.6861 69.3003 58.8545 71.0224C59.162 70.9899 59.3724 71.0711 59.4047 71.3311Z" fill="#FFFBE5"/>
<path d="M48.4168 58.3831C48.566 57.8507 48.6742 57.3076 48.7405 56.7585C48.854 56.2504 48.854 55.7233 48.7405 55.2152C48.7325 55.0799 48.7325 54.9443 48.7405 54.809C48.7335 54.7526 48.7421 54.6953 48.7655 54.6435C48.7889 54.5917 48.8261 54.5474 48.8729 54.5155C48.9198 54.4836 48.9746 54.4652 49.0311 54.4626C49.0877 54.4599 49.1439 54.473 49.1936 54.5003C49.3553 54.5782 49.5029 54.6825 49.6305 54.809C50.9575 55.8975 52.2683 57.0022 53.6114 58.0582C56.1521 60.1377 58.7413 62.1846 61.2819 64.2804C61.7512 64.6703 62.2367 65.0439 62.7545 65.4013C63.2724 65.7587 63.1429 65.7425 62.9649 66.0836C62.531 66.9657 62.0391 67.8178 61.4923 68.6342C61.201 69.0404 61.1363 69.0566 60.7317 68.7317L55.084 64.2641L48.789 59.0979C48.5786 58.8867 48.4168 58.7405 48.4168 58.3831Z" fill="#FFFBE5"/>
<path d="M60.2139 18.3858C60.8437 18.3753 61.4668 18.5175 62.0302 18.8003C62.5937 19.0831 63.0808 19.4982 63.4504 20.0104C63.8544 20.598 64.0114 21.3218 63.8873 22.0249C63.6769 23.2596 63.4504 24.4942 63.2238 25.7452C63.1105 26.3463 62.9973 26.9636 62.9002 27.5647C62.9002 27.6947 62.9002 27.8571 62.706 27.9059C62.5118 27.9546 62.4956 27.8246 62.4147 27.7434L60.5052 25.8264C60.2948 25.6314 60.0521 25.4365 59.8417 25.2253C59.6908 25.0773 59.4925 24.9878 59.2821 24.973C59.0716 24.9581 58.8627 25.0187 58.6927 25.1441L58.0292 25.5502L56.1197 26.6712C55.9741 26.7524 55.8122 26.9149 55.6342 26.7687C55.4562 26.6224 55.6342 26.4762 55.6342 26.33C55.9255 25.1441 56.233 23.9744 56.5243 22.7884C56.7007 21.9735 56.9443 21.1747 57.2525 20.4003C57.4287 19.9576 57.6999 19.5593 58.0467 19.2336C58.3935 18.9079 58.8074 18.6629 59.2591 18.5158C59.5705 18.4316 59.8914 18.3879 60.2139 18.3858Z" fill="#FFFBE5"/>
<path d="M46.7986 42.7058C45.9395 42.7377 45.0917 42.9134 44.2903 43.2257L44.0152 43.3394C43.9757 43.3697 43.9273 43.3862 43.8776 43.3862C43.8279 43.3862 43.7796 43.3697 43.7401 43.3394C43.7003 43.2948 43.6783 43.2369 43.6783 43.177C43.6783 43.117 43.7003 43.0592 43.7401 43.0145C43.8702 42.7671 44.0162 42.5283 44.177 42.2997C44.711 41.4874 45.2774 40.6751 45.7953 39.8628C46.1836 39.2942 46.2645 39.2617 46.9118 39.5542C48.4168 40.2365 49.938 40.9188 51.4268 41.6174C51.6636 41.7443 51.9305 41.8039 52.1986 41.7896C52.4667 41.7752 52.7258 41.6876 52.9479 41.5361C53.9836 40.9026 55.0678 40.334 56.1844 39.7491C56.7832 39.4242 56.7994 39.4242 57.2363 39.9278C58.2072 41.0325 59.0811 42.186 59.9873 43.3232C60.1236 43.489 60.2329 43.6754 60.311 43.8756C60.6047 44.6121 60.7104 45.4107 60.6184 46.1987C60.6184 46.2799 60.6184 46.4262 60.489 46.4749C60.4484 46.4938 60.4042 46.5036 60.3595 46.5036C60.3148 46.5036 60.2706 46.4938 60.2301 46.4749C60.1118 46.3959 60.0031 46.3032 59.9064 46.1987C58.5953 44.9529 56.9344 44.1419 55.1487 43.8756C53.0127 43.5019 50.8604 43.2095 48.6757 42.917C47.9961 42.7708 47.3973 42.7546 46.7986 42.7058Z" fill="#FFFBE5"/>
<path d="M39.7268 28.0358C39.5008 27.5144 39.3326 26.9696 39.2251 26.4113C38.9986 25.5177 38.772 24.6242 38.594 23.7307C38.4343 22.8259 38.6137 21.8938 39.0977 21.1139C39.5817 20.334 40.3362 19.7615 41.2156 19.5068C42.0692 19.2801 42.9768 19.3893 43.7528 19.8121C44.5288 20.2348 45.1147 20.9392 45.3907 21.7812C45.8923 23.3083 46.3616 24.8354 46.8309 26.3625C46.8892 26.5238 46.9166 26.6946 46.9118 26.8661C46.7015 26.9799 46.572 26.8661 46.4426 26.8661C45.1641 26.2813 43.9666 25.5665 42.7368 24.9166C42.1542 24.6242 42.0571 24.6242 41.7173 25.1603L40.2123 27.6134C40.0828 27.7109 40.0019 27.9546 39.7268 28.0358Z" fill="#FFFBE5"/>
<path d="M62.35 30.4727L61.913 33.0071C61.7836 33.7056 61.6541 34.4205 61.4923 35.119C61.4923 35.4277 61.3143 35.4602 61.1039 35.2165C60.6023 34.6154 60.0844 33.9981 59.6151 33.3482C59.2832 32.9016 58.9151 32.4832 58.5147 32.0973C58.1263 31.7724 58.1263 31.7724 57.6409 31.9673L54.4043 33.7219L54.2102 33.8519C54.0969 33.8519 53.9836 33.9818 53.8703 33.8519C53.757 33.7219 53.8703 33.6082 53.8703 33.4782C54.194 32.0973 54.55 30.7326 54.8736 29.3518C54.9185 29.2186 54.9906 29.0963 55.0854 28.9927C55.1801 28.8892 55.2954 28.8067 55.4238 28.7507L57.7379 27.4835C58.0366 27.3262 58.3233 27.147 58.5956 26.9474C58.9516 26.6549 59.1782 26.6549 59.4857 26.9474C60.3919 27.8734 61.2657 28.8319 62.172 29.7579C62.2593 29.8523 62.3214 29.9673 62.3525 30.0923C62.3837 30.2173 62.3828 30.3482 62.35 30.4727Z" fill="#FFFBE5"/>
<path d="M40.3256 30.6352C40.3097 30.4599 40.3619 30.2853 40.4712 30.1478C41.1347 29.2055 41.7173 28.1983 42.4455 27.2885C42.7691 26.8661 42.8824 26.8336 43.3517 27.0448C44.1285 27.386 44.889 27.7109 45.6334 28.1008C46.1351 28.3608 46.6367 28.572 47.1546 28.7994C47.3081 28.8446 47.4478 28.9278 47.5609 29.0414C47.674 29.1549 47.7568 29.2951 47.8019 29.4492C48.2064 30.7814 48.6272 32.1135 49.0156 33.462C49.0965 33.7219 49.0156 33.8194 48.7405 33.7056C48.1579 33.462 47.5915 33.1858 47.0089 32.9096L44.6139 31.7724C44.0961 31.5449 44.0637 31.5449 43.7239 32.0161L42.1056 34.5017C42.1056 34.6154 41.96 34.7291 41.8629 34.8429C41.7658 34.9566 41.5716 35.0053 41.4907 34.7616C41.3289 34.258 41.1832 33.7544 41.0538 33.267C40.8434 32.471 40.6654 31.6424 40.455 30.8789C40.3256 30.8301 40.3256 30.7164 40.3256 30.6352Z" fill="#FFFBE5"/>
<path d="M33.3671 46.3937C33.7063 46.367 34.0453 46.4485 34.3359 46.6264C34.6264 46.8043 34.8536 47.0696 34.9853 47.3847C35.3101 48.029 35.586 48.6969 35.8106 49.3829C35.9725 49.8053 36.1181 50.2439 36.2637 50.6826C36.4094 51.1212 36.3932 51.1862 36.0534 51.4624L31.7488 54.809C31.3443 55.1339 31.2472 55.1177 31.0692 54.6303C30.6646 53.4606 30.1953 52.3234 29.8393 51.1375C29.6532 50.501 29.6532 49.8244 29.8393 49.1879C30.0882 48.4254 30.5557 47.7535 31.1832 47.2564C31.8108 46.7594 32.5704 46.4593 33.3671 46.3937Z" fill="#FFFBE5"/>
<path d="M35.2119 63.3218C35.7873 63.4604 36.3909 63.4207 36.9434 63.2081C37.7058 63.036 38.4025 62.6468 38.95 62.0872C39.373 61.6946 39.7478 61.2529 40.0666 60.7712C40.2608 60.4138 40.3903 60.4138 40.7301 60.6413C41.2747 61.0558 41.9401 61.2784 42.6235 61.2749C42.7691 61.2749 42.9309 61.2749 42.9795 61.4211C43.028 61.5673 42.8986 61.7135 42.7691 61.811L39.3384 64.589L33.5775 69.3003L33.3023 69.5115C33.2608 69.5476 33.2118 69.5739 33.1588 69.5887C33.1059 69.6035 33.0504 69.6063 32.9962 69.597C32.9421 69.5876 32.8907 69.5664 32.8457 69.5348C32.8007 69.5032 32.7632 69.4619 32.736 69.414C32.1373 68.5641 31.6479 67.6416 31.2795 66.6685C31.2345 66.5569 31.2259 66.4339 31.255 66.3171C31.2841 66.2003 31.3493 66.0958 31.4414 66.0187C31.64 65.8215 31.8508 65.637 32.0725 65.4663C32.7845 64.8815 33.4804 64.2966 34.2086 63.728C34.4768 63.4654 34.8373 63.3195 35.2119 63.3218Z" fill="#FFFBE5"/>
<path d="M60.9583 38.2707C60.8072 39.2238 60.6454 40.1986 60.4728 41.195C60.4728 41.4712 60.2786 41.5037 60.0682 41.195C59.5342 40.5614 59.0164 39.8953 58.45 39.2455C57.8836 38.5956 57.7056 38.3682 57.3657 37.8971C57.0259 37.4259 57.0097 37.5072 56.6214 37.7184L53.6761 39.343C53.3525 39.5217 53.0288 39.7004 52.6728 39.8628C52.3168 40.0253 52.3006 39.8628 52.333 39.6029C52.3654 39.343 52.333 39.4079 52.333 39.3105C52.5272 38.5632 52.7214 37.7996 52.8832 37.036C52.9147 36.8594 52.9887 36.6931 53.0987 36.5515C53.2086 36.41 53.3513 36.2975 53.5143 36.2238L56.0711 35.0216C56.4434 34.8297 56.8054 34.6182 57.1554 34.388C57.5761 34.0793 57.835 34.1118 58.1263 34.5179C58.6118 35.2165 59.1944 35.8176 59.7446 36.4837C60.0521 36.8898 60.3595 37.2797 60.6832 37.6534C60.8441 37.8204 60.9415 38.0389 60.9583 38.2707Z" fill="#FFFBE5"/>
<path d="M39.7915 42.6571C40.3298 42.628 40.8654 42.7512 41.3374 43.0125C41.8095 43.2739 42.199 43.6629 42.4617 44.1355C42.6292 44.3904 42.714 44.6912 42.7044 44.9965C42.7242 45.3742 42.6537 45.7511 42.4989 46.0959C42.3441 46.4407 42.1094 46.7433 41.8144 46.9785C40.6978 47.7908 39.6297 48.6031 38.5778 49.4966C38.1733 49.8215 38.0438 49.789 37.8658 49.3342C37.5098 48.4081 37.1376 47.4659 36.814 46.5236C36.6775 46.2528 36.5956 45.9575 36.573 45.6549C36.5504 45.3522 36.5875 45.048 36.6822 44.7597C36.7769 44.4715 36.9273 44.2048 37.1249 43.975C37.3225 43.7452 37.5632 43.5569 37.8334 43.4207C38.4005 42.9843 39.0798 42.7194 39.7915 42.6571Z" fill="#FFFBE5"/>
<path d="M42.2351 38.0108C42.2157 37.9111 42.2187 37.8083 42.2439 37.71C42.2691 37.6116 42.3158 37.5201 42.3807 37.4422C43.0442 36.4512 43.7077 35.444 44.3874 34.4692C44.6787 34.0468 44.8405 33.9981 45.3098 34.2255L49.5496 36.1588C49.675 36.2209 49.7868 36.3074 49.8785 36.4134C49.9702 36.5194 50.04 36.6427 50.0836 36.7761C50.3587 37.6696 50.6338 38.5632 50.9251 39.4567C50.9251 39.5542 50.9251 39.6679 50.9251 39.7329C50.8895 39.749 50.8509 39.7574 50.8118 39.7574C50.7728 39.7574 50.7342 39.749 50.6986 39.7329C50.0189 39.343 49.2583 39.1318 48.5786 38.7581C47.899 38.3845 46.9604 38.1083 46.2484 37.6859C45.86 37.4584 45.7143 37.5234 45.4392 37.8971C44.8243 38.7744 44.2255 39.6679 43.6106 40.5614C43.5282 40.6977 43.4363 40.828 43.3355 40.9513C43.2276 41.0704 43.1305 41.0704 43.0442 40.9513C42.672 39.8953 42.4455 38.8718 42.2351 38.0108Z" fill="#FFFBE5"/>
<path d="M46.7986 56.0437C46.8403 56.5395 46.774 57.0384 46.6044 57.5058C46.4277 58.0306 46.1115 58.4968 45.69 58.8542C45.2685 59.2115 44.7577 59.4464 44.2128 59.5334C43.6679 59.6204 43.1097 59.5562 42.5986 59.3477C42.0874 59.1392 41.6428 58.7944 41.3127 58.3506C41.2118 58.2217 41.1199 58.086 41.0376 57.9445C40.3579 56.7748 40.3741 56.7098 41.4098 55.865L44.6463 53.2819C45.1318 52.892 45.1641 52.9083 45.6334 53.2819C46.0344 53.6144 46.3496 54.039 46.5524 54.5198C46.7552 55.0005 46.8397 55.5232 46.7986 56.0437Z" fill="#FFFBE5"/>
<path d="M64.3728 55.865L52.2359 45.9225C52.1893 45.8937 52.1513 45.8529 52.1257 45.8043C52.1001 45.7558 52.0879 45.7012 52.0903 45.6464C52.3624 45.5889 52.6434 45.5889 52.9156 45.6464C53.9269 45.7109 54.9295 45.8741 55.9093 46.1337C56.9922 46.4929 57.9553 47.145 58.6927 48.0182C60.1815 49.6428 61.7027 51.3811 63.0782 53.1682C63.6012 53.8729 64.041 54.6362 64.389 55.4426C64.427 55.5071 64.4457 55.5813 64.4428 55.6562C64.44 55.7311 64.4156 55.8036 64.3728 55.865Z" fill="#FFFBE5"/>
<path d="M33.5289 60.2676C33.3671 60.2676 33.2862 60.1539 33.1891 60.0564C32.9274 59.7257 32.7248 59.3519 32.5903 58.9517C32.3961 58.4318 32.2505 57.8795 32.0239 57.3271C31.9525 57.1838 31.9379 57.0186 31.9829 56.8649C32.0279 56.7112 32.1293 56.5803 32.2667 56.4986L34.1277 54.9877L36.5389 53.0382C36.9272 52.7295 36.9758 52.7458 37.1538 53.2169C37.5098 54.1267 37.8658 55.0365 38.2057 55.9625C38.3513 56.3849 38.3189 56.4823 37.9467 56.7748L33.8849 60.0239C33.7949 60.1409 33.6703 60.2263 33.5289 60.2676Z" fill="#FFFBE5"/>
<path d="M42.1218 48.5381C42.154 48.531 42.1874 48.531 42.2196 48.5382C42.2518 48.5453 42.2821 48.5594 42.3082 48.5795C42.3344 48.5997 42.356 48.6253 42.3713 48.6546C42.3866 48.6839 42.3953 48.7162 42.3969 48.7493C42.6509 49.7654 43.1324 50.71 43.8048 51.5111C44.1123 51.9335 44.0961 51.9335 43.6753 52.2747L40.4388 54.809C40.0019 55.1502 39.921 55.1339 39.7268 54.6141C39.4032 53.753 39.0795 52.892 38.772 52.031C38.5617 51.4299 38.5617 51.3811 39.031 50.9912L41.9438 48.7168L42.1218 48.5381Z" fill="#FFFBE5"/>
<path d="M29.726 59.5853C29.726 59.2279 29.726 58.8705 29.726 58.5131C29.726 58.1557 29.726 58.1719 29.9526 58.1394C30.1791 58.1069 30.2438 58.2369 30.3086 58.3994C30.3733 58.5618 30.5837 59.0492 30.697 59.3903C30.9971 60.3383 31.5251 61.1976 32.2343 61.8922C32.558 62.2009 32.558 62.2659 32.2343 62.5583L30.8588 63.6955C30.5513 63.9392 30.4704 63.9067 30.3733 63.5493C29.9565 62.2691 29.7382 60.9321 29.726 59.5853Z" fill="#FFFBE5"/>
<path d="M38.7073 58.7243C38.6945 59.2799 38.5078 59.8173 38.1738 60.2605C37.8398 60.7037 37.3754 61.0301 36.8463 61.1936C36.4632 61.2944 36.074 61.3704 35.6812 61.4211C35.5839 61.4522 35.4788 61.4481 35.3842 61.4095C35.2896 61.3709 35.2115 61.3003 35.1633 61.2099C35.0662 61.0149 35.2928 60.9012 35.4223 60.7875L37.0891 59.3903C37.4292 59.1406 37.7485 58.8635 38.0438 58.5618C38.1571 58.4318 38.2704 58.2531 38.4808 58.3344C38.6911 58.4156 38.6102 58.5781 38.7073 58.7243Z" fill="#FFFBE5"/>
</svg>
