<svg width="229" height="57" viewBox="0 0 229 57" fill="none" xmlns="http://www.w3.org/2000/svg">
<path d="M0.128906 28.5492C0.128906 13.1903 13.5881 0.628815 30.2774 0.628815C43.349 0.628815 54.4716 8.39334 58.6601 19.1573H50.4554C48.4289 15.6417 45.4896 12.7237 41.9408 10.7045C38.3919 8.68521 34.362 7.63772 30.2667 7.67006C17.7873 7.67006 7.65527 17.0726 7.65527 28.5492C7.65527 40.0258 17.7873 49.5453 30.2667 49.5453C34.8673 49.6231 39.3824 48.3125 43.2091 45.7886C47.0359 43.2647 49.992 39.6475 51.6829 35.4203H31.3434V28.4641H60.4152V28.5492C60.4152 44.0038 46.8591 56.4802 30.2667 56.4802C13.6742 56.4802 0.128906 44.0038 0.128906 28.5492ZM64.6037 28.5492C64.6037 23.0245 66.2622 17.6239 69.3696 13.0304C72.477 8.43698 76.8936 4.857 82.0608 2.74328C87.228 0.629565 92.9137 0.077054 98.3988 1.15564C103.884 2.23423 108.922 4.89546 112.876 8.80274C116.83 12.71 119.522 17.6879 120.612 23.1066C121.701 28.5254 121.14 34.1418 118.998 39.2453C116.857 44.3488 113.231 48.7103 108.58 51.7781C103.928 54.846 98.4606 56.4823 92.8679 56.4802C85.3716 56.4746 78.1842 53.5297 72.8846 48.2925C67.5849 43.0553 64.6065 35.9542 64.6037 28.5492ZM71.6455 28.5492C71.6434 32.6985 72.8871 36.7553 75.2194 40.2062C77.5518 43.6571 80.8678 46.3472 84.7481 47.936C88.6284 49.5249 92.8986 49.9411 97.0184 49.1322C101.138 48.3232 104.923 46.3253 107.893 43.3913C110.863 40.4572 112.885 36.7189 113.704 32.6492C114.523 28.5795 114.102 24.3613 112.493 20.5282C110.885 16.6951 108.162 13.4194 104.668 11.1154C101.175 8.81151 97.0683 7.58287 92.8679 7.58498C87.2394 7.58498 81.8414 9.79369 77.8614 13.7252C73.8814 17.6568 71.6455 22.9891 71.6455 28.5492ZM122.155 16.8492V0.618176H115.016V6.34052C118.077 9.34991 120.503 12.9289 122.155 16.8705V16.8492ZM155.049 0.618176H145.8L124.47 25.8156C124.604 27.0024 124.672 28.1954 124.675 29.3895C124.675 30.0808 124.675 30.7615 124.599 31.4423L145.757 56.4802H155.049L131.361 28.5492L155.049 0.618176ZM115.059 52.3746V56.4696H122.198V41.8552C120.527 45.7969 118.087 49.375 115.016 52.3852L115.059 52.3746ZM139.824 28.5385L159.798 4.91526H167.615L147.512 28.5492L167.561 52.1831H159.744L139.824 28.5385ZM179.491 56.4696H172.277V28.5492C172.277 21.1414 175.256 14.0371 180.559 8.79898C185.861 3.5609 193.053 0.618176 200.552 0.618176C208.051 0.618176 215.243 3.5609 220.545 8.79898C225.848 14.0371 228.827 21.1414 228.827 28.5492V56.4802H221.807V41.3872H179.405L179.491 56.4696ZM179.491 34.3247H221.807V28.5385C221.807 22.9898 219.575 17.6683 215.603 13.7447C211.631 9.82112 206.244 7.61688 200.627 7.61688C195.01 7.61688 189.623 9.82112 185.651 13.7447C181.679 17.6683 179.448 22.9898 179.448 28.5385L179.491 34.3247Z" fill="url(#paint0_linear_1007_12857)"/>
<defs>
<linearGradient id="paint0_linear_1007_12857" x1="114.478" y1="56.4802" x2="114.478" y2="-5.72979" gradientUnits="userSpaceOnUse">
<stop stop-color="#E3B61B"/>
<stop offset="0.2" stop-color="#E3B61B"/>
<stop offset="0.596154" stop-color="#F9F3A5"/>
</linearGradient>
</defs>
</svg>
