<svg width="120" height="120" viewBox="0 0 120 120" fill="none" xmlns="http://www.w3.org/2000/svg">
<path d="M60.0004 119.991C59.1966 119.991 58.4216 119.991 57.6178 119.991C56.1786 120.029 54.7388 119.952 53.3118 119.761C52.4839 119.74 51.6629 119.605 50.8718 119.36C50.4191 119.259 49.9577 119.202 49.4939 119.189C47.8435 118.941 46.2127 118.578 44.6138 118.1C43.196 117.764 41.7971 117.353 40.4227 116.869C39.0735 116.382 37.7244 115.866 36.4039 115.294C34.5667 114.52 32.8156 113.575 31.0071 112.687C30.3468 112.344 29.7153 111.857 29.0551 111.513C28.3948 111.17 27.2179 110.339 26.1844 109.738C25.151 109.136 24.663 108.707 23.9166 108.134C23.1703 107.561 22.2804 106.73 21.3618 106.158C21.0518 105.906 20.7547 105.638 20.4719 105.356C18.9608 104.082 17.5232 102.724 16.166 101.289C15.3048 100.287 14.3575 99.3414 13.5824 98.2531C13.2953 97.8522 12.9509 97.5085 12.6351 97.1362C11.1124 95.2415 9.71256 93.2517 8.44397 91.1791C7.58323 89.7999 6.81601 88.3647 6.14747 86.8832C5.8317 86.2531 5.51593 85.6517 5.22887 85.0216C4.54308 83.6258 3.93923 82.1914 3.42037 80.7257C2.96107 79.351 2.50177 77.8617 2.09989 76.6302C1.87024 75.9142 1.7267 75.1982 1.55447 74.4823C1.38223 73.7663 1.06646 72.678 0.951637 71.7901C0.836812 70.9023 0.635867 70.3868 0.549748 69.6708C0.566153 68.865 0.449779 68.0619 0.205274 67.2937C0.191138 67.0839 0.191138 66.8734 0.205274 66.6637C0.249616 66.1513 0.191061 65.6353 0.0330363 65.1458C-0.0110121 64.8995 -0.0110121 64.6474 0.0330363 64.4011V55.8093C0.00313439 55.4659 0.0624555 55.1207 0.205274 54.8069C0.230906 54.7131 0.230906 54.6142 0.205274 54.5205C0.197199 53.5583 0.293445 52.5981 0.492336 51.6565C0.492336 50.9405 0.69328 50.2532 0.808105 49.5372C0.92293 48.8212 1.12387 47.7329 1.35352 46.6732C1.75365 44.8436 2.25194 43.0367 2.84625 41.2604C3.13331 40.4012 3.42037 39.5134 3.73614 38.6542C4.05191 37.795 4.31027 37.394 4.53992 36.7353C5.01605 35.576 5.58234 34.4557 6.23359 33.3845C7.15581 31.5154 8.18124 29.6987 9.30516 27.943C9.9654 26.9119 10.6544 25.8809 11.372 24.9072L13.4389 22.2723C14.1415 21.5418 14.7847 20.7565 15.3622 19.9239C15.4631 19.7702 15.5892 19.6347 15.7354 19.5229C16.3956 18.8356 17.1133 18.2055 17.7448 17.4895C18.8354 16.3486 20.0057 15.2862 21.247 14.3105C22.3493 13.2908 23.509 12.3346 24.7204 11.4466C26.1557 10.5301 27.591 9.585 28.9976 8.58261C31.1083 7.32459 33.2834 6.17745 35.514 5.14587C37.3726 4.27516 39.2912 3.53819 41.2552 2.94062C42.8054 2.45375 44.3555 2.02415 45.9343 1.65184C47.5132 1.27952 48.5179 1.05041 49.8097 0.821291C50.6197 0.623213 51.4459 0.498601 52.2784 0.448976C53.037 0.434457 53.7941 0.377086 54.5462 0.277139C57.4569 0.0155793 60.3812 -0.0609473 63.3016 0.0480224C64.0462 -0.0483193 64.8031 0.0301354 65.512 0.277139C65.6927 0.30556 65.8767 0.30556 66.0574 0.277139C67.1669 0.300412 68.2719 0.425038 69.3586 0.649453C70.3921 0.649453 71.3681 1.05041 72.3728 1.13633C72.8155 1.18343 73.25 1.28938 73.6646 1.45136C74.4684 1.68048 75.2721 1.79504 76.0759 2.05279L78.5446 2.79742C79.6068 3.14109 80.6689 3.45613 81.7023 3.85708C82.8941 4.29437 84.063 4.79143 85.2045 5.34634L88.8789 7.20791C90.7448 8.18166 92.4672 9.32724 94.2183 10.4728C95.2804 11.1888 96.2564 12.0194 97.3185 12.7067C98.0077 13.3902 98.7465 14.022 99.5289 14.5969C101.136 16.0289 102.658 17.4609 104.151 19.0647C105.321 20.2485 106.396 21.5221 107.366 22.8738C107.882 23.647 108.514 24.363 109.088 25.1363C109.662 25.9096 110.208 26.7401 110.724 27.542C111.874 29.4258 112.909 31.3768 113.825 33.3845C114.313 34.4155 114.829 35.4465 115.26 36.4776C115.691 37.5086 116.121 38.6828 116.609 39.7711V39.9429C117.011 41.4608 117.585 42.8069 117.958 44.468C118.188 45.4131 118.475 46.3296 118.647 47.332C118.82 48.3343 118.963 48.7639 119.049 49.5086C119.135 50.2532 119.308 50.6541 119.365 51.2269C119.548 52.3174 119.672 53.4168 119.738 54.5205C119.696 54.68 119.696 54.8478 119.738 55.0074C119.973 55.7372 120.051 56.508 119.968 57.2699V64.1434C119.993 64.5425 119.934 64.9425 119.796 65.3176C119.77 65.4307 119.77 65.5482 119.796 65.6613C119.801 66.6992 119.705 67.7351 119.508 68.7544C119.408 69.9058 119.206 71.0462 118.906 72.1625C118.705 72.9071 118.619 73.6804 118.418 74.4536C118.016 75.9142 117.643 77.3176 117.183 78.7782C116.58 80.697 115.777 82.53 115.059 84.3629C114.6 85.5944 113.882 86.6827 113.337 87.8856C112.553 89.4369 111.691 90.9472 110.753 92.4106C110.007 93.6708 109.088 94.845 108.256 96.0479C107.745 96.6563 107.276 97.2973 106.849 97.9667C106.619 98.4249 106.103 98.74 105.729 99.1696C104.428 100.773 103.019 102.285 101.51 103.695C100.448 104.668 99.3567 105.642 98.1797 106.559C97.7204 106.902 97.3472 107.36 96.8592 107.704C95.022 108.993 93.1848 110.339 91.118 111.571C90.2281 112.115 89.2808 112.63 88.2474 113.117C87.2139 113.604 86.4963 113.976 85.6064 114.406C83.8638 115.274 82.0713 116.039 80.2383 116.697C78.6021 117.298 76.9371 117.728 75.2721 118.244C73.6072 118.759 72.5738 118.902 71.2246 119.217C70.8333 119.258 70.4389 119.258 70.0476 119.217C69.2446 119.293 68.4483 119.427 67.665 119.618C66.6603 119.819 65.6268 119.618 64.6221 119.933C64.3645 119.962 64.1046 119.962 63.847 119.933L60.0004 119.991ZM54.661 58.3009C54.7039 58.3852 54.7263 58.4784 54.7263 58.573C54.7263 58.6675 54.7039 58.7607 54.661 58.8451C54.374 59.962 54.0869 61.0789 53.7711 62.1959C51.5034 70.7878 49.2069 79.1219 46.9391 87.5992C45.6186 92.4966 44.3268 97.3653 42.9489 102.234C42.3748 104.239 41.8006 106.215 41.3413 108.22C41.3009 108.495 41.3009 108.775 41.3413 109.05C41.3413 109.308 41.4849 109.423 41.7432 109.394C42.0632 109.335 42.3667 109.208 42.6331 109.022L61.9237 97.8235L74.3535 90.6636C74.5917 90.5624 74.7918 90.389 74.9258 90.168C75.0597 89.947 75.1206 89.6895 75.0999 89.4321C75.0999 88.0288 75.0999 86.5682 75.0999 85.1935C75.0999 83.3319 75.0999 81.4417 75.0999 79.4656C75.0999 78.8068 75.0999 78.6923 74.3248 79.0073L74.0378 79.2078L63.0433 85.5371L62.6701 85.7376C62.2969 85.7376 62.0673 85.7376 62.1247 85.308C62.1379 85.1078 62.1379 84.9068 62.1247 84.7066C63.5026 79.2078 64.9953 73.709 66.2297 68.2388C67.7415 62.0909 69.2534 55.9334 70.7653 49.7663C70.9819 49.1293 71.0981 48.4627 71.1097 47.7902C71.1097 47.5038 71.1097 47.3606 70.7365 47.4179L66.3732 47.9334C63.7896 48.2484 61.2348 48.7067 58.6225 48.7926C58.0852 48.7272 57.5412 48.8378 57.0724 49.1076L49.8671 53.8904L39.5615 60.5634C39.1022 60.8785 39.0448 60.9644 39.3032 61.4513C39.5616 61.9381 40.1357 63.0264 40.5663 63.7997C40.9969 64.573 40.9969 64.3725 41.571 64.1147L44.2981 62.8832C46.9391 61.709 49.4652 60.3343 52.1923 59.3606C53.0248 59.1601 53.8286 58.7019 54.661 58.3009ZM53.6276 27.6566C53.642 27.8568 53.642 28.0578 53.6276 28.258C53.575 28.5886 53.6203 28.9274 53.758 29.2326C53.8957 29.5379 54.1198 29.7964 54.4027 29.9764C57.2733 32.4107 60.3162 34.8737 63.2442 37.3367C63.847 37.8236 63.847 37.8523 64.4786 37.3367L67.665 34.7019L73.6359 29.7473C73.8181 29.611 73.9652 29.4334 74.065 29.2293C74.1648 29.0251 74.2145 28.8002 74.21 28.573C74.167 27.9628 74.167 27.3503 74.21 26.7401C74.2279 26.5111 74.1841 26.2815 74.0831 26.075C73.9822 25.8686 73.8278 25.6928 73.6359 25.5659L64.335 17.8046C63.9045 17.4609 63.9045 17.4609 63.4452 17.8046L54.8333 24.9358C53.3118 26.3105 53.685 25.6518 53.6276 27.6566ZM51.733 23.4752C51.8198 23.4786 51.9062 23.4623 51.9857 23.4276C52.0653 23.3929 52.1359 23.3406 52.1923 23.2747L58.3929 18.091L63.3877 13.9382C63.9332 13.48 63.9619 13.48 64.5073 13.9382L68.0382 16.8022L75.4157 22.9597C75.5915 23.1693 75.8352 23.3111 76.1046 23.3606C76.1046 22.4155 76.1046 21.5277 76.1046 20.4967C76.1261 20.2328 76.0793 19.9678 75.9687 19.7271C75.8582 19.4864 75.6875 19.278 75.4731 19.122C72.1814 16.6208 68.9185 13.9955 65.6842 11.2461C65.5216 11.0838 65.3208 10.9647 65.1002 10.8996C64.8796 10.8346 64.6461 10.8257 64.4212 10.8738C64.1165 10.9173 63.8072 10.9173 63.5026 10.8738C63.2181 10.8522 62.9323 10.8923 62.6647 10.9911C62.3972 11.09 62.1542 11.2453 61.9524 11.4466L57.8761 14.8547L52.1349 19.5802C52.0104 19.6587 51.9048 19.7635 51.8254 19.8872C51.746 20.011 51.6949 20.1506 51.6756 20.2962L51.733 23.4752ZM75.9324 31.752C75.7317 31.7837 75.5486 31.8851 75.4157 32.0384L67.0334 39.1124L64.1628 41.4036C63.7609 41.7186 63.7035 41.7186 63.3303 41.4036C63.2226 41.3435 63.1256 41.2661 63.0433 41.1744L52.2497 32.153C52.0775 32.153 51.9627 31.8093 51.6469 31.8093C51.6031 31.9394 51.6031 32.0802 51.6469 32.2103C51.6469 33.0694 51.6469 33.9286 51.6469 34.7878C51.6399 34.9709 51.6781 35.1528 51.7582 35.3176C51.8383 35.4824 51.9578 35.625 52.1062 35.7329C55.2065 38.2818 58.3067 40.8594 61.3496 43.4656C61.7278 43.8271 62.1808 44.1016 62.6768 44.2698C63.1727 44.4381 63.6995 44.4959 64.2202 44.4394C64.8613 44.4211 65.4778 44.1892 65.9713 43.7806C67.6076 42.3487 69.3012 40.9167 70.9662 39.5706L75.4731 35.8188C75.674 35.647 75.9611 35.4752 75.9611 35.1601L75.9324 31.752Z" fill="#FFFBE5"/>
</svg>
