<svg width="54" height="53" viewBox="0 0 54 53" fill="none" xmlns="http://www.w3.org/2000/svg">
<path d="M27.079 0.255859C19.9545 0.255859 19.0666 0.290262 16.2784 0.408212C13.4787 0.545821 11.5849 0.979944 9.91396 1.62867C8.16512 2.2889 6.58131 3.3226 5.27294 4.6577C3.93411 5.96302 2.89984 7.54771 2.24391 9.29873C1.59518 10.9697 1.16106 12.8635 1.02345 15.6631C0.897305 18.453 0.871094 19.3393 0.871094 26.4638C0.871094 33.5883 0.905496 34.4762 1.02345 37.2645C1.16106 40.0559 1.59518 41.9579 2.24391 43.6289C2.90413 45.3777 3.93783 46.9615 5.27294 48.2699C6.57825 49.6087 8.16294 50.643 9.91396 51.2989C11.5849 51.9395 13.4869 52.3818 16.2784 52.5194C19.0682 52.6455 19.9545 52.6717 27.079 52.6717C34.2036 52.6717 35.0915 52.6373 37.8797 52.5194C40.6712 52.3818 42.5731 51.9378 44.2441 51.2989C45.9929 50.6387 47.5767 49.605 48.8851 48.2699C50.2257 46.966 51.2602 45.3809 51.9141 43.6289C52.5547 41.9579 52.997 40.0559 53.1346 37.2645C53.2607 34.4746 53.287 33.5883 53.287 26.4638C53.287 19.3393 53.2526 18.4514 53.1346 15.6631C52.997 12.8716 52.553 10.9599 51.9141 9.29873C51.2539 7.54989 50.2202 5.96608 48.8851 4.6577C47.5812 3.31715 45.9961 2.28261 44.2441 1.62867C42.5731 0.979944 40.6712 0.545821 37.8797 0.408212C35.0898 0.282071 34.2036 0.255859 27.079 0.255859ZM27.079 4.97388C34.0758 4.97388 34.9113 5.00828 37.6765 5.12623C40.2272 5.24582 41.6164 5.67175 42.5387 6.03216C43.679 6.45305 44.711 7.12295 45.5596 7.99308C46.4282 8.83811 47.0956 9.86775 47.5123 11.0057C47.8727 11.928 48.2986 13.3172 48.4182 15.8679C48.5362 18.6332 48.5706 19.4703 48.5706 26.4654C48.5706 33.4605 48.5362 34.2977 48.4084 37.063C48.2708 39.6136 47.8449 41.0028 47.4861 41.9251C46.9897 43.1554 46.436 44.0155 45.5219 44.946C44.6704 45.8106 43.6391 46.4773 42.501 46.8987C41.5902 47.2591 40.1814 47.685 37.6208 47.8046C34.8408 47.9226 34.0217 47.957 27.0069 47.957C19.9922 47.957 19.1747 47.9226 16.3914 47.7948C13.8407 47.6572 12.4335 47.2313 11.5112 46.8725C10.2662 46.3761 9.41267 45.8224 8.49856 44.9083C7.57625 43.986 6.98977 43.1079 6.53763 41.8875C6.17067 40.9766 5.75129 39.5678 5.61532 37.0073C5.52194 34.26 5.47771 33.4081 5.47771 26.4261C5.47771 19.4474 5.52194 18.5939 5.61532 15.8122C5.75129 13.2517 6.17067 11.8461 6.53763 10.932C6.98977 9.68534 7.57789 8.83348 8.49856 7.91117C9.41103 6.99869 10.2662 6.40894 11.5112 5.94697C12.4335 5.5882 13.8063 5.16227 16.3668 5.03449C19.1469 4.93456 19.966 4.89852 26.9709 4.89852L27.079 4.97388ZM27.079 13.0125C25.312 13.0119 23.5621 13.3595 21.9294 14.0354C20.2968 14.7113 18.8133 15.7023 17.5638 16.9518C16.3143 18.2013 15.3233 19.6848 14.6473 21.3175C13.9714 22.9501 13.6238 24.7 13.6245 26.4671C13.6238 28.2341 13.9714 29.984 14.6473 31.6167C15.3233 33.2493 16.3143 34.7328 17.5638 35.9823C18.8133 37.2318 20.2968 38.2228 21.9294 38.8988C23.5621 39.5747 25.312 39.9223 27.079 39.9216C28.8461 39.9223 30.5959 39.5747 32.2286 38.8988C33.8613 38.2228 35.3448 37.2318 36.5943 35.9823C37.8438 34.7328 38.8348 33.2493 39.5107 31.6167C40.1866 29.984 40.5342 28.2341 40.5336 26.4671C40.5342 24.7 40.1866 22.9501 39.5107 21.3175C38.8348 19.6848 37.8438 18.2013 36.5943 16.9518C35.3448 15.7023 33.8613 14.7113 32.2286 14.0354C30.5959 13.3595 28.8461 13.0119 27.079 13.0125ZM27.079 35.2036C22.2496 35.2036 18.3425 31.2965 18.3425 26.4671C18.3425 21.6377 22.2496 17.7305 27.079 17.7305C31.9084 17.7305 35.8156 21.6377 35.8156 26.4671C35.8156 31.2965 31.9084 35.2036 27.079 35.2036ZM44.2212 12.4752C44.2203 13.3101 43.888 14.1106 43.2973 14.7007C42.7066 15.2907 41.9058 15.6222 41.0709 15.6222C40.6581 15.6222 40.2493 15.5409 39.8679 15.3829C39.4864 15.2249 39.1399 14.9933 38.848 14.7014C38.556 14.4095 38.3245 14.0629 38.1665 13.6815C38.0085 13.3001 37.9272 12.8913 37.9272 12.4785C37.9272 12.0656 38.0085 11.6568 38.1665 11.2754C38.3245 10.894 38.556 10.5475 38.848 10.2555C39.1399 9.96362 39.4864 9.73205 39.8679 9.57407C40.2493 9.41608 40.6581 9.33477 41.0709 9.33477C42.8025 9.33477 44.2212 10.7436 44.2212 12.4752Z" fill="#FFF1A8"/>
</svg>
