<svg width="82" height="84" viewBox="0 0 82 84" fill="none" xmlns="http://www.w3.org/2000/svg">
<path d="M37.1522 4.39071C36.6915 4.39071 36.556 4.36757 36.6915 4.34057C36.827 4.31357 37.0438 4.275 37.2335 4.24414C37.9845 4.12801 38.3275 4.00062 38.2331 3.87296C38.1387 3.74529 37.6096 3.62117 36.6915 3.51129C36.0681 3.43029 35.3093 3.35314 34.6318 3.27407C33.4794 3.14643 32.9409 2.99561 33.0973 2.84431C33.2537 2.693 34.0966 2.54941 35.499 2.43514C36.3975 2.34934 37.4761 2.27389 38.697 2.21143C39.0222 2.19407 39.4016 2.17479 39.8082 2.19407C40.2147 2.21336 39.9437 2.24807 39.8082 2.27314C38.9159 2.40113 38.5615 2.54472 38.7874 2.68668C39.0133 2.82864 39.81 2.96296 41.0819 3.0735C42.7134 3.21887 43.7371 3.39397 44.036 3.57879C44.3161 3.76236 43.5769 3.94645 41.9763 4.09179C40.7957 4.19894 39.4089 4.29373 37.8568 4.37336C37.6292 4.38053 37.3935 4.38633 37.1522 4.39071Z" fill="#FFFBE5"/>
<path d="M27.0401 2.26879C26.8137 2.39167 26.8629 2.51781 27.1843 2.6387C27.5058 2.75959 28.0922 2.87241 28.9037 2.96954C29.8477 3.10325 30.4717 3.25556 30.7305 3.41543C30.9894 3.57531 30.8766 3.73874 30.4003 3.89388C29.7602 4.07315 28.6045 4.2311 27.0684 4.34923C26.786 4.37377 26.4189 4.40922 25.9671 4.37923C25.5153 4.34923 25.7695 4.30833 25.9671 4.27561C26.5245 4.14681 26.7189 4.00605 26.5304 3.86765C26.3419 3.72924 25.7774 3.59812 24.8941 3.48761C23.562 3.32729 22.5994 3.14138 22.0705 2.94228C21.9578 2.79678 22.2586 2.65107 22.9403 2.52085C23.622 2.39064 24.6588 2.28086 25.9389 2.20335C26.786 2.16245 27.0401 2.1979 27.0401 2.26879Z" fill="#FFFBE5"/>
<path d="M52.2848 2.28518C52.1873 2.33135 52.1114 2.37815 52.0575 2.42536C51.8143 2.6306 52.2398 2.83922 53.2447 3.00741C53.9667 3.11052 54.4998 3.23089 54.8089 3.36062C55.118 3.49034 55.1961 3.62649 55.038 3.76012C54.8212 3.88726 54.3824 4.00736 53.7509 4.11245C53.1194 4.21754 52.3096 4.3052 51.3755 4.3696C51.1734 4.38789 50.9209 4.40617 50.643 4.3696C50.5212 4.35863 50.4363 4.34274 50.4038 4.32482C50.3713 4.30691 50.3935 4.28818 50.4662 4.27208C51.0047 4.12776 51.2024 3.9683 51.0375 3.81129C50.8726 3.65427 50.3515 3.5058 49.5316 3.38224C48.6491 3.19927 48.3203 2.98501 48.6013 2.77604C48.8823 2.56708 49.7557 2.37635 51.0724 2.23642C51.325 2.21204 51.5523 2.17242 51.9565 2.19071C52.3606 2.20899 52.2596 2.24556 52.2848 2.28518Z" fill="#FFFBE5"/>
<path d="M39.2579 0.0277329C46.11 -0.179722 52.9476 0.777928 59.4791 2.85984C60.5545 3.25751 61.6043 3.72097 62.6228 4.24758C63.9541 4.83746 65.0885 5.79654 65.8916 7.01122C66.6947 8.22589 67.1328 9.64528 67.1542 11.1013C67.1542 12.5457 67.7206 12.489 68.8251 12.2341C70.2335 11.7789 71.7248 11.6393 73.1932 11.8253C74.6616 12.0113 76.071 12.5183 77.3214 13.3103C78.8183 14.3516 79.9989 15.7856 80.7334 17.4544C81.4679 19.1233 81.7278 20.9625 81.4846 22.7696C81.1165 29.0852 77.2648 33.0501 72.082 35.9389C68.587 37.8943 64.7345 39.1271 60.7536 39.564C60.3533 39.5942 59.9657 39.7175 59.6215 39.924C59.2773 40.1305 58.9861 40.4145 58.7711 40.7535C57.0168 43.3062 54.7421 45.4587 52.0965 47.0695C49.4508 48.6803 46.4943 49.7129 43.4211 50.0995C36.0859 51.0907 29.0623 50.3827 23.1715 45.1716C19.3403 41.7127 16.3392 37.4338 14.3919 32.6536C12.2429 27.3723 10.9061 21.7958 10.427 16.1141C10.2002 13.9109 10.2002 11.6902 10.427 9.48698C10.5463 8.51208 10.8996 7.58051 11.4569 6.77174C12.0141 5.96297 12.7588 5.30101 13.6272 4.84232C16.9161 3.03973 20.5051 1.84979 24.2193 1.3305C29.1727 0.370256 34.2132 -0.0663995 39.2579 0.0277329ZM39.0879 18.1532C42.6482 18.2391 46.2056 17.8872 49.68 17.1054C53.3914 16.5337 56.9253 15.1298 60.0172 12.9988C60.3311 12.7937 60.5964 12.5226 60.7947 12.2044C60.993 11.8862 61.1195 11.5285 61.1654 11.1564C61.2112 10.7843 61.1753 10.4067 61.0602 10.0498C60.945 9.69302 60.7534 9.36562 60.4987 9.09048C59.7092 8.12867 58.6404 7.43592 57.44 7.10801C53.3763 5.87621 49.1866 5.10667 44.9504 4.814C39.0581 4.36011 33.1343 4.53099 27.278 5.32378C24.0991 5.59057 20.9973 6.44524 18.1303 7.84436C15.5814 9.26041 15.4964 11.4695 17.7905 13.2254C19.3625 14.3974 21.1256 15.2885 23.0015 15.8592C28.1957 17.5266 33.6347 18.3022 39.0879 18.1532ZM63.0476 32.6536C65.785 32.2237 68.4117 31.2615 70.7792 29.8215C71.9666 29.1043 73.0006 28.1597 73.8219 27.0419C74.6433 25.9241 75.2358 24.6551 75.5655 23.3077C75.7493 22.7407 75.8126 22.1416 75.7513 21.5487C75.6899 20.9558 75.5053 20.3823 75.2094 19.865C74.9133 19.3476 74.5125 18.8979 74.0324 18.5446C73.5524 18.1913 73.0038 17.9422 72.4219 17.8134C71.6298 17.662 70.8153 17.6718 70.027 17.8421C69.2387 18.0124 68.4928 18.3397 67.8339 18.8046C67.3058 19.14 66.8674 19.5989 66.5566 20.1417C66.2457 20.6845 66.0717 21.2948 66.0496 21.92C65.2842 25.5595 64.2814 29.1451 63.0476 32.6536Z" fill="#FFFBE5"/>
<path d="M39.1165 16.5387C33.8219 16.7113 28.5385 15.9442 23.5116 14.273C22.7334 14.0324 21.9906 13.6895 21.3026 13.2534C20.6795 12.8003 20.6512 12.3472 21.3026 11.8091C22.279 10.9768 23.4312 10.3765 24.6728 10.0531C31.0325 8.26819 37.6724 7.70125 44.2427 8.3822C47.0441 8.51947 49.8197 8.98524 52.5124 9.76994C53.6115 10.0942 54.667 10.5507 55.6561 11.1294C56.2225 11.4975 56.9305 11.8374 56.9022 12.6304C56.8739 13.4234 56.1375 13.7066 55.5145 13.9898C53.0913 15.0415 50.5226 15.7195 47.8961 16.0006C44.9907 16.4341 42.0531 16.6142 39.1165 16.5387Z" fill="#FFFBE5"/>
<path d="M77.8033 58.2561C77.3219 57.9729 76.8121 57.7463 76.3306 57.5198C74.9995 56.84 74.9995 56.8117 76.0191 55.7922L77.9166 53.923C78.1149 53.7247 78.3981 53.5265 78.2565 53.1583C77.9847 52.7811 77.5923 52.5081 77.1442 52.3845C76.6961 52.2609 76.2192 52.2941 75.7925 52.4786C74.8047 53.1263 73.8588 53.8358 72.9604 54.6027C72.698 54.8998 72.3323 55.0857 71.9376 55.1225C71.543 55.1593 71.1492 55.0443 70.8363 54.8009C69.3636 54.0363 67.8343 53.3849 66.3616 52.6202C66.1348 52.4724 65.8635 52.4085 65.5946 52.4396C65.3257 52.4706 65.0761 52.5946 64.8889 52.7901C59.2247 57.5764 53.0507 62.0511 46.9616 66.4976C44.8776 67.8455 42.9742 69.4539 41.2974 71.2838C40.1646 72.6149 40.1929 72.9264 41.7505 73.7478C48.491 77.3445 55.3447 80.7431 62.3966 83.7168C62.6552 83.8267 62.92 83.9212 63.1896 84C63.5364 83.9994 63.8777 83.9139 64.1837 83.7509C64.4898 83.588 64.7514 83.3527 64.9455 83.0654C68.3756 79.2314 71.4826 75.1203 74.2349 70.774C76.214 68.0038 77.8586 65.0093 79.1344 61.8529C79.3076 61.5337 79.4106 61.1812 79.4365 60.819C79.4623 60.4568 79.4105 60.0932 79.2845 59.7527C79.1585 59.4121 78.9611 59.1024 78.7057 58.8443C78.4502 58.5862 78.1426 58.3857 77.8033 58.2561Z" fill="#FFFBE5"/>
<path d="M20.4809 45.9648C18.2416 44.2028 16.2422 42.1558 14.5334 39.8758C14.2219 39.4793 13.967 39.1678 13.3439 39.281C9.60129 39.822 6.06613 41.3357 3.09169 43.6708C-0.958227 47.0693 -1.01487 50.9493 2.8368 54.5461C5.22172 56.5699 7.98444 58.1005 10.965 59.0492C21.2344 62.5323 32.092 63.9472 42.9112 63.2124C45.6308 63.1848 48.2629 62.2476 50.3879 60.5502C54.5795 57.18 59.0825 54.1779 63.3873 50.9493C64.1661 50.2939 65.1288 49.8958 66.143 49.8095C67.1573 49.7233 68.1733 49.9533 69.0516 50.4679C70.0309 50.9627 70.977 51.5209 71.8837 52.1388C72.0194 52.2676 72.1849 52.3608 72.3655 52.4101C72.546 52.4593 72.7359 52.463 72.9182 52.421C73.1006 52.3789 73.2696 52.2923 73.4103 52.1689C73.551 52.0456 73.659 51.8893 73.7245 51.714C74.1764 50.807 74.6972 49.9359 75.2822 49.1085C75.6882 48.7124 75.931 48.1785 75.9624 47.6122C75.9939 47.0459 75.8118 46.4884 75.4521 46.0498C75.0967 45.3866 74.6378 44.7843 74.0927 44.2656C70.8243 41.4816 66.6298 40.0262 62.3395 40.1873C62.0098 40.1757 61.6835 40.2572 61.3979 40.4225C61.1124 40.5878 60.8793 40.8302 60.7252 41.1219C59.4425 43.121 57.8454 44.8998 55.9955 46.3896L51.9739 49.2218C47.7027 51.4908 42.933 52.6589 38.0966 52.6203C33.5595 52.3881 29.1129 51.2621 25.0122 49.3067C23.3741 48.3772 21.8528 47.2553 20.4809 45.9648Z" fill="#FFFBE5"/>
</svg>
