<svg width="173" height="173" viewBox="0 0 173 173" fill="none" xmlns="http://www.w3.org/2000/svg">
<circle cx="86.6256" cy="86.444" r="86.0417" fill="#BFA443"/>
<circle cx="86.6256" cy="86.444" r="76.2083" stroke="#FFFBE5" stroke-width="4.91667"/>
<path d="M86.149 23.3567C85.8735 23.7327 85.598 24.1308 85.3224 24.551C81.8783 30.1575 78.4341 35.8967 75.231 41.6691C74.1289 43.5932 73.0957 45.5173 72.1657 47.541C71.8825 48.0947 71.8033 48.7247 71.941 49.3276C72.0787 49.9305 72.4251 50.4703 72.9234 50.8584C77.3664 55.0052 81.7061 59.2184 86.1146 63.3984C87.3889 64.6259 88.1466 64.6259 89.5587 63.3984L98.7891 54.6071C100.201 53.247 101.579 51.8868 103.025 50.5599C103.398 50.2754 103.661 49.8795 103.773 49.4349C103.885 48.9903 103.84 48.5223 103.645 48.1049C103.301 47.3087 102.991 46.4794 102.578 45.7164C99.4435 39.7118 95.9304 33.9394 92.4863 28.1007C91.5908 26.6078 90.6609 25.1481 89.731 23.6553C89.5363 23.317 89.2521 23.0345 88.9073 22.8363C88.5624 22.6382 88.1693 22.5316 87.7678 22.5273C87.452 22.5456 87.1439 22.6291 86.8646 22.7722C86.5853 22.9153 86.3412 23.1147 86.149 23.3567Z" fill="#FFFBE5"/>
<path d="M62.1384 55.6997C62.1384 56.5293 62.1384 57.3258 62.1384 58.1555C62.1037 58.6773 62.2022 59.1993 62.4242 59.6706C62.6462 60.1418 62.9841 60.546 63.4049 60.8436L86.6232 80.7557C87.8247 81.7845 87.9546 81.7845 89.1237 80.7557L98.3136 72.9568C102.957 68.9744 107.568 64.992 112.245 61.0759C112.707 60.7426 113.076 60.2917 113.315 59.7678C113.554 59.2439 113.655 58.6653 113.608 58.0891C113.608 56.6953 113.608 55.3346 113.608 53.9408C113.608 53.3434 113.868 52.4806 113.284 52.2151C112.699 51.9496 112.277 52.7129 111.822 53.1111L92.0787 70.0032L88.8314 72.6582C87.8247 73.4878 87.6624 73.4546 86.6557 72.6582L86.2011 72.2931L63.892 53.0447L62.7879 52.1487C62.3333 51.85 62.041 52.1487 62.041 52.5469C62.041 53.6089 62.041 54.6377 62.041 55.6997H62.1384Z" fill="#FFFBE5"/>
<path d="M39.9473 103.085C39.9473 100.995 39.9473 98.8709 39.9473 96.7803C39.9473 96.4152 39.7818 95.9175 40.2122 95.7515C40.6425 95.5856 40.9074 95.9838 41.2053 96.2161L50.5413 104.048L69.3457 119.877L86.263 134.08C87.7859 135.374 87.9515 135.374 89.5737 134.08L107.815 118.748L134.102 96.6807C134.466 96.382 134.83 95.7184 135.393 95.9838C135.956 96.2493 135.757 96.913 135.757 97.4108C135.757 101.227 135.757 105.076 135.757 108.893C135.778 109.465 135.663 110.035 135.421 110.554C135.179 111.073 134.818 111.527 134.367 111.879C121.852 122.498 109.173 133.051 96.6584 143.604C94.2417 145.628 91.7587 147.586 89.3088 149.577C88.0508 150.639 87.9515 150.606 86.6272 149.577C73.8813 139.257 61.4333 128.538 48.7867 118.052C46.2044 115.928 43.7214 113.671 41.1391 111.415C40.782 111.138 40.4963 110.78 40.3061 110.37C40.116 109.96 40.027 109.51 40.0466 109.059C40.0466 107.067 40.0466 105.043 40.0466 103.019L39.9473 103.085ZM55.11 69.237C55.11 70.3653 55.11 71.5268 55.11 72.5555C55.0471 73.0814 55.1315 73.6145 55.3537 74.0951C55.5759 74.5757 55.9271 74.9848 56.368 75.2766C56.6329 75.4426 56.8646 75.708 57.1295 75.9072L81.6944 96.4816L86.9914 100.895C87.9846 101.692 88.2494 101.658 89.2426 100.895L90.0372 100.231L99.5056 92.3003C106.127 86.6258 113.046 80.918 119.866 75.2766C120.28 74.9574 120.613 74.5444 120.837 74.0714C121.062 73.5985 121.171 73.079 121.157 72.5555C121.157 70.299 121.157 68.0424 121.157 65.9186C121.174 65.6312 121.174 65.3431 121.157 65.0558C121.157 64.3257 120.826 64.193 120.23 64.6244C119.634 65.0558 118.939 65.5867 118.31 66.1177L98.082 83.1082L89.2757 90.5084C88.2825 91.338 88.0508 91.3048 87.0245 90.5084C86.8966 90.3693 86.7521 90.2467 86.5941 90.1433L61.963 69.4362C60.076 67.8433 58.1558 66.1177 56.2356 64.6576C55.5404 64.0934 55.2093 64.2262 55.1762 65.1222C55.1431 66.0181 55.1762 67.8101 55.1762 69.1707L55.11 69.237ZM47.3962 84.2365C47.3962 85.6302 47.3962 87.024 47.3962 88.4177C47.3376 89.1336 47.4654 89.8525 47.7672 90.504C48.0689 91.1555 48.5343 91.7173 49.1178 92.1344L86.1306 123.062C87.8853 124.489 87.7528 124.755 89.8054 123.062L106.59 108.826L127.116 91.8358C127.5 91.5234 127.81 91.1288 128.022 90.6809C128.234 90.233 128.343 89.7431 128.341 89.2474C128.341 86.128 128.341 83.0087 128.341 79.8893C128.341 79.4247 128.341 78.8274 128.043 78.5619C127.745 78.2964 127.083 78.8938 126.719 79.1924L105.829 96.7139L89.7723 110.22C87.9515 111.713 87.9184 111.713 86.1637 110.22L77.1257 102.621L56.2356 85.1988L48.7536 78.9269C48.4225 78.6615 48.1246 78.1637 47.6611 78.4292C47.1976 78.6947 47.3962 79.1261 47.3962 79.4911V84.3692V84.2365Z" fill="#FFFBE5"/>
</svg>
