<svg width="19" height="43" viewBox="0 0 19 43" fill="none" xmlns="http://www.w3.org/2000/svg">
<path d="M15.568 0.00153328L17.6521 0.00153328C18.3074 0.00153328 18.5622 0.42018 18.2164 0.993543C17.9888 1.40309 17.7158 1.79443 17.4701 2.19488L15.8319 4.80686C15.2312 5.77157 14.6306 6.73628 14.0117 7.71008C13.2836 8.90231 12.5555 10.1036 11.8184 11.2959C11.1904 12.3243 10.5624 13.3527 9.92536 14.3811L7.5591 18.2035L6.14844 20.5061C6.04562 20.6852 5.92021 20.8504 5.7753 20.9975C5.7274 21.0434 5.68928 21.0985 5.66324 21.1595C5.63719 21.2205 5.62377 21.2862 5.62377 21.3525C5.62377 21.4188 5.63719 21.4845 5.66324 21.5455C5.68928 21.6065 5.7274 21.6615 5.7753 21.7074C6.1275 22.095 6.43296 22.5227 6.6854 22.9816C7.55 24.3467 8.40549 25.7119 9.25188 27.1134C10.3349 28.879 11.4543 30.6173 12.5009 32.4011C13.1107 33.4386 13.7569 34.4579 14.3939 35.4863L17.3336 40.2189C17.552 40.5738 17.7886 40.9196 18.007 41.2746C18.1272 41.4449 18.2337 41.6245 18.3256 41.8115C18.5804 42.3576 18.3256 42.7216 17.7704 42.7216H13.4383C13.2492 42.7213 13.064 42.6683 12.9032 42.5686C12.7425 42.469 12.6127 42.3266 12.5282 42.1574C11.3148 40.2098 10.1165 38.2621 8.93335 36.3145L4.91071 29.7982C4.10982 28.518 3.315 27.2317 2.52624 25.9394C1.71626 24.6926 0.933568 23.4184 0.214589 22.1443C0.0741808 21.9107 0 21.6432 0 21.3707C0 21.0981 0.0741808 20.8307 0.214589 20.5971C0.878962 19.4686 1.57064 18.3583 2.25321 17.2479L4.50116 13.6075L6.27586 10.7498C7.03124 9.53028 7.76842 8.31075 8.5238 7.10942L11.3178 2.55891C11.6819 1.94005 12.0459 1.25747 12.4736 0.6022C12.5635 0.41323 12.7076 0.25524 12.8874 0.148291C13.0673 0.0413423 13.2749 -0.00973944 13.4838 0.00153328C14.1755 0.00153328 14.8763 0.00153328 15.568 0.00153328Z" fill="#FFFBE5"/>
</svg>
