<svg width="40" height="49" viewBox="0 0 40 49" fill="none" xmlns="http://www.w3.org/2000/svg">
<path fill-rule="evenodd" clip-rule="evenodd" d="M39.0045 0.950484C38.7835 1.10413 38.5843 1.24869 38.5617 1.27177C38.5382 1.29583 38.4965 1.58914 38.4638 1.96061C38.0487 6.68449 37.1652 11.9017 35.968 16.6997C33.5139 26.5345 29.654 34.8105 24.7554 40.7403C23.8225 41.8697 22.6609 43.1232 21.7252 44.0104C20.9038 44.7893 20.8829 44.7888 21.6597 44.0088C24.1096 41.5487 26.1994 38.7136 28.1546 35.1978C28.6732 34.2653 29.6556 32.2992 30.1465 31.2115C33.2812 24.2653 35.6028 15.5084 36.7471 6.31415C36.9281 4.8602 37.1958 2.31816 37.1715 2.28455C37.1682 2.28004 36.8993 2.4617 36.574 2.68826C36.2487 2.91482 35.3721 3.52218 34.6261 4.03796C33.8801 4.55374 33.2642 4.99364 33.2574 5.0155C33.2506 5.03739 33.2277 5.59817 33.2065 6.26169C33.1721 7.34011 33.1485 7.88208 33.0818 9.12908C32.8787 12.9273 32.3385 17.3429 31.6466 20.8609C30.8151 25.0887 29.7542 28.7789 28.3376 32.3713C26.3596 37.387 23.5798 41.941 20.7291 44.8357C20.4333 45.136 20.0812 45.4805 19.9467 45.6011C19.4933 46.0078 20.2395 45.4318 21.0821 44.7249C22.6878 43.3775 24.3784 41.6678 25.8349 39.9181C30.7739 33.9846 34.5965 25.9178 36.9941 16.3689C38.1505 11.7633 38.9396 7.04148 39.3172 2.46765C39.3915 1.56792 39.4432 0.665424 39.4203 0.668956C39.4126 0.67018 39.2255 0.796869 39.0045 0.950484ZM31.6678 6.05912C31.4469 6.21515 30.3071 7.01068 29.135 7.82694C27.9628 8.6432 26.9922 9.32186 26.9781 9.33504C26.9639 9.34826 26.8411 9.77543 26.7053 10.2844C25.0762 16.3902 23.0782 21.2366 20.6296 25.0221C17.9594 29.1502 14.9007 31.6647 11.48 32.5438C9.51217 33.0495 7.65321 32.8595 5.63693 31.9465C4.49028 31.4273 3.11326 30.4696 1.98415 29.4062C1.56275 29.0093 1.09391 28.5264 0.61367 27.9947L0.425781 27.7867L0.450656 27.908C0.507148 28.1839 0.802954 29.179 0.999821 29.7552C1.87885 32.3285 3.26856 35.0685 5.06376 37.768C6.022 39.2089 6.7798 40.2255 7.88907 41.5581C9.35992 43.3252 11.237 45.2543 13.0992 46.9129C13.7468 47.4896 15.1189 48.634 15.2033 48.6678C15.2991 48.7061 16.8946 47.7789 17.9553 47.0684C18.4687 46.7245 18.5656 46.6416 19.1432 46.0512C21.9942 43.137 24.6313 38.9517 26.731 34.0089C28.1972 30.5576 29.3867 26.7207 30.2675 22.6021C31.3095 17.7298 31.875 12.9067 32.0871 7.08345C32.1287 5.94429 32.1298 5.77165 32.0958 5.77378C32.0814 5.77469 31.8888 5.90306 31.6678 6.05912Z" fill="#FFFBE5"/>
</svg>
