<svg width="98" height="98" viewBox="0 0 98 98" fill="none" xmlns="http://www.w3.org/2000/svg">
<circle cx="49" cy="49" r="49" fill="#BFA443"/>
<circle cx="49.0002" cy="49.0002" r="43.4" stroke="#FFFBE5" stroke-width="2.8"/>
<path d="M48.729 13.0724C48.5721 13.2865 48.4152 13.5132 48.2583 13.7525C46.2969 16.9454 44.3355 20.2138 42.5113 23.5012C41.8837 24.5969 41.2953 25.6927 40.7657 26.8451C40.6044 27.1605 40.5592 27.5193 40.6377 27.8626C40.7161 28.2059 40.9134 28.5134 41.1972 28.7344C43.7274 31.096 46.1988 33.4954 48.7094 35.8758C49.4351 36.5749 49.8667 36.5749 50.6708 35.8758L55.9274 30.8693C56.7316 30.0947 57.5162 29.3201 58.34 28.5644C58.5519 28.4024 58.7017 28.1769 58.7656 27.9237C58.8296 27.6705 58.804 27.404 58.6931 27.1663C58.4969 26.7129 58.3204 26.2406 58.085 25.8061C56.3001 22.3865 54.2995 19.0992 52.338 15.7741C51.8281 14.9239 51.2985 14.0926 50.7689 13.2424C50.6581 13.0498 50.4962 12.8889 50.2998 12.7761C50.1034 12.6632 49.8795 12.6025 49.6509 12.6001C49.4711 12.6105 49.2956 12.6581 49.1366 12.7396C48.9775 12.821 48.8385 12.9346 48.729 13.0724Z" fill="#FFFBE5"/>
<path d="M35.0555 31.4913C35.0555 31.9638 35.0555 32.4173 35.0555 32.8898C35.0357 33.187 35.0918 33.4843 35.2182 33.7526C35.3446 34.021 35.5371 34.2512 35.7767 34.4207L48.9994 45.7605C49.6836 46.3464 49.7576 46.3464 50.4233 45.7605L55.6569 41.3191C58.3015 39.0511 60.9275 36.7832 63.5905 34.553C63.8537 34.3632 64.0639 34.1064 64.2001 33.808C64.3363 33.5097 64.394 33.1801 64.3672 32.852C64.3672 32.0583 64.3672 31.2834 64.3672 30.4896C64.3672 30.1494 64.5152 29.658 64.1823 29.5068C63.8494 29.3556 63.609 29.7903 63.3501 30.0171L52.1062 39.637L50.2569 41.149C49.6836 41.6215 49.5912 41.6026 49.0179 41.149L48.759 40.9411L36.0541 29.9793L35.4253 29.469C35.1664 29.2989 35 29.469 35 29.6958C35 30.3006 35 30.8865 35 31.4913H35.0555Z" fill="#FFFBE5"/>
<path d="M22.4177 58.4768C22.4177 57.2862 22.4177 56.0767 22.4177 54.8861C22.4177 54.6782 22.3235 54.3948 22.5686 54.3003C22.8137 54.2058 22.9645 54.4326 23.1342 54.5649L28.4509 59.0249L39.1599 68.0394L48.7941 76.1279C49.6614 76.8649 49.7557 76.8649 50.6795 76.1279L61.068 67.3968L76.0378 54.8294C76.2452 54.6593 76.4526 54.2814 76.7731 54.4326C77.0937 54.5838 76.9805 54.9617 76.9805 55.2452C76.9805 57.4185 76.9805 59.6107 76.9805 61.784C76.9924 62.1101 76.9268 62.4344 76.7891 62.7301C76.6514 63.0258 76.4456 63.2845 76.1887 63.4849C69.062 69.5323 61.841 75.542 54.7142 81.5517C53.3379 82.7045 51.9239 83.8195 50.5287 84.9534C49.8123 85.5581 49.7557 85.5392 49.0015 84.9534C41.7428 79.076 34.6538 72.9719 27.4517 67C25.9811 65.7905 24.5671 64.5054 23.0965 63.2203C22.8931 63.063 22.7303 62.859 22.6221 62.6255C22.5138 62.392 22.4631 62.1358 22.4743 61.8785C22.4743 60.7446 22.4743 59.5918 22.4743 58.439L22.4177 58.4768ZM31.0528 39.2005C31.0528 39.843 31.0528 40.5045 31.0528 41.0903C31.0169 41.3898 31.065 41.6934 31.1915 41.9671C31.318 42.2408 31.5181 42.4738 31.7692 42.64C31.92 42.7345 32.052 42.8857 32.2028 42.9991L46.1923 54.716L49.2089 57.2295C49.7745 57.6831 49.9254 57.6642 50.491 57.2295L50.9435 56.8516L56.3357 52.3348C60.1064 49.1032 64.0468 45.8527 67.9307 42.64C68.1666 42.4582 68.3562 42.223 68.484 41.9536C68.6118 41.6843 68.6742 41.3885 68.666 41.0903C68.666 39.8052 68.666 38.5202 68.666 37.3107C68.6754 37.147 68.6754 36.983 68.666 36.8193C68.666 36.4035 68.4775 36.3279 68.1381 36.5736C67.7987 36.8193 67.4028 37.1217 67.0446 37.4241L55.5249 47.1L50.5098 51.3143C49.9442 51.7868 49.8123 51.7679 49.2278 51.3143C49.155 51.2352 49.0726 51.1653 48.9827 51.1065L34.9555 39.3139C33.8808 38.4068 32.7873 37.4241 31.6938 36.5925C31.2979 36.2713 31.1093 36.3468 31.0905 36.8571C31.0716 37.3674 31.0905 38.3879 31.0905 39.1627L31.0528 39.2005ZM26.6598 47.7425C26.6598 48.5363 26.6598 49.33 26.6598 50.1237C26.6264 50.5314 26.6992 50.9408 26.8711 51.3119C27.0429 51.6829 27.308 52.0028 27.6402 52.2404L48.7187 69.8536C49.718 70.6662 49.6426 70.8174 50.8115 69.8536L60.3704 61.7462L72.0597 52.0703C72.2784 51.8924 72.4546 51.6677 72.5754 51.4126C72.6961 51.1575 72.7582 50.8785 72.7573 50.5962C72.7573 48.8198 72.7573 47.0433 72.7573 45.2669C72.7573 45.0023 72.7573 44.6621 72.5876 44.5109C72.4179 44.3597 72.0409 44.6999 71.8335 44.87L59.9367 54.8483L50.7926 62.54C49.7557 63.3904 49.7368 63.3904 48.7376 62.54L43.5905 58.2122L31.6938 48.2906L27.4328 44.7188C27.2443 44.5676 27.0746 44.2842 26.8107 44.4353C26.5467 44.5865 26.6598 44.8322 26.6598 45.0401V47.8181V47.7425Z" fill="#FFFBE5"/>
</svg>
