<svg width="103" height="119" viewBox="0 0 103 119" fill="none" xmlns="http://www.w3.org/2000/svg">
<path d="M101.392 33.9779C98.419 38.9881 93.6724 42.6988 88.0927 44.375C85.455 45.1727 82.6587 45.2926 79.9623 44.7238C77.2659 44.1549 74.7564 42.9156 72.6657 41.1203C71.7518 40.4459 71.0082 39.5672 70.4942 38.5544C69.9803 37.5415 69.7102 36.4226 69.7055 35.2868C69.7009 34.151 69.9618 33.0298 70.4675 32.0128C70.9732 30.9958 71.7096 30.111 72.6179 29.4292C74.494 27.6172 76.8165 26.3342 79.3492 25.7108C84.1227 24.6516 89.0293 24.3234 93.9013 24.7374C96.5762 24.903 99.1557 25.7933 101.363 27.3129C103.068 28.3941 103.425 29.67 102.51 31.4802C102.258 32.4284 101.72 33.3695 101.392 33.9779ZM91.54 29.0118C87.4842 29.2959 83.4623 29.9452 79.5232 30.952C77.7551 31.4644 76.0908 32.2837 74.6064 33.3724C74.013 33.7119 73.564 34.2564 73.3436 34.9036C78.862 30.7075 85.4743 30.7618 91.54 29.0118Z" fill="#FFFBE5"/>
<path d="M70.5108 11.8845C71.5315 14.3758 71.9827 17.0638 71.8312 19.7519C71.6798 22.44 70.9295 25.0603 69.6353 27.4212C68.8006 29.1082 67.5425 30.5498 65.9841 31.6052C64.4256 32.6606 62.62 33.2937 60.7438 33.4426C59.7026 33.5037 58.6596 33.3588 57.6746 33.0161C56.6895 32.6734 55.7818 32.1398 55.0034 31.4456C54.225 30.7515 53.5912 29.9106 53.1383 28.9711C52.6855 28.0316 52.4225 27.012 52.3644 25.9706C51.8485 17.7784 53.8298 9.62229 58.0465 2.57965C60.1562 -0.746605 61.2891 -0.786067 64.2086 2.05684C67.0853 4.76477 69.25 8.14029 70.5108 11.8845ZM60.3607 4.63045C58.2971 11.6739 57.7762 19.0794 58.8337 26.3423C58.813 19.0775 59.3233 11.8209 60.3607 4.63045Z" fill="#FFFBE5"/>
<path d="M23.1999 32.6866C23.0006 32.3847 22.883 32.0363 22.8584 31.6754C22.8338 31.3145 22.9031 30.9534 23.0595 30.6272C23.216 30.301 23.4543 30.021 23.7512 29.8143C24.0481 29.6076 24.3934 29.4813 24.7536 29.4478C25.1452 29.48 25.5185 29.6277 25.826 29.8723C28.3209 31.3719 30.7112 33.0209 33.107 34.6796C38.3757 38.2941 43.6036 41.9703 48.9809 45.4203C49.8543 45.9852 50.7086 46.561 51.5508 47.1821C52.0444 47.5283 52.3802 48.0565 52.4844 48.6503C52.536 48.9444 52.5291 49.2457 52.4642 49.5371C52.3994 49.8285 52.2777 50.1043 52.1063 50.3486C51.9349 50.593 51.7169 50.8013 51.465 50.9615C51.2131 51.1216 50.9321 51.2306 50.6381 51.2822C50.344 51.3338 50.0427 51.327 49.7513 51.2621C49.4599 51.1972 49.1841 51.0756 48.9397 50.9041C46.9689 49.4965 45.0553 48.0559 43.0895 46.569C38.4066 43.0872 33.5607 39.8522 28.678 36.6639C27.1259 35.6509 25.5452 34.6545 24.0584 33.5783C23.7176 33.339 23.4261 33.0362 23.1999 32.6866Z" fill="#FFFBE5"/>
<path d="M53.7805 46.5693C53.4801 46.7719 53.1214 46.8702 52.7597 46.8491C52.398 46.8279 52.0532 46.6886 51.7784 46.4524C45.2074 42.0371 38.6062 37.6137 32.0825 33.0819C30.083 31.6908 28.0262 30.3328 25.9695 28.9748C25.4086 28.5986 24.9488 28.1769 25.1042 27.4762C25.1584 27.0638 25.3281 26.6752 25.5937 26.3551C25.8594 26.0351 26.2101 25.7967 26.6055 25.6676C26.8319 25.6256 27.065 25.6374 27.2859 25.7022C27.5069 25.767 27.7095 25.883 27.8773 26.0407C30.8879 28.2352 33.9841 30.2913 37.1089 32.3308C42.3768 35.7676 47.8223 38.8728 53.2602 42.0969C53.8686 42.4111 54.3777 42.8884 54.7305 43.4753C55.5142 44.7665 55.2027 45.7481 53.7805 46.5693Z" fill="#FFFBE5"/>
<path d="M94.2972 80.4918C93.9969 87.5942 89.7929 88.1406 84.8882 87.6936C80.1881 87.16 75.6529 85.6541 71.5756 83.2732C58.2601 75.6949 45.5745 67.0752 33.6394 57.496C31.6658 55.9949 29.972 54.1627 28.6347 52.0823C27.3835 50.1453 27.6838 49.4003 29.7858 48.6056C36.5923 45.9236 43.5489 43.6389 50.5055 41.3046C51.2804 40.9122 52.1379 40.7076 53.0079 40.7076C53.8778 40.7076 54.7354 40.9122 55.5103 41.3046C66.3842 47.8833 76.7856 55.2018 86.6399 63.2077C89.3033 65.1947 91.4066 67.8284 92.7477 70.8554C94.0887 73.8824 94.6223 77.201 94.2972 80.4918Z" fill="#FFFBE5"/>
<path d="M14.0406 37.962C14.1864 35.9512 14.7889 34.0028 15.8003 32.2712C17.5303 29.1512 19.8379 26.4046 22.5946 24.1842C24.5887 22.2274 27.2241 21.0977 29.9883 21.0147C32.7526 20.9317 35.4484 21.9012 37.5517 23.735C46.9855 31.0731 56.2238 38.7108 65.5109 46.3984C67.1728 47.7462 67.075 48.9443 65.1687 49.7929C57.8368 53.1376 50.5048 56.7318 43.0263 59.5273C42.3056 59.7807 41.5369 59.8585 40.7816 59.7545C40.0262 59.6505 39.3052 59.3675 38.676 58.9282C31.3929 53.9363 24.0121 48.9443 17.1689 43.9524C16.1952 43.3043 15.3978 42.4152 14.8509 41.3678C14.3039 40.3205 14.0252 39.1489 14.0406 37.962Z" fill="#FFFBE5"/>
<path d="M47.5418 97.2493C44.9871 98.3091 42.2507 98.8629 39.4939 98.8781C36.7371 98.8933 34.0156 98.3695 31.4897 97.3377C28.5501 95.9713 26.222 93.6217 24.9192 90.7067C24.1956 89.3939 23.5415 88.0447 22.9596 86.6643C22.5555 85.7062 21.8476 84.9042 20.9382 84.3738C20.0287 83.8435 18.9647 83.6124 17.8997 83.7137C15.4494 83.7928 13.0275 83.2893 10.8425 82.2466C8.34864 80.9602 6.19387 79.1367 4.53778 76.9112C2.8817 74.6856 1.76674 72.1151 1.27554 69.3901C0.770438 67.9558 0.265342 66.5215 0.0941122 64.9697C-0.0788089 64.0433 -0.0127175 63.0851 0.286442 62.181C0.585607 61.2769 1.10848 60.4552 1.8082 59.7896C3.59032 57.8879 5.76609 56.3782 8.18563 55.3645C10.6052 54.3508 13.211 53.8573 15.8236 53.9178C19.31 53.7812 22.7447 54.6199 25.7232 56.3351C28.7018 58.0503 31.1 60.5705 32.6356 63.5989C33.4054 64.9185 34.4422 66.0684 35.6843 66.98C36.9263 67.8917 38.3483 68.5465 39.8655 68.9056C43.1092 69.7536 46.1708 71.1374 48.9194 72.9978C51.6136 74.8928 53.6827 77.5103 54.8835 80.5423C56.0842 83.5743 56.3665 86.8947 55.6971 90.1129C55.74 91.4139 55.3176 92.6976 54.5025 93.7438C53.6873 94.7899 52.5301 95.5334 51.2294 95.8467C50.3371 95.9009 48.9249 96.7622 47.5418 97.2493ZM51.0025 86.9817C50.4363 85.3796 49.5043 83.9301 48.2762 82.7413C47.1685 81.7272 46.4436 80.7344 47.2763 79.141C47.403 78.9548 47.4658 78.735 47.4555 78.5139C47.4452 78.2928 47.3623 78.0822 47.2192 77.913L46.9064 78.6992C46.0422 80.3557 46.0259 80.3094 44.4878 79.2909C42.9497 78.2724 41.3953 77.2077 39.8258 76.2523C38.2563 75.2968 37.6803 75.0316 38.221 72.761C37.7595 72.9713 37.3925 73.3419 37.1927 73.7992C36.8322 74.6022 36.3692 74.5052 35.8096 74.2863C31.656 72.3326 27.9352 69.6193 24.8449 66.2904C23.7837 65.104 21.992 64.2788 23.3133 61.9413C22.3212 63.5388 21.3299 63.1598 20.2095 62.5663C17.9159 61.4017 15.4314 60.6243 12.8591 60.2663C11.4083 60.0511 9.91635 60.2856 8.59193 60.937C12.3514 60.8824 16.0507 61.7214 19.3709 63.3817C21.3871 64.3878 21.3871 64.3878 20.4625 66.4816C20.3811 66.6097 20.3319 66.7545 20.3192 66.9038C20.3064 67.0531 20.3305 67.2025 20.3894 67.3394L20.8953 66.7972C22.0468 65.1956 22.0782 65.1325 23.5082 66.6051C26.5738 69.8659 30.1955 72.5826 34.2181 74.6387C36.2181 75.5985 36.1716 75.7709 35.3424 77.8311C35.4238 78.0625 35.0284 78.4618 35.1587 78.8319C35.6418 78.5529 36.0197 78.1272 36.2335 77.6213C36.7987 76.4862 37.4025 76.2216 38.5566 77.0632C39.7108 77.9049 41.3268 78.6879 42.6567 79.5717C46.2937 81.9833 45.9225 81.386 44.4979 84.7999L44.5793 85.0313C45.005 84.4133 45.447 83.8416 45.7773 83.2572C46.1077 82.6729 46.7754 82.4377 47.3863 83.1067C48.7574 84.2408 49.9725 85.5429 51.0025 86.9817ZM7.84095 64.8938C7.95501 65.2177 8.37152 65.487 8.66007 65.6975C12.9857 69.1576 17.6475 72.2002 22.5822 74.784C25.0249 75.9587 27.2535 77.5085 29.1849 79.3755C32.3997 82.8527 36.0969 85.8728 40.1729 88.3512C42.3927 89.503 44.8293 90.217 47.3465 90.4534C46.8424 90.1309 46.3 89.8681 45.7305 89.6704C42.0948 88.4398 38.7393 86.5526 35.8365 84.1058C33.5095 82.065 31.1511 80.0872 29.0137 77.8236C28.0872 76.7139 26.9291 75.8108 25.6139 75.1725C21.0168 73.0202 16.6561 70.4276 12.5948 67.4321C11.288 66.1703 9.64296 65.292 7.84095 64.8938ZM32.1731 84.5118C31.7969 85.0314 31.4497 85.5703 31.1333 86.1261C30.5541 87.5261 29.8828 87.2945 29.0311 86.3983C28.0646 85.2797 26.9287 84.3123 25.6616 83.5285C26.3491 84.6782 27.1587 85.7526 28.0772 86.7343C29.0418 87.7987 30.1169 88.7202 29.8588 90.4233C30.2973 89.3848 30.7428 89.2799 31.5759 89.8186C32.4784 90.5254 33.4373 91.1615 34.4438 91.7209C37.4206 93.4757 40.872 94.338 44.3782 94.203C39.8974 93.7284 35.6405 92.1283 32.0203 89.5581C30.8021 88.687 30.0947 87.896 30.9449 86.5045C31.4588 85.9061 31.8734 85.2335 32.1731 84.5118ZM4.16602 65.8759C5.52694 70.0624 8.40919 73.594 12.276 75.8132C13.3651 76.4698 14.4215 77.0338 13.8924 78.7283C14.5832 77.3409 15.5093 77.5348 16.5156 77.8045C17.522 78.0742 19.3439 78.6807 20.7179 79.0809C19.3689 78.2058 17.9128 77.4962 16.3817 76.9676C15.4545 76.6181 15.2752 76.1091 15.7952 75.302C16.3151 74.4948 16.5337 73.8978 16.9431 73.2335C16.2557 73.6641 15.6895 74.2574 15.2983 74.9569C14.7319 75.9364 14.1258 75.8898 13.309 75.3974C11.4235 74.154 9.7139 72.6761 8.22221 71.0002C6.63285 69.5317 5.4704 67.6008 4.02294 65.9263L4.16602 65.8759Z" fill="#FFFBE5"/>
<path d="M97.6297 103.299C96.8249 106.835 94.6779 109.92 91.6417 111.903C89.7541 112.983 87.5436 113.356 85.4059 112.956C84.4062 112.692 83.3787 112.726 82.3664 112.51C81.6698 112.36 80.9434 112.44 80.2959 112.737C79.6483 113.034 79.1144 113.533 78.774 114.159C77.8747 115.518 76.6698 116.647 75.2557 117.457C73.5873 118.343 71.7393 118.838 69.8515 118.904C67.9637 118.97 66.0856 118.607 64.3591 117.84C63.3594 117.576 62.3596 117.312 61.4227 116.81C60.823 116.567 60.2967 116.172 59.8951 115.665C59.4936 115.157 59.2306 114.554 59.1318 113.914C58.7289 112.216 58.6995 110.45 59.0456 108.739C59.3916 107.028 60.1049 105.413 61.1361 104.004C62.3626 102.077 64.1052 100.532 66.1659 99.5456C68.2266 98.5591 70.5227 98.1706 72.7932 98.4242C74.862 98.5089 76.8818 97.7809 78.4208 96.3957C80.1352 94.8934 82.0883 93.6879 84.1997 92.8287C86.3297 92.0852 88.63 91.9778 90.82 92.5196C93.0099 93.0614 94.9948 94.229 96.5324 95.8799C97.2823 96.345 97.8465 97.0571 98.1277 97.8936C98.4089 98.73 98.3895 99.6383 98.0728 100.462C97.8817 101.379 97.881 102.346 97.6297 103.299ZM93.0954 97.5189C91.9971 97.2704 90.8598 97.2474 89.7524 97.4513C88.7698 97.7012 87.9103 97.6781 87.3245 96.8106C87.2317 96.6911 87.1022 96.6055 86.9559 96.5669C86.8097 96.5283 86.6548 96.5389 86.5152 96.597L86.8557 97.0433C87.4739 98.174 87.4263 98.1614 86.4285 98.6619C85.4307 99.1624 84.1123 99.5274 82.9591 100.038C81.806 100.548 81.445 100.758 80.436 99.3719C80.4241 99.6778 80.5266 99.9772 80.7236 100.212C81.004 100.693 80.7983 100.893 80.4723 101.164C77.8163 102.645 74.9013 103.604 71.8846 103.989C70.7844 104.106 69.6286 104.82 68.7902 103.173C69.3608 104.291 68.7465 104.689 67.9769 105.097C66.4538 105.92 65.073 106.983 63.8873 108.244C63.2435 108.97 62.8287 109.871 62.695 110.832C64.0706 108.749 65.9389 107.039 68.1342 105.851C69.4454 105.128 69.493 105.141 70.3241 106.429C70.3975 106.486 70.4818 106.528 70.5718 106.552C70.6618 106.576 70.7557 106.581 70.8478 106.567L70.7102 106.124C70.225 104.875 70.2375 104.828 71.5784 104.571C74.6013 104.154 77.5256 103.201 80.2138 101.757C81.525 101.034 81.5474 101.142 82.4513 102.348C82.4513 102.348 82.649 102.757 82.9472 102.784C83.2454 102.812 82.8249 102.09 82.6497 101.789C82.4744 101.488 82.3072 100.579 83.0643 100.218C83.8214 99.8579 85.0221 99.3601 85.9947 98.9548C88.7672 97.9042 88.2786 97.8262 89.6604 99.9222C89.518 99.4606 89.3485 99.0077 89.1526 98.5661C88.8498 97.977 89.068 97.729 89.7021 97.6418C90.8265 97.4898 91.963 97.4487 93.0954 97.5189ZM64.2224 112.763C64.4946 112.747 64.7638 112.698 65.0244 112.618C68.6274 111.542 72.1207 110.128 75.4576 108.395C77.051 107.532 78.7607 106.902 80.5337 106.527C83.7029 106.096 86.79 105.195 89.6927 103.852C91.1883 103.102 92.5085 102.045 93.5667 100.75C93.2009 100.902 92.857 101.102 92.5439 101.345C90.4466 102.832 88.1036 103.938 85.6223 104.611C83.603 105.193 81.5463 105.637 79.4665 105.94C78.4878 106.046 77.5411 106.35 76.6842 106.835C73.7361 108.539 70.6204 109.935 67.3863 111.001C66.1993 111.31 65.1106 111.917 64.2224 112.763ZM84.5657 106.878C84.7027 107.288 84.8901 107.68 85.1237 108.044C85.6619 108.899 85.2883 109.156 84.4387 109.289C83.4387 109.393 82.4607 109.65 81.5386 110.051C82.4476 110.111 83.3603 110.079 84.2627 109.955C85.2678 109.813 86.2027 109.551 87.0517 110.386C86.6186 109.711 86.7416 109.438 87.3532 109.243L89.5266 108.34C91.6981 107.343 93.5148 105.709 94.735 103.655C92.7576 105.865 90.2489 107.534 87.4465 108.504C86.499 108.814 85.8047 108.936 85.3518 107.951C85.131 107.565 84.8673 107.205 84.5657 106.878ZM63.366 115.236C66.2553 116.104 69.364 115.873 72.0926 114.585C72.8497 114.225 73.6068 113.865 74.3354 114.77C73.8097 113.867 74.3162 113.492 74.8002 113.008C75.2843 112.525 76.3924 111.799 77.1647 111.188C76.1471 111.594 75.1851 112.127 74.3017 112.775C73.7476 113.138 73.4144 113.05 73.1115 112.461C72.8941 111.972 72.6449 111.498 72.3658 111.042C72.3992 111.589 72.5339 112.125 72.7631 112.623C73.1009 113.273 72.8576 113.616 72.4239 113.909C71.0052 114.474 69.5188 114.852 68.0024 115.033C66.436 115.18 64.8723 115.124 63.366 115.236Z" fill="#FFFBE5"/>
</svg>
