<svg width="21" height="20" viewBox="0 0 21 20" fill="none" xmlns="http://www.w3.org/2000/svg">
<path d="M0.797551 0.340309C1.08684 0.361363 1.36897 0.43813 1.62762 0.566168C2.32198 0.87852 3.01458 1.19526 3.70543 1.51638C5.59053 2.37937 7.47538 3.24407 9.35999 4.11047C10.6237 4.6918 11.8864 5.27387 13.1482 5.85667C14.8923 6.65777 16.6367 7.45717 18.3813 8.25486C18.9747 8.52677 19.5673 8.79989 20.1592 9.07424C20.3581 9.16349 20.5452 9.2759 20.7163 9.40901C20.8045 9.48097 20.8755 9.5708 20.9244 9.67225C20.9733 9.7737 20.999 9.88432 20.9995 9.99642C21.0001 10.1085 20.9756 10.2194 20.9277 10.3213C20.8798 10.4232 20.8098 10.5137 20.7223 10.5865C20.4938 10.7591 20.2432 10.9021 19.977 11.0119C19.3411 11.3043 18.7058 11.5945 18.0709 11.8825C16.1858 12.7474 14.3009 13.6131 12.4163 14.4795C11.4288 14.9334 10.4428 15.3924 9.45446 15.8463C7.69484 16.6533 5.93571 17.4593 4.17708 18.2643C3.33626 18.6497 2.49619 19.0354 1.65687 19.4213C1.4255 19.5328 1.17831 19.6099 0.923524 19.6501C0.340898 19.7313 -0.0835121 19.3117 0.0139672 18.743C0.0339013 18.6384 0.0624885 18.5355 0.0994491 18.4353C0.949269 15.9457 1.79909 13.4564 2.64891 10.9674C2.73739 10.7079 2.83412 10.4506 2.9346 10.1948C2.98516 10.0747 2.98704 9.94041 2.93985 9.81906C1.95456 7.07075 1.0495 4.29466 0.0889513 1.53612C0.0209853 1.36503 -0.00345651 1.18045 0.0177164 0.99815C0.0747043 0.593943 0.382139 0.327153 0.797551 0.340309Z" fill="#BFA443"/>
</svg>
