<svg width="19" height="43" viewBox="0 0 19 43" fill="none" xmlns="http://www.w3.org/2000/svg">
<path d="M3.43202 42.9985L1.34789 42.9985C0.692619 42.9985 0.437792 42.5798 0.78363 42.0065C1.01116 41.5969 1.28419 41.2056 1.52991 40.8051L3.16809 38.1931C3.76876 37.2284 4.36942 36.2637 4.98829 35.2899C5.71637 34.0977 6.44445 32.8964 7.18163 31.7041C7.8096 30.6757 8.43757 29.6473 9.07464 28.6189L11.4409 24.7965L12.8516 22.4939C12.9544 22.3148 13.0798 22.1496 13.2247 22.0025C13.2726 21.9566 13.3107 21.9015 13.3368 21.8405C13.3628 21.7795 13.3762 21.7138 13.3762 21.6475C13.3762 21.5812 13.3628 21.5155 13.3368 21.4545C13.3107 21.3935 13.2726 21.3385 13.2247 21.2926C12.8725 20.905 12.567 20.4773 12.3146 20.0184C11.45 18.6533 10.5945 17.2881 9.74812 15.8866C8.6651 14.121 7.54568 12.3827 6.49906 10.5989C5.88929 9.56138 5.24312 8.54207 4.60605 7.51366L1.66643 2.78114C1.44801 2.4262 1.21138 2.08036 0.992956 1.72542C0.872841 1.55508 0.766331 1.37554 0.674419 1.18846C0.419592 0.642401 0.674421 0.278361 1.22958 0.278361L5.56166 0.278361C5.75077 0.278731 5.93605 0.33171 6.09677 0.431357C6.2575 0.531009 6.38733 0.673407 6.47176 0.842627C7.68523 2.79024 8.88352 4.73785 10.0667 6.68547L14.0893 13.2018C14.8902 14.482 15.685 15.7683 16.4738 17.0606C17.2837 18.3074 18.0664 19.5816 18.7854 20.8557C18.9258 21.0893 19 21.3568 19 21.6293C19 21.9019 18.9258 22.1693 18.7854 22.4029C18.121 23.5314 17.4294 24.6417 16.7468 25.7521L14.4988 29.3925L12.7241 32.2502C11.9688 33.4697 11.2316 34.6893 10.4762 35.8906L7.68219 40.4411C7.31815 41.06 6.95411 41.7425 6.52636 42.3978C6.43647 42.5868 6.29244 42.7448 6.11257 42.8517C5.9327 42.9587 5.72511 43.0097 5.51615 42.9985C4.82447 42.9985 4.1237 42.9985 3.43202 42.9985Z" fill="#FFFBE5"/>
</svg>
