<svg width="58" height="43" viewBox="0 0 58 43" fill="none" xmlns="http://www.w3.org/2000/svg">
<path d="M19.31 0C23.5683 0 26.9587 0.919544 30.0827 2.7208C32.5946 4.16594 34.7418 6.13963 36.3668 8.49706C37.3341 9.87543 38.1089 11.3726 38.671 12.9493C39.2412 14.5358 39.5953 16.1882 39.7243 17.8642C39.8786 19.857 39.7171 21.8611 39.2455 23.8063C39.0351 24.6994 38.753 25.5751 38.4017 26.4253C38.3508 26.5446 38.3059 26.6668 38.255 26.7861C38.239 26.8102 38.2285 26.8374 38.2243 26.8658C38.22 26.8943 38.222 26.9232 38.2303 26.9508C38.2385 26.9784 38.2527 27.0039 38.272 27.0257C38.2912 27.0475 38.315 27.065 38.3418 27.0771L40.0984 28.0548C40.257 28.145 40.3737 28.0548 40.4904 27.9763C40.9399 27.6157 41.4764 27.3723 42.0494 27.2691C42.9069 27.081 43.8055 27.2053 44.575 27.6183C46.167 28.4913 47.744 29.3643 49.327 30.2373C51.2242 31.2907 53.1194 32.347 55.0126 33.4062C55.4405 33.6448 55.8804 33.8718 56.2903 34.1395C57.091 34.6453 57.6635 35.4287 57.8914 36.3304C58.1193 37.232 57.9855 38.1842 57.5172 38.9933C57.0893 39.7179 56.6644 40.4483 56.2275 41.1583C55.9161 41.6927 55.4701 42.1412 54.9315 42.4619C54.3929 42.7826 53.7793 42.9649 53.1483 42.9916C52.4425 43.0402 51.7384 42.8767 51.1314 42.5231C49.0846 41.3591 47.0438 40.1951 44.9999 39.0486C43.2803 38.0786 41.5587 37.1087 39.835 36.1387C39.3267 35.8755 38.8848 35.506 38.5412 35.0566C38.1976 34.6072 37.9608 34.0892 37.8481 33.5401C37.7833 33.169 37.7722 32.7909 37.8152 32.4168C37.831 32.3246 37.816 32.2299 37.7724 32.1466C37.7288 32.0633 37.6588 31.9959 37.5728 31.9542C37.067 31.6632 36.5733 31.3722 36.0766 31.1132C35.7773 30.956 35.7773 30.9648 35.5738 31.2209C35.0139 31.9277 34.405 32.5966 33.7514 33.2229C32.6503 34.2602 31.4327 35.1738 30.1217 35.9466C27.4299 37.529 24.3852 38.4564 21.2461 38.65C20.6212 38.7008 19.9938 38.7183 19.3669 38.7023C17.2773 38.6412 15.2104 38.2622 13.2414 37.5791C11.7048 37.0461 10.2399 36.3348 8.87849 35.4607C6.4901 33.9137 4.47362 31.8831 2.96706 29.508C1.4605 27.1329 0.499421 24.4693 0.149609 21.6995C0.00111913 20.5219 -0.0369415 19.3336 0.0358967 18.1494C0.121865 16.6952 0.381968 15.2557 0.810933 13.8601C1.56887 11.3887 2.82517 9.08882 4.50657 7.09446C7.2369 3.83665 10.9908 1.53968 15.1925 0.5558C16.536 0.205061 17.9191 0.0183578 19.31 0ZM19.9265 3.68982C16.7422 3.68408 13.6277 4.5964 10.9764 6.31149C8.32518 8.02657 6.25627 10.4674 5.03116 13.3256C3.80604 16.1838 3.47971 19.331 4.09339 22.3695C4.70708 25.4079 6.23324 28.2013 8.479 30.3966C10.7248 32.5918 13.5893 34.0904 16.7107 34.703C19.832 35.3156 23.0701 35.0146 26.0156 33.8381C28.9611 32.6616 31.4818 30.6624 33.2593 28.0932C35.0367 25.524 35.9911 22.5001 36.0017 19.4035C36.0168 17.3429 35.6118 15.2998 34.8103 13.3922C34.0088 11.4846 32.8265 9.75036 31.3319 8.28959C29.8372 6.82881 28.0597 5.67047 26.1021 4.88147C24.1445 4.09247 22.0456 3.68845 19.9265 3.69273V3.68982Z" fill="#FFF1A8"/>
</svg>
