<svg width="100" height="120" viewBox="0 0 100 120" fill="none" xmlns="http://www.w3.org/2000/svg">
<path d="M18.346 54.5393C20.6035 56.1246 23.1536 57.2453 25.8481 57.836C28.9921 58.5655 32.2618 58.5621 35.4042 57.8259C38.5466 57.0897 41.4776 55.6405 43.9703 53.5905C45.9536 51.9883 47.6254 50.0353 48.9027 47.8288C48.9855 47.6625 49.1157 47.5245 49.277 47.4322C49.4383 47.34 49.6234 47.2978 49.8087 47.3109C51.0444 47.3133 52.2547 47.2757 53.4831 47.3109C53.5748 47.3285 53.6692 47.3258 53.7598 47.3029C53.8503 47.28 53.9347 47.2375 54.007 47.1783C54.0792 47.1192 54.1376 47.0448 54.1779 46.9606C54.2182 46.8763 54.2395 46.7843 54.2402 46.6909C54.9736 43.4214 55.478 40.1005 56.1133 36.809C56.2086 36.384 56.2233 36.3186 55.6855 36.2666L52.24 36.318C51.7823 36.2153 51.6188 36.1787 51.5907 35.6916C51.5453 34.8721 51.4412 34.0569 51.2793 33.2523C51.1351 32.6705 51.4333 32.5657 51.855 32.5229L56.1072 32.5495C56.7938 32.7035 57.1507 32.3371 57.2066 31.6285C57.5661 30.5454 57.6716 29.3941 57.5149 28.2637C57.3781 27.7858 57.1008 27.3602 56.7191 27.0419C56.3373 26.7235 55.8688 26.5273 55.3741 26.4786C53.0658 26.3728 50.8344 25.617 48.9369 24.2983C47.0394 22.9796 45.5531 21.1517 44.6492 19.0251C43.961 17.3779 43.4478 15.6629 43.1183 13.9085C43.0562 13.7429 43.036 13.5646 43.0595 13.3893C43.083 13.214 43.1495 13.0473 43.253 12.904C43.3565 12.7606 43.4939 12.6451 43.6529 12.5677C43.8119 12.4903 43.9875 12.4535 44.1642 12.4604C45.6258 12.1295 47.1386 12.092 48.6148 12.35C50.091 12.608 51.5014 13.1565 52.7641 13.9635C54.0268 14.7706 55.1168 15.8202 55.9709 17.0516C56.825 18.283 57.4262 19.6716 57.7397 21.1371C57.9885 22.3968 58.1499 23.6722 58.2229 24.9541C58.2421 25.1287 58.2846 25.2999 58.3491 25.4632C58.5815 24.9727 58.7018 24.4366 58.7011 23.8938C58.9036 21.546 58.3899 19.192 57.2279 17.1419L56.9636 16.6362C56.3544 15.6787 55.9766 14.5925 55.8602 13.4637C55.7439 12.3349 55.8921 11.1945 56.2932 10.1329C57.3498 6.86785 59.4189 4.02423 62.2006 2.01442C62.9904 1.40176 63.5609 1.46104 64.0642 2.43242C66.301 5.48221 67.4401 9.19914 67.2962 12.9785C67.0333 15.0759 66.1368 17.0432 64.7264 18.6177C63.8667 19.7385 62.9191 20.7891 61.8926 21.7595C61.2701 22.3439 60.8941 23.1439 60.8415 23.9962C60.5848 25.1405 60.3355 26.2522 60.2716 27.3024C60.2276 27.4985 60.1836 27.6947 60.1396 27.8909C60.9945 27.2244 61.6552 26.3409 62.0528 25.3324C62.7301 23.3169 63.8011 21.4561 65.2037 19.858C66.5326 18.3638 68.2598 17.2793 70.1828 16.7315C72.1059 16.1837 74.1453 16.1952 76.0621 16.7647C77.2389 17.0107 78.3886 17.3721 79.4945 17.8437C80.5548 18.3219 80.7571 18.951 80.2281 19.9312C78.6142 23.2732 75.8764 25.9412 72.4938 27.4682C70.0719 28.4367 67.4148 28.6544 64.8676 28.0928C64.5902 28.0314 64.3031 28.0285 64.0245 28.0843C63.7459 28.14 63.482 28.2533 63.2497 28.4167C61.8828 29.4016 60.7855 30.7142 60.0584 32.2338C59.7849 32.6876 59.9704 32.6262 60.4101 32.6561L66.774 32.6069L75.8455 32.5812C77.292 32.5622 77.8613 33.2394 77.7021 34.7146C77.5429 36.1899 77.3639 38.5192 77.2148 40.4088L76.5997 48.2033C76.4286 50.191 76.3229 52.1933 76.1518 54.181C75.9501 56.9173 75.7231 59.6136 75.5214 62.3499C75.3576 64.3049 75.2339 66.2345 75.0701 68.1895C74.8831 70.8604 74.6634 73.524 74.4364 76.2202L73.8874 83.7206C73.657 86.2787 73.4339 88.8042 73.2436 91.337C73.0532 93.8698 72.8595 96.2645 72.6584 98.6918C72.4574 101.119 72.2631 103.823 72.0327 106.381C71.8762 108.303 71.7125 110.258 71.5814 112.221C71.6521 114.236 70.953 116.204 69.6261 117.723C68.87 118.504 67.9584 119.117 66.9504 119.524C65.9423 119.931 64.8601 120.122 63.7737 120.085L36.0721 120.19L30.0718 120.149C28.5407 120 27.0932 119.381 25.9288 118.375C24.7644 117.37 23.9403 116.028 23.5701 114.535C23.2624 112.884 23.075 111.212 23.0093 109.533C22.7466 106.418 22.5311 103.245 22.2683 100.13C22.0055 97.0145 21.6612 92.8851 21.2722 89.2609C20.8832 85.6366 20.6143 81.9363 20.3053 78.2613C19.9964 74.5863 19.7241 70.7478 19.3972 67.0001C19.0702 63.2524 18.7319 59.7082 18.4157 56.0659C18.3875 55.5789 18.3848 55.1318 18.346 54.5393ZM48.4472 70.5283C48.4541 70.015 48.3221 69.5092 48.0651 69.0647C47.8082 68.6202 47.4358 68.2534 46.9875 68.0032L38.5888 62.2733C38.327 62.0523 38.0204 61.8904 37.6902 61.7988C37.36 61.7072 37.0138 61.688 36.6755 61.7425C36.3372 61.7971 36.0146 61.9241 35.7299 62.1148C35.4452 62.3056 35.2051 62.5556 35.026 62.8478L31.8375 67.1119L28.4155 71.8044C28.1745 72.0788 27.9907 72.3984 27.8747 72.7447C27.7587 73.0909 27.7128 73.4568 27.7399 73.8209C27.7669 74.1851 27.8662 74.5402 28.0321 74.8655C28.1979 75.1908 28.427 75.4798 28.7058 75.7156L36.7369 81.7064C37.0463 81.9696 37.4073 82.1652 37.7967 82.2808C38.1861 82.3963 38.5954 82.4291 38.9982 82.3772C39.4011 82.3253 39.7886 82.1898 40.1361 81.9794C40.4835 81.7689 40.7831 81.4882 41.0157 81.1552C43.2857 78.2303 45.523 75.2982 47.7163 72.5622C48.1779 71.9835 48.4349 71.2684 48.4472 70.5283ZM66.4201 84.8615C66.4097 84.4539 66.3077 84.0538 66.1216 83.6911C65.9354 83.3283 65.6699 83.0121 65.3448 82.766C63.1466 80.6246 61.0431 78.3672 59.0196 76.059C58.7954 75.6672 58.4812 75.3344 58.1031 75.0879C57.7249 74.8415 57.2936 74.6884 56.8446 74.6414C56.3957 74.5943 55.942 74.6547 55.521 74.8174C55.1 74.9802 54.7237 75.2407 54.4231 75.5774C53.0875 76.5871 51.8033 77.6629 50.5751 78.8008C49.2389 80.012 47.87 81.216 46.5919 82.4746C46.3306 82.6772 46.1189 82.9367 45.9729 83.2333C45.8268 83.53 45.7502 83.8559 45.7488 84.1866C45.7475 84.5172 45.8214 84.8438 45.9651 85.1416C46.1087 85.4394 46.3182 85.7006 46.5778 85.9054L47.8218 87.249C49.9179 89.5391 51.8867 91.9381 53.9281 94.319C54.1285 94.6136 54.3934 94.8587 54.7027 95.0356C55.0119 95.2126 55.3574 95.3167 55.713 95.3402C56.0685 95.3637 56.4247 95.3058 56.7545 95.1711C57.0844 95.0364 57.3792 94.8282 57.6166 94.5625C60.2636 92.1 62.8199 89.5828 65.3836 87.0329C65.7193 86.7663 65.9889 86.4257 66.1713 86.0377C66.3536 85.6497 66.4438 85.2248 66.4347 84.7962L66.4201 84.8615ZM54.2654 70.7688C54.6744 70.7482 55.074 70.6386 55.4363 70.4476C58.4232 68.9198 61.41 67.392 64.3788 65.7915C64.7561 65.6605 65.0936 65.4354 65.3595 65.1375C65.6254 64.8395 65.8108 64.4787 65.8982 64.089C65.9856 63.6994 65.9721 63.2939 65.8589 62.911C65.7457 62.528 65.5367 62.1803 65.2515 61.9008L63.28 59.0548C62.3638 57.5056 61.5792 55.8823 60.9345 54.2019C60.7507 53.6564 60.3583 53.2059 59.8433 52.9488C59.3283 52.6917 58.7324 52.649 58.186 52.8299C55.219 53.5037 52.288 54.3229 49.263 54.9493C48.9269 54.9945 48.6057 55.1163 48.3243 55.3054C48.0428 55.4945 47.8086 55.7458 47.6397 56.0398C47.4709 56.3339 47.3719 56.6628 47.3505 57.0012C47.329 57.3396 47.3857 57.6784 47.5161 57.9915C47.6423 58.5005 47.7685 59.0096 47.9347 59.4933C49.0656 62.8719 50.6075 66.1023 51.8438 69.4702C52.0664 69.9078 52.4224 70.2631 52.8604 70.4849C53.2984 70.7066 53.7956 70.7831 54.2801 70.7034L54.2654 70.7688ZM40.936 104.935C41.3884 104.924 41.8287 104.786 42.2064 104.537C42.5841 104.287 42.8842 103.937 43.0722 103.525C44.5676 100.839 46.0557 98.185 47.5184 95.4912C47.7122 95.2353 47.8442 94.938 47.9038 94.6225C47.9635 94.3071 47.9492 93.9821 47.8621 93.6731C47.775 93.3641 47.6175 93.0795 47.402 92.8416C47.1864 92.6037 46.9187 92.419 46.6197 92.302L43.8932 90.832C41.7332 89.592 39.6132 88.3267 37.4458 87.1194C37.1878 86.9322 36.8906 86.8058 36.5768 86.7499C36.2629 86.6939 35.9404 86.7097 35.6335 86.7962C35.3267 86.8827 35.0434 87.0375 34.8049 87.2492C34.5664 87.4608 34.379 87.7237 34.2567 88.0181L34.1687 88.4105C32.7167 91.2097 31.1666 93.9869 29.533 96.6768C29.2958 96.979 29.1364 97.3349 29.0689 97.7131C29.0014 98.0914 29.0279 98.4804 29.146 98.846C29.2641 99.2116 29.4701 99.5426 29.7461 99.8099C30.0221 100.077 30.3595 100.273 30.7287 100.379C33.8442 101.799 36.7055 103.127 39.7376 104.46C40.0931 104.712 40.5042 104.875 40.936 104.935ZM64.7824 47.3041L71.6588 47.2668C72.6256 47.2433 72.6656 47.2179 72.7475 46.2404C72.9604 43.3006 73.1661 40.3935 73.4044 37.4937C73.5437 36.8725 73.152 36.4756 72.5342 36.4744L59.3159 36.4628C59.0543 36.4041 58.8909 36.3675 58.8135 36.8652L57.0059 46.7618C56.8885 47.2849 56.8519 47.4484 57.5678 47.4716C60.0105 47.2983 62.3511 47.2739 64.7824 47.3041Z" fill="#FFFBE5"/>
<path d="M48.6693 33.4531C49.455 37.0362 49.1615 40.7717 47.8258 44.1881C46.4901 47.6045 44.1722 50.5486 41.1646 52.6487C38.1571 54.7489 34.5947 55.9108 30.9273 55.988C27.2599 56.0651 23.6519 55.0539 20.5587 53.0821C17.4655 51.1103 15.0258 48.2663 13.5477 44.9091C12.0695 41.5519 11.6192 37.832 12.2535 34.219C12.8878 30.606 14.5784 27.262 17.1117 24.609C19.645 21.9561 22.9075 20.1132 26.4874 19.3129C28.8724 18.7843 31.3381 18.7308 33.7438 19.1554C36.1495 19.58 38.4479 20.4744 40.5078 21.7875C42.5677 23.1006 44.3487 24.8067 45.7491 26.8083C47.1495 28.81 48.1418 31.0679 48.6693 33.4531ZM27.9617 22.9653C26.1858 23.3673 26.0183 23.7694 26.5879 25.1767C27.1576 26.5841 27.8277 28.5275 28.4643 29.9683C29.101 31.4091 29.369 32.3138 29.8717 33.4866C30.3743 34.6593 30.7764 34.3578 31.1784 33.8552C31.3123 33.6604 31.4141 33.4455 31.48 33.2185C32.6193 30.4709 33.7585 27.6898 34.8308 24.9087C35.1993 23.937 34.8308 23.4679 33.9261 23.1998C31.975 22.7139 29.9449 22.6341 27.9617 22.9653ZM29.6036 41.1933C29.4025 40.3556 28.7994 40.1546 28.2298 40.7242C25.9513 42.9022 23.6728 45.0801 21.5283 47.4257C20.8582 48.0958 20.9587 48.6319 21.5283 49.2016C23.2892 50.5 25.3335 51.3614 27.4926 51.7146C28.6319 51.9827 28.967 51.7146 29.0675 50.5754L29.6706 41.6624C29.6657 41.504 29.6432 41.3467 29.6036 41.1933ZM28.0958 34.6593L27.7942 34.0897C27.2581 33.252 26.7555 32.3808 26.2194 31.5096C25.2141 29.7673 24.2089 27.9914 23.1702 26.2825C22.7011 25.5118 22.1985 25.4448 21.5283 25.9809C19.7963 27.2912 18.3961 28.9898 17.4404 30.94C16.9043 32.0793 17.1723 32.6824 18.3451 33.051L23.8738 34.6928L27.057 35.564C27.7942 35.564 28.2968 35.3295 28.0958 34.6593ZM16.2341 40.5902C16.5282 41.8468 17.0022 43.0543 17.6414 44.1754C17.7129 44.3212 17.8175 44.4481 17.9469 44.5461C18.0763 44.6441 18.2268 44.7104 18.3864 44.7397C18.5461 44.7691 18.7103 44.7606 18.8661 44.7149C19.0218 44.6693 19.1647 44.5878 19.2833 44.477L26.856 38.9148C27.1576 38.6802 27.3921 38.4122 27.2581 38.0101C27.21 37.8288 27.1068 37.6669 26.9628 37.5469C26.8187 37.4268 26.6409 37.3545 26.4539 37.3399L17.2059 36.1337C16.3682 36.1337 15.9661 36.4017 15.9326 37.2394C15.8991 38.0771 16.1671 39.5514 16.2341 40.5902ZM43.9448 31.6772C43.1143 29.2549 41.4987 27.1794 39.3543 25.7799C39.2471 25.6909 39.1201 25.6289 38.984 25.5991C38.8478 25.5693 38.7066 25.5726 38.572 25.6087C38.4374 25.6448 38.3135 25.7127 38.2105 25.8066C38.1076 25.9005 38.0287 26.0177 37.9805 26.1485C37.6119 26.7181 37.3103 27.3212 36.9752 27.9243L33.2894 34.6258C33.1999 34.7659 33.1523 34.9287 33.1523 35.0949C33.1523 35.2612 33.1999 35.424 33.2894 35.564C33.524 35.8656 33.859 35.7316 34.1606 35.564L36.5061 34.8604C38.7846 34.1902 41.0296 33.5536 43.2076 32.8499C43.3383 32.8318 43.4635 32.7853 43.5744 32.7137C43.6853 32.642 43.7791 32.547 43.8494 32.4353C43.9196 32.3235 43.9645 32.1978 43.981 32.0668C43.9975 31.9358 43.9851 31.8029 43.9448 31.6772ZM34.1941 51.5806C36.1432 51.091 37.969 50.2009 39.5553 48.967C40.4935 48.1963 40.527 47.7607 39.5553 46.8895C37.3773 44.7786 35.1323 42.7346 32.8538 40.7577C32.5858 40.5231 32.3177 40.2551 31.9156 40.4561C31.5135 40.6572 31.5135 41.0257 31.5135 41.4278C31.5135 42.5001 31.5135 43.6058 31.7481 44.7786C31.9491 46.7555 32.0831 48.766 32.3512 50.7429C32.5858 51.6811 33.0214 51.8822 34.1941 51.5806ZM34.3616 37.5075C34.2301 37.494 34.0979 37.5268 33.9879 37.6002C33.8778 37.6736 33.7967 37.7829 33.7585 37.9096C33.7585 38.3452 33.7585 38.5797 34.2276 38.7807L41.6328 44.1754C42.6045 44.8791 43.2746 44.6781 43.7772 43.6058C44.618 41.7536 45.0521 39.7427 45.0505 37.7085C45.0505 36.6028 44.6819 36.2342 43.5762 36.3682L34.3616 37.5075Z" fill="#FFFBE5"/>
<path d="M7.91468 3.36769C7.92342 3.08428 8.00395 2.80772 8.14872 2.56392C8.2935 2.32011 8.49778 2.11704 8.74244 1.97372C9.36823 1.63332 9.99402 1.29293 10.6051 1.01792C10.8056 0.908264 11.0267 0.841645 11.2543 0.822328C11.482 0.803011 11.7112 0.83142 11.9272 0.905735C12.1433 0.980051 12.3414 1.09864 12.509 1.25391C12.6766 1.40918 12.81 1.59773 12.9005 1.80748C14.0198 3.70685 15.0444 5.72232 16.1309 7.61436C17.927 10.9361 19.6831 14.2832 21.5119 17.6123C21.8269 18.1981 21.7356 18.4523 21.2626 18.7239C20.0775 19.2599 18.9659 19.9454 17.9549 20.7636C17.5399 21.0826 17.3618 21.1113 17.1048 20.5729C14.1827 15.0756 11.3914 9.60755 8.22177 4.29507C8.04212 4.01713 7.93642 3.69792 7.91468 3.36769Z" fill="#FFFBE5"/>
<path d="M56.0408 106.594L56.8761 107.023C56.9428 107.055 56.9822 107.018 57.0312 107.016C57.22 106.836 57.4251 106.654 57.6136 106.467C57.6411 106.439 57.6755 106.416 57.7144 106.4C57.7533 106.384 57.7957 106.375 57.8387 106.375C58.0101 106.368 58.1815 106.361 58.3611 106.353C58.3911 106.35 58.4214 106.353 58.4491 106.363C58.4767 106.373 58.5008 106.389 58.5188 106.409C58.791 106.667 59.0552 106.926 59.368 107.176C59.3852 107.185 59.3995 107.198 59.4096 107.214C59.4198 107.229 59.4254 107.246 59.4261 107.263C59.4268 107.281 59.4226 107.298 59.4138 107.314C59.405 107.33 59.3918 107.344 59.3754 107.355L58.3644 108.22C58.325 108.256 58.2828 108.223 58.2256 108.225L57.6536 108.035C57.5841 108.011 57.5252 107.97 57.4852 107.917L57.3571 107.784C57.3639 107.95 57.3708 108.115 57.3776 108.281C57.3793 108.322 57.4288 108.334 57.4705 108.353C57.6782 108.434 57.8697 108.516 58.0771 108.591C58.1133 108.603 58.1439 108.624 58.1642 108.652C58.1845 108.68 58.1935 108.712 58.1898 108.745C58.1989 108.966 58.208 109.187 58.2182 109.435C58.2226 109.459 58.2173 109.483 58.2033 109.503C58.1893 109.524 58.1673 109.54 58.1411 109.549L57.3405 109.962C57.2446 110.015 57.1773 109.969 57.0939 109.931C57.0106 109.893 56.7642 109.668 56.5871 109.537C56.6274 109.829 56.705 110.115 56.8186 110.392C56.8981 110.503 56.9929 110.606 57.101 110.698L57.2035 110.804C57.2035 110.804 57.2562 110.892 57.3127 110.876C57.3693 110.86 57.3099 110.807 57.3572 110.763C57.378 110.69 57.394 110.615 57.4052 110.54C57.4065 110.508 57.419 110.476 57.4412 110.45C57.4633 110.423 57.4941 110.402 57.5298 110.39L58.5497 109.94C58.5766 109.92 58.6107 109.908 58.6464 109.907C58.6821 109.905 58.7171 109.914 58.7456 109.932L59.2358 110.32C59.2483 110.328 59.2585 110.339 59.2657 110.351C59.2729 110.363 59.2769 110.377 59.2775 110.391C59.278 110.404 59.2751 110.418 59.269 110.431C59.2628 110.444 59.2535 110.455 59.2418 110.465C59.097 110.655 58.9659 110.852 58.8491 111.055C58.8374 111.081 58.8169 111.104 58.79 111.122C58.7631 111.139 58.731 111.149 58.6977 111.151L58.1916 111.172C58.061 111.177 58.012 111.179 57.9763 111.305C57.68 112.25 57.3753 113.189 57.0697 114.107C57.0314 114.241 56.9617 114.366 56.8648 114.477C56.7679 114.588 56.6459 114.681 56.5059 114.752C56.366 114.822 56.2112 114.868 56.0506 114.886C55.8901 114.905 55.7272 114.896 55.5717 114.86L50.5786 113.732C50.4148 113.702 50.2606 113.644 50.126 113.56C49.9914 113.477 49.8794 113.37 49.7973 113.247C49.7151 113.124 49.6647 112.987 49.6492 112.846C49.6337 112.705 49.6534 112.562 49.7072 112.426C50.1708 110.976 50.6422 109.519 51.114 108.069C51.2517 107.641 51.3898 107.221 51.5194 106.794C51.5767 106.591 51.7209 106.413 51.9239 106.293C52.296 106.08 52.5674 105.762 52.6888 105.397C52.8102 105.032 52.7738 104.644 52.586 104.303C52.4796 104.103 52.4702 103.876 52.5598 103.668C52.6327 103.451 52.7049 103.22 52.794 103.002C52.831 102.935 52.8811 102.875 52.942 102.823L54.7892 101.019C54.9125 100.887 55.0062 100.738 55.0654 100.579C55.0814 100.562 55.0897 100.54 55.0888 100.519C55.0879 100.497 55.0779 100.477 55.0606 100.461C54.9843 100.407 54.9298 100.334 54.9045 100.252C54.8792 100.171 54.8843 100.084 54.9191 100.004C54.9618 99.8501 55.0124 99.689 55.0714 99.5345C55.0903 99.4766 55.1227 99.4222 55.1666 99.3748C55.2105 99.3273 55.265 99.2875 55.327 99.2579C55.3891 99.2283 55.4573 99.2094 55.5277 99.2024C55.5981 99.1953 55.6692 99.2002 55.737 99.2167C56.8762 99.4809 58.0227 99.724 59.1614 99.9744C59.2397 99.9832 59.3144 100.007 59.3798 100.044C59.4453 100.081 59.4997 100.13 59.5391 100.187C59.5785 100.245 59.6018 100.31 59.6072 100.376C59.6126 100.443 59.5999 100.51 59.5703 100.573C59.5191 100.72 59.4758 100.86 59.4325 101C59.4117 101.086 59.3604 101.165 59.2854 101.226C59.2105 101.287 59.1155 101.328 59.0133 101.342C58.9561 101.345 58.9398 101.345 58.9345 101.415C58.9012 101.599 58.9089 101.786 58.9572 101.967C58.9643 102.139 59.0204 102.31 59.0602 102.481C59.067 102.496 59.0701 102.512 59.0691 102.529C59.0681 102.545 59.0632 102.561 59.0546 102.575C59.0459 102.59 59.0338 102.603 59.019 102.614C59.0042 102.624 58.987 102.632 58.9685 102.637C58.743 102.722 58.5264 102.821 58.3006 102.899C58.2488 102.917 58.2037 102.946 58.1706 102.984C58.1374 103.023 58.1176 103.068 58.1133 103.114C58.1207 103.294 58.0461 103.47 58.0127 103.651C58.0107 103.68 57.9972 103.708 57.9744 103.73C57.9517 103.752 57.9209 103.768 57.887 103.774L57.2233 103.939C57.1743 103.941 57.1254 103.943 57.1451 104.025C57.1624 104.302 57.0949 104.578 56.9492 104.828C56.9141 104.968 56.8708 105.108 56.8287 105.276C57.0075 105.127 57.1527 104.953 57.2571 104.76C57.3339 104.64 57.3938 104.506 57.4622 104.379C57.4761 104.344 57.5015 104.313 57.5352 104.289C57.569 104.266 57.6098 104.251 57.653 104.246L58.0988 104.152C58.1277 104.141 58.1601 104.141 58.1894 104.15C58.2186 104.159 58.2425 104.177 58.2561 104.201C58.4617 104.453 58.7137 104.676 59.0028 104.861C59.1377 104.959 59.1298 104.967 59.0125 105.096C58.8952 105.225 58.6949 105.524 58.5405 105.744C58.52 105.778 58.4886 105.805 58.4502 105.824C58.4119 105.843 58.368 105.852 58.324 105.85L57.5486 105.882C57.5185 105.881 57.4885 105.887 57.4618 105.899C57.435 105.911 57.4123 105.929 57.3961 105.951C57.2478 106.123 57.0911 106.288 56.9431 106.467C56.9087 106.504 56.8646 106.534 56.8142 106.554C56.7639 106.574 56.7088 106.584 56.6535 106.583L56.0408 106.594Z" fill="#FFFBE5"/>
<path d="M58.7873 106.79L57.553 106.275L57.3422 106.185C57.2415 106.135 57.1891 106.061 57.2433 105.939C57.3587 105.629 57.4648 105.331 57.5704 105.021C57.6129 104.934 57.6455 104.841 57.6675 104.745C57.6608 104.582 57.8165 104.532 57.953 104.493L58.7546 104.319C58.7971 104.301 58.8436 104.297 58.8881 104.309C58.9326 104.321 58.9729 104.347 59.0038 104.385L59.7374 105.193C59.7598 105.215 59.778 105.241 59.7909 105.271C59.8038 105.3 59.8112 105.332 59.8125 105.365C59.8138 105.397 59.8091 105.43 59.7987 105.46C59.7882 105.49 59.7723 105.518 59.7517 105.541C59.5593 105.898 59.3776 106.276 59.1861 106.654C58.9945 107.032 59.1476 106.917 58.7873 106.79Z" fill="#FFFBE5"/>
<path d="M58.919 109.517L57.8333 109.075L57.5502 108.962C57.5142 108.956 57.4801 108.944 57.4498 108.926C57.4195 108.908 57.3938 108.884 57.3741 108.857C57.3545 108.829 57.3414 108.799 57.3357 108.766C57.33 108.734 57.3317 108.701 57.3409 108.67L57.411 107.837C57.409 107.801 57.418 107.765 57.4372 107.733C57.4563 107.701 57.4848 107.675 57.5196 107.656L58.5361 106.982C58.5496 106.966 58.5668 106.953 58.5865 106.944C58.6061 106.935 58.6278 106.929 58.6499 106.928C58.672 106.927 58.694 106.931 58.7144 106.938C58.7348 106.946 58.753 106.958 58.7677 106.972L59.8486 107.861C59.8926 107.898 59.9186 107.949 59.9208 108.003C59.923 108.058 59.9014 108.111 59.8605 108.151C59.6103 108.555 59.3605 108.97 59.1223 109.384C59.1039 109.499 59.0485 109.564 58.919 109.517Z" fill="#FFFBE5"/>
<path d="M62.3704 104.157L61.8346 104.179C61.8281 104.179 61.8169 104.18 61.8016 104.18C61.7863 104.181 61.7672 104.182 61.7454 104.182C61.7236 104.183 61.6995 104.184 61.6746 104.185C61.6497 104.186 61.6244 104.187 61.6002 104.188L60.8077 104.221C60.7326 104.224 60.6618 104.227 60.6068 104.229L59.8254 104.262C59.7473 104.265 59.7473 104.265 59.8254 104.262L61.3211 104.2C61.3348 104.199 61.3518 104.199 61.3711 104.198C61.3904 104.197 61.4114 104.196 61.4328 104.195C61.4541 104.194 61.4751 104.194 61.4944 104.193C61.5137 104.192 61.5308 104.191 61.5444 104.191L62.3146 104.159C62.3426 104.158 62.3637 104.157 62.3739 104.157C62.3842 104.156 62.3829 104.156 62.3704 104.157Z" fill="#FFFBE5"/>
<path d="M61.0395 106.822C60.9832 106.801 60.9323 106.764 60.891 106.715L59.8931 105.615C59.801 105.53 59.7868 105.455 59.8822 105.349C59.9775 105.244 60.2499 104.865 60.4286 104.63C60.4712 104.57 60.5265 104.524 60.5892 104.496C60.8999 104.371 61.2176 104.269 61.5404 104.191C61.662 104.186 61.7394 104.183 61.7899 104.333L62.4553 105.966C62.4595 106.067 62.4621 106.13 62.4637 106.168C62.0729 106.362 61.7178 106.617 61.3254 106.773C61.2361 106.819 61.1373 106.836 61.0395 106.822Z" fill="#FFFBE5"/>
<path d="M57.1208 102.514C57.1261 102.463 57.1446 102.414 57.1744 102.372C57.2042 102.33 57.2444 102.296 57.2914 102.273L58.2087 101.754C58.2406 101.724 58.2827 101.707 58.327 101.705C58.3714 101.703 58.4148 101.717 58.449 101.745L59.6054 102.646C59.7419 102.746 59.7332 102.828 59.6179 102.95L58.5507 104.213C58.4363 104.358 58.3397 104.35 58.1782 104.228C57.7102 103.976 57.3423 103.579 57.1329 103.099C57.078 102.909 57.0738 102.707 57.1208 102.514Z" fill="#FFFBE5"/>
<path d="M60.0839 111.964L60.0757 111.766C60.0755 111.76 60.0748 111.743 60.0738 111.718C60.0727 111.692 60.0713 111.658 60.0697 111.619C60.068 111.579 60.0662 111.534 60.0643 111.487C60.0623 111.441 60.0604 111.394 60.0586 111.349C60.0414 110.933 60.0243 110.516 60.0071 110.099C60.0035 110.011 60 109.926 59.9972 109.86C59.9945 109.794 59.9928 109.752 59.9924 109.742L59.9826 109.504C59.9818 109.484 59.982 109.489 59.9832 109.518C59.9844 109.548 59.9865 109.599 59.9891 109.663C60.0087 110.139 60.0292 110.635 60.0488 111.111C60.0545 111.25 60.0569 111.31 60.0602 111.389C60.0635 111.468 60.0757 111.766 60.0847 111.984C60.0937 112.203 60.0888 112.084 60.0839 111.964Z" fill="#FFFBE5"/>
<path d="M62.5882 109.194C62.5882 109.194 62.5835 109.078 62.5778 108.939C62.561 108.532 62.5438 108.115 62.5263 107.69C62.5253 107.665 62.5241 107.636 62.5229 107.607C62.5217 107.578 62.5205 107.548 62.5194 107.521C62.5183 107.494 62.5173 107.47 62.5165 107.451C62.5157 107.432 62.5152 107.419 62.5149 107.412C62.5063 107.204 62.4968 106.972 62.4901 106.81L62.5282 107.736C62.5293 107.762 62.5305 107.792 62.5319 107.826C62.5333 107.86 62.5348 107.896 62.5363 107.933C62.5378 107.969 62.5393 108.005 62.5407 108.039C62.5421 108.073 62.5434 108.103 62.5444 108.129L62.5873 109.17C62.5904 109.245 62.5928 109.305 62.5944 109.343C62.5959 109.38 62.5965 109.393 62.5959 109.379L62.5882 109.194Z" fill="#FFFBE5"/>
<path d="M61.0922 109.446L62.414 109.392C62.6028 109.384 62.6448 109.382 62.5399 109.387C62.435 109.391 62.0993 109.405 61.9105 109.413C61.8924 109.413 61.8639 109.414 61.8268 109.416C61.7897 109.418 61.7449 109.419 61.6954 109.421C61.6458 109.423 61.5926 109.426 61.5392 109.428C61.4859 109.43 61.4337 109.432 61.3859 109.434L60.169 109.484C59.9732 109.492 59.9312 109.494 60.0431 109.489L60.6726 109.464C60.688 109.463 60.7118 109.462 60.7422 109.461C60.7726 109.459 60.809 109.458 60.8488 109.456C60.8886 109.455 60.9309 109.453 60.9729 109.451C61.0149 109.449 61.0556 109.448 61.0922 109.446Z" fill="#FFFBE5"/>
<path d="M64.8916 101.541C64.8916 101.541 64.8916 101.541 64.9003 101.754C64.9277 102.418 64.9551 103.083 64.9824 103.747C64.9923 103.987 64.9945 104.04 64.9945 104.04C64.9949 104.052 64.9949 104.052 64.9945 104.04C64.994 104.028 64.993 104.005 64.9917 103.972C64.9903 103.939 64.9886 103.897 64.9866 103.849C64.9846 103.801 64.9825 103.748 64.9802 103.694L64.9244 102.339C64.9178 102.179 64.9124 102.046 64.9102 101.993L64.8872 101.435L64.8916 101.541Z" fill="#FFFBE5"/>
<path d="M65.0981 106.555L65.063 105.705C65.0621 105.683 65.0611 105.657 65.0599 105.628C65.0586 105.598 65.0573 105.567 65.056 105.534C65.0547 105.502 65.0534 105.47 65.0522 105.441C65.051 105.412 65.0499 105.386 65.049 105.364L64.9988 104.145L65.0397 105.137C65.0397 105.137 65.049 105.364 65.0548 105.506L65.0992 106.584C65.1015 106.64 65.1024 106.662 65.1024 106.662C65.1024 106.662 65.1007 106.62 65.0981 106.555Z" fill="#FFFBE5"/>
</svg>
