<svg width="96" height="120" viewBox="0 0 96 120" fill="none" xmlns="http://www.w3.org/2000/svg">
<path d="M73.5543 82.7193C79.4735 76.2075 85.3604 69.6662 91.2796 63.184C92.2848 62.033 92.7501 60.564 92.5734 59.0994C92.5734 58.5074 92.5734 57.9451 92.5734 57.3827C92.5734 55.1036 92.4116 52.8245 92.3146 50.575C92.0558 45.7208 91.7647 45.9576 91.4736 41.1034C91.4736 40.2746 91.4736 39.3274 90.8591 38.9426C90.2445 38.5579 89.5976 39.1794 89.0801 39.7418L88.6272 40.1858C86.7836 42.2281 84.9399 44.3 83.0639 46.3423L69.026 61.5265L48.6484 83.9328C48.0015 84.6432 47.9692 84.6432 47.3546 83.9328L46.3196 82.8377L24.8746 59.1586L11.1279 44.152C9.67232 42.5537 8.24913 40.985 6.76124 39.4458C5.27336 37.9067 4.75583 38.7354 4.59411 40.689V40.837C4.43238 44.152 4.303 42.3761 4.10893 45.6912C3.88251 49.983 3.65609 54.2748 3.42967 58.4482V59.277C3.33403 60.0183 3.41458 60.7697 3.6658 61.4798C3.91703 62.1899 4.33299 62.8419 4.88521 63.3912C5.43508 63.924 5.95261 64.5456 6.50248 65.1376L24.066 84.6136C29.597 90.7405 35.1604 96.8379 40.6915 102.935L46.7077 109.447C46.8896 109.729 47.1724 109.945 47.5084 110.059C47.8444 110.172 48.2129 110.175 48.5514 110.069C49.0042 109.921 49.36 109.447 49.7158 109.033L58.5138 99.3538C63.4626 93.8188 68.5408 88.2838 73.5543 82.7193Z" fill="#FFFBE5"/>
<path d="M7.06022 28.0695C10.3635 31.6973 13.6668 35.3251 17.2343 38.9236C20.8019 42.5222 24.6006 46.6473 28.2012 50.6262C34.2792 57.2381 40.4564 63.7038 46.5344 70.2865C47.9548 71.8078 48.2851 71.7785 49.8377 70.2865C52.3812 67.5949 54.8587 64.8448 57.4352 62.1824C62.291 57.1503 66.9487 51.8549 71.8045 46.8229C75.7023 42.4637 79.7324 37.9874 83.7624 33.7453L89.2458 27.894C89.4306 27.7447 89.5699 27.5565 89.6507 27.3468C89.7316 27.1371 89.7514 26.9127 89.7083 26.6945C89.6729 26.4759 89.5667 26.2711 89.4025 26.1049C89.2383 25.9387 89.0233 25.8183 88.7833 25.7583C88.4428 25.7285 88.0998 25.7285 87.7593 25.7583H75.0747C73.6858 21.1507 71.5966 16.7316 68.8646 12.6222C66.2051 8.27822 62.2372 4.6728 57.4022 2.20692C53.3373 0.0384778 48.4712 -0.623752 43.8587 0.363766C38.1115 1.69573 33.0948 4.81011 29.7207 9.14067C25.6087 14.1151 22.6247 19.7485 20.934 25.729H8.0512C7.68306 25.6435 7.29623 25.6435 6.92809 25.729C6.75306 25.8298 6.60461 25.9629 6.49285 26.1191C6.38108 26.2753 6.30863 26.451 6.28042 26.6342C6.25221 26.8174 6.2689 27.0039 6.32936 27.1809C6.38982 27.3579 6.49263 27.5213 6.63079 27.6599L7.06022 28.0695ZM39.036 16.6596C40.2847 14.9207 41.8997 13.4109 43.7927 12.2126C45.0182 11.3751 46.5225 10.9209 48.0704 10.9209C49.6183 10.9209 51.1226 11.3751 52.3482 12.2126C54.7436 13.7485 56.7098 15.7502 58.0959 18.0639C59.6936 20.5139 61.0316 23.0897 62.0928 25.7583H34.048C35.2327 22.5531 36.8756 19.4953 38.9369 16.6596H39.036Z" fill="#FFFBE5"/>
<path d="M95.289 111.449C94.8566 107.371 94.8233 103.264 94.5572 99.1862C94.3576 96.4377 94.3243 93.659 94.1912 90.8803C93.9584 86.0478 93.6922 81.2153 93.4261 76.3828C93.4261 75.7183 93.659 74.8122 93.0935 74.48C92.5279 74.1478 92.1288 74.8726 91.7296 75.3257L77.7579 90.4273L53.1744 117.217C52.8085 117.61 52.1764 117.942 52.3428 118.637C52.5091 119.332 53.2077 118.999 53.6401 119.03H90.2326C90.959 119.095 91.6918 118.991 92.3616 118.728C93.5708 117.9 94.4905 116.772 95.0099 115.481C95.5293 114.189 95.6262 112.789 95.289 111.449Z" fill="#FFFBE5"/>
<path d="M42.6587 117.11L18.1618 90.3938L4.23936 75.3341C3.84158 74.8823 3.44379 74.1293 2.88027 74.4907C2.31674 74.8521 2.58193 75.7256 2.54878 76.3882C2.28359 81.2074 2.05155 86.0265 1.78636 90.8456C1.78636 93.6166 1.78636 96.3876 1.42172 99.1284C1.15653 103.195 1.12338 107.291 0.692451 111.357C0.356776 112.725 0.473471 114.152 1.02787 115.459C1.58227 116.767 2.54965 117.897 3.80843 118.706C4.46417 118.969 5.18372 119.073 5.8968 119.007H42.3604C42.8245 119.007 43.4874 119.339 43.6532 118.616C43.8189 117.893 43.0234 117.501 42.6587 117.11Z" fill="#FFFBE5"/>
</svg>
