<svg width="173" height="173" viewBox="0 0 173 173" fill="none" xmlns="http://www.w3.org/2000/svg">
<circle cx="86.7917" cy="86.444" r="86.0417" fill="#BFA443"/>
<circle cx="86.7917" cy="86.444" r="76.2083" stroke="#FFFBE5" stroke-width="4.91667"/>
<path d="M58.3496 57.7022C58.3496 56.4512 58.3496 55.2001 58.3496 53.9491C58.3496 53.7163 58.3496 53.4254 58.5234 53.309C58.6972 53.1926 58.9289 53.4545 59.1026 53.5999L64.6632 58.2841L75.8133 67.6524L85.8629 76.177C86.7607 76.9334 86.8475 76.9334 87.8033 76.177L98.6348 67.0414L114.274 53.8909C114.477 53.7163 114.708 53.3381 115.027 53.4836C115.345 53.629 115.259 54.0363 115.259 54.3273C115.259 56.5966 115.259 58.8951 115.259 61.1644C115.266 61.5056 115.195 61.8439 115.049 62.1521C114.903 62.4604 114.687 62.7299 114.419 62.9391C106.947 69.3108 99.4457 75.566 91.9158 81.8503L87.5716 85.4289C86.8186 86.0399 86.7607 86.0399 85.9787 85.4289C78.3619 79.2901 70.9768 72.9184 63.4758 66.6632C61.9408 65.3831 60.5797 64.0447 58.9289 62.7646C58.7131 62.6038 58.5397 62.3926 58.4236 62.1492C58.3075 61.9059 58.2523 61.6377 58.2627 61.3681C58.2627 60.1752 58.2627 58.9533 58.2627 57.7604L58.3496 57.7022ZM62.6938 46.4719C62.6938 47.3156 62.6938 48.1302 62.6938 48.9449C62.6464 49.3712 62.7158 49.8024 62.8944 50.1921C63.0731 50.5818 63.3542 50.915 63.7075 51.156L85.8629 69.6017C86.8765 70.4454 86.8186 70.62 88.035 69.6017L110.219 50.9815C110.463 50.8101 110.658 50.5776 110.785 50.3071C110.912 50.0367 110.967 49.7376 110.943 49.4395V43.8243C110.943 43.5624 110.943 43.2133 110.77 43.0388C110.596 42.8642 110.19 43.2424 109.988 43.417L97.4474 53.8618L87.9191 61.8336C86.8475 62.7355 86.8186 62.7355 85.776 61.8336L67.9937 46.8792L63.5627 43.2133C63.3889 43.2133 63.1862 42.7769 62.9255 42.9224C62.6649 43.0678 62.7518 43.3297 62.7518 43.5624V46.4719H62.6938ZM67.2987 37.5109C67.2987 38.2091 67.2987 38.9074 67.2987 39.5765C67.2557 39.889 67.3008 40.2072 67.4288 40.4952C67.5568 40.7832 67.7625 41.0293 68.0227 41.2058L68.4861 41.4677L82.9667 53.7163C84.0093 54.5891 85.0519 55.4911 86.1235 56.3348C86.7027 56.8294 86.8765 56.8294 87.4557 56.3348L87.9191 55.9566L93.5666 51.2433L105.672 41.0894C105.914 40.8938 106.107 40.6452 106.237 40.3627C106.368 40.0803 106.432 39.7715 106.425 39.4602C106.425 38.1218 106.425 36.7835 106.425 35.4161C106.439 35.2515 106.439 35.0861 106.425 34.9215C106.425 34.4851 106.223 34.3978 105.875 34.6596C105.528 34.9215 105.122 35.2415 104.746 35.5325L92.8715 45.8318L87.6295 50.1959C87.0503 50.6905 86.9055 50.6905 86.2973 50.1959L86.0366 49.9923L71.3822 37.6854C70.2527 36.7253 69.1232 35.7652 67.9648 34.776C67.5593 34.456 67.3566 34.5433 67.3276 35.067C67.2987 35.5906 67.3276 36.6671 67.3276 37.4527L67.2987 37.5109ZM71.3822 29.6554C71.3822 30.15 71.3822 30.6446 71.3822 31.1101C71.3612 31.4265 71.4221 31.7429 71.5592 32.0284C71.6963 32.314 71.9047 32.559 72.1642 32.7394L86.2104 44.5226C86.9344 45.1335 87.0213 45.1335 87.7453 44.5226L93.3059 39.8384L101.676 32.7394C101.95 32.5374 102.169 32.2684 102.31 31.9578C102.452 31.6472 102.513 31.3054 102.487 30.9647C102.487 30.15 102.487 29.3063 102.487 28.4917C102.487 28.1425 102.66 27.6189 102.313 27.4734C101.965 27.3279 101.676 27.7643 101.415 27.9971L89.4541 38.0637L87.5426 39.6638C86.9634 40.1293 86.8475 40.1293 86.2394 39.6638C86.1394 39.6024 86.0511 39.5236 85.9787 39.4311L72.4248 28.0844C72.2158 27.8937 71.9932 27.7187 71.7587 27.5607C71.4981 27.357 71.3243 27.5607 71.3243 27.7934C71.3243 28.0262 71.3243 29.0445 71.3243 29.6554H71.3822ZM77.1745 129.71C78.1881 129.07 79.1728 128.372 80.0706 127.732C80.3051 127.593 80.5018 127.398 80.6433 127.165C80.7848 126.931 80.8666 126.666 80.8815 126.393C81.0842 124.415 81.3739 122.437 81.5766 120.575C82.5902 110.828 83.7487 101.111 84.6175 91.4805C84.6175 90.4913 84.6175 90.4331 83.7776 90.1422C81.982 89.5894 80.1864 89.0075 78.3908 88.4838C69.0074 85.5744 59.6529 82.8977 50.2405 80.192C49.9167 80.0864 49.5729 80.0578 49.2362 80.1082C48.8995 80.1587 48.5791 80.287 48.3001 80.4829C46.4465 81.7631 44.5351 83.0141 42.5078 84.2943C42.2472 84.4688 41.8417 84.5852 41.9286 84.9634C42.0155 85.3416 42.4209 85.2835 42.7105 85.3707L62.2594 91.1896L75.8423 95.1755C77.0297 95.5246 77.0586 95.5828 76.9428 96.7756C76.4504 101.14 75.9871 105.504 75.5237 109.897C74.9734 114.756 74.4521 119.585 73.9308 124.444L73.1489 131.689C73.1489 131.892 73.004 132.183 73.1489 132.329C73.2937 132.474 73.5543 132.329 73.757 132.125C74.7996 131.456 75.8422 130.729 76.8559 130.03L77.1745 129.71ZM65.59 132.271C66.2561 131.805 66.9222 131.31 67.6462 130.903C68.016 130.699 68.3258 130.4 68.5444 130.038C68.763 129.675 68.8827 129.261 68.8915 128.837L71.9325 100.209C72.0773 98.8704 72.2511 98.8413 70.7161 98.4049L42.9712 90.2004C42.6934 90.0997 42.3953 90.0683 42.1028 90.1088C41.8102 90.1493 41.5318 90.2606 41.2914 90.4331L36.6287 93.5462C36.397 93.6917 36.0494 93.8371 36.0784 94.1572C36.1074 94.4772 36.5418 94.5063 36.8314 94.5936L52.3836 99.1614L64.2288 102.565C65.59 102.973 65.59 102.973 65.4452 104.34C65.1845 106.668 64.9238 108.995 64.6922 111.323C64.084 116.705 63.5047 122.117 62.9255 127.499C62.7228 129.419 62.4911 131.369 62.2884 133.318C62.2884 133.551 62.1436 133.871 62.2884 134.016C62.4332 134.162 62.7228 134.016 62.8966 133.783L65.3293 132.183L65.59 132.271ZM55.6273 133.405C56.1775 133.027 56.7568 132.62 57.336 132.271C57.6197 132.128 57.8573 131.907 58.0213 131.634C58.1853 131.361 58.269 131.047 58.2627 130.729C58.2499 130.535 58.2499 130.34 58.2627 130.147C58.9578 123.804 59.6239 117.491 60.29 111.148C60.4348 109.781 60.6086 108.413 60.7245 107.075C60.7245 106.319 60.7245 106.173 60.0004 105.911L59.4212 105.737L52.3836 103.671L37.2368 99.1905C36.9482 99.0863 36.6384 99.0557 36.3352 99.1014C36.0319 99.1471 35.7446 99.2677 35.4992 99.4523C34.3986 100.238 33.2692 100.965 32.1686 101.693L31.7342 102.013C31.4156 102.274 31.4156 102.449 31.7342 102.594L33.1243 103.06L54.7584 109.403C55.4825 109.635 55.5693 109.752 55.5114 110.508C55.5114 110.508 55.5114 110.741 55.5114 110.857C54.8453 117.2 54.1502 123.571 53.4552 129.914C53.2814 131.398 53.1366 132.823 52.9918 134.365C52.9918 134.889 52.9918 135.005 53.571 134.714L55.5694 133.405H55.6273ZM46.9389 134.453L48.1553 133.667C48.4252 133.508 48.6513 133.283 48.8131 133.014C48.9749 132.745 49.0674 132.439 49.082 132.125C49.7192 126.015 50.366 119.915 51.0224 113.825C51.0224 112.894 51.0224 112.807 50.1825 112.545L43.2318 110.479L32.5162 107.366C32.1962 107.237 31.8477 107.196 31.5067 107.247C31.1656 107.298 30.8443 107.44 30.5758 107.657L28.5485 109.024C28.2588 109.228 27.7375 109.373 27.7955 109.752C27.8534 110.13 28.3747 110.101 28.7222 110.217L46.07 115.309C46.7941 115.541 46.852 115.629 46.7941 116.443C46.7782 116.549 46.7782 116.657 46.7941 116.763C46.1183 122.582 45.4715 128.459 44.8537 134.394C44.8537 134.685 44.8537 134.976 44.8537 135.238C44.8537 135.5 45.0274 135.675 45.2881 135.5L46.7651 134.569L46.9389 134.453ZM128.407 82.1995L125.511 80.192C125.294 80.0293 125.042 79.9207 124.775 79.8752C124.508 79.8297 124.234 79.8485 123.976 79.9301L118.184 81.5303C108.829 84.2652 99.4167 86.8545 90.0912 89.7058C89.1355 89.9967 89.1065 90.0258 89.1644 91.015C89.3382 92.877 89.483 94.7681 89.6857 96.6302C90.6415 106.406 91.5972 116.181 92.5819 125.957C92.6017 126.296 92.7013 126.626 92.8724 126.92C93.0436 127.213 93.2815 127.461 93.5666 127.645C95.478 128.896 97.3315 130.205 99.3588 131.485C99.5905 131.66 99.8512 131.98 100.17 131.776C100.488 131.572 100.17 131.194 100.17 130.903C99.4747 124.095 98.7796 117.316 98.1135 110.537C97.6211 105.824 97.1288 101.111 96.6654 96.3974C96.5206 95.1755 96.6654 95.1173 97.737 94.7972L110.364 91.1605L124.381 87.1746L131.361 85.1089C131.564 85.1089 131.853 85.1089 131.911 84.7889C131.969 84.4688 131.68 84.4106 131.506 84.2943L128.407 82.1995ZM135.097 92.1497C134.402 91.6842 133.707 91.2768 133.041 90.7532C132.716 90.4813 132.325 90.3006 131.908 90.229C131.491 90.1575 131.062 90.1978 130.666 90.3458L103.24 98.3176C101.965 98.6959 101.878 98.5504 102.023 100.151C102.487 104.515 102.921 108.879 103.355 113.272C103.877 118.538 104.427 123.775 104.919 129.041C104.932 129.341 105.018 129.633 105.17 129.892C105.321 130.151 105.534 130.368 105.788 130.525L110.393 133.638C110.625 133.638 110.856 134.074 111.146 133.929C111.436 133.783 111.291 133.347 111.146 133.056C110.625 127.674 110.074 122.262 109.524 116.88C109.09 112.719 108.684 108.559 108.25 104.427C108.25 103.031 108.25 103.002 109.437 102.624L137.327 94.6518C137.559 94.6518 137.877 94.6518 137.935 94.2735C137.993 93.8953 137.675 93.9244 137.472 93.808L135.097 92.1497ZM139.876 100.878L138.196 99.7142C137.957 99.5063 137.665 99.369 137.354 99.3177C137.042 99.2663 136.722 99.3028 136.429 99.4232C136.242 99.4986 136.048 99.557 135.85 99.5978L117.72 104.98L113.811 106.115C113.086 106.348 113 106.493 113.029 107.22C113.014 107.424 113.014 107.628 113.029 107.831C113.26 110.275 113.521 112.719 113.753 115.163C114.274 120.4 114.824 125.666 115.316 130.932C115.338 131.245 115.434 131.547 115.595 131.815C115.756 132.083 115.978 132.309 116.243 132.474C117.373 133.202 118.444 133.958 119.574 134.714L119.979 135.005C120.385 135.18 120.53 135.005 120.53 134.685C120.53 134.365 120.53 133.725 120.53 133.231C120.008 128.023 119.487 122.786 118.937 117.549L118.242 110.741C118.242 109.955 118.242 109.868 118.966 109.635H119.313L137.675 104.398L141.932 103.147C142.453 103.147 142.482 102.798 141.932 102.478L139.963 101.111L139.876 100.878ZM144.133 108.559C143.756 108.297 143.322 108.035 142.946 107.744C142.695 107.559 142.402 107.439 142.095 107.393C141.787 107.348 141.472 107.378 141.179 107.482L123.57 112.574C122.673 112.836 122.615 112.894 122.702 113.825C122.962 116.24 123.194 118.654 123.426 121.069C123.802 124.735 124.179 128.401 124.526 132.067C124.533 132.409 124.628 132.744 124.8 133.039C124.972 133.335 125.217 133.581 125.511 133.754L127.567 135.122C127.857 135.325 128.175 135.762 128.523 135.558C128.87 135.354 128.523 134.86 128.523 134.511C128.002 129.303 127.451 124.124 126.93 118.916C126.93 118.102 126.756 117.287 126.698 116.443C126.64 115.6 126.698 115.6 127.451 115.367H127.77L145.552 110.246C145.871 110.246 145.871 109.926 145.552 109.723L143.988 108.675L144.133 108.559Z" fill="#FFFBE5"/>
</svg>
