<svg width="54" height="59" viewBox="0 0 54 59" fill="none" xmlns="http://www.w3.org/2000/svg">
<path fill-rule="evenodd" clip-rule="evenodd" d="M28.3462 21.0602C28.3462 35.4243 28.2765 41.8211 28.1117 42.5752C27.0229 47.5559 21.8364 50.5192 16.8328 49.0192C11.2973 47.3597 8.86306 41.0164 11.9484 36.2918C13.2062 34.3661 15.6104 32.8249 18.0359 32.3897C19.1635 32.1872 19.7425 32.2115 21.6218 32.5398L22.3038 32.6586L22.2476 27.8263L22.1917 22.9938H19.1667C15.7028 22.9938 14.29 23.2753 11.5157 24.518C9.34582 25.4897 8.15352 26.2825 6.36497 27.9425C2.81271 31.2396 0.890014 35.3036 0.659065 40.0033C0.243275 48.4668 5.66086 55.712 14.3094 58.2592C15.925 58.735 16.5115 58.8011 19.271 58.8171C21.9195 58.8324 22.6676 58.7644 24.1397 58.3738C27.4985 57.4824 29.8963 56.1634 32.4782 53.7867C35.1004 51.373 36.8844 48.3621 37.7366 44.9112C38.1222 43.3503 38.1487 42.4922 38.1501 31.5492C38.151 25.1175 38.1891 19.8551 38.235 19.8551C38.2807 19.8551 38.8206 20.1838 39.4346 20.5855C42.918 22.8652 47.1961 24.2924 51.5558 24.6295L53.3812 24.7707V20.0104V15.25L51.8931 15.1078C44.693 14.4192 39.0687 8.94837 38.2386 1.82625L38.0978 0.618164H33.222H28.3462V21.0602Z" fill="#FFF1A8"/>
</svg>
