<svg width="173" height="173" viewBox="0 0 173 173" fill="none" xmlns="http://www.w3.org/2000/svg">
<circle cx="86.3756" cy="86.444" r="86.0417" fill="#BFA443"/>
<circle cx="86.3756" cy="86.444" r="76.2083" stroke="#FFFBE5" stroke-width="4.91667"/>
<path d="M111.689 70.6249C110.86 71.0661 110.004 71.4556 109.126 71.7911L95.5433 76.1149C94.9923 76.257 94.4142 76.257 93.8632 76.1149L75.3822 72.2178H74.8411C74.8411 71.7058 74.8411 71.1653 74.8411 70.6533C74.8411 66.614 75.0689 62.6032 75.1544 58.5639C75.1544 55.5202 75.2967 52.4765 75.3822 49.4328C75.3967 47.8058 75.828 46.2095 76.6351 44.7962C78.0874 42.293 79.4827 39.676 80.7357 37.1159C81.8254 35.1393 83.3196 33.4141 85.121 32.0525C85.1864 32.3145 85.2339 32.5806 85.2634 32.849C85.2634 36.6607 85.0925 40.444 84.9786 44.2273L84.8078 49.3475C84.8078 51.3103 84.8078 53.2446 84.8078 55.1789C84.8078 58.0234 84.58 61.0956 84.4661 64.0539C84.4661 64.6228 84.7508 64.7366 85.2349 64.8504L106.649 69.2879L111.775 70.3404L111.689 70.6249ZM97.9353 54.0126V53.3015C97.9353 50.4569 98.1062 47.8114 98.1631 45.0807C98.1631 41.6103 98.1631 38.1684 98.3909 34.698C98.3909 33.0197 98.5618 31.3698 98.6187 29.6915C98.6187 28.9804 98.6187 28.2693 98.6187 27.4443C96.3229 27.4636 94.0448 27.8477 91.8699 28.5822C91.8699 31.7112 91.6705 34.698 91.5566 37.7132C91.4427 40.7285 91.4143 43.2601 91.3288 46.0194C91.3288 50.1724 91.1295 54.3255 91.0441 58.4786C91.007 58.7904 91.007 59.1055 91.0441 59.4173L117.413 64.9357C118.806 63.0394 119.954 60.975 120.83 58.7915L97.9353 54.0126ZM85.0641 78.9879L81.5045 78.2768L71.7942 76.5985C70.9114 76.4562 70.5982 76.1433 70.5127 75.2615V74.6073C70.5127 69.9706 70.3134 65.334 70.1995 60.6689V57.483C69.9562 57.5828 69.7549 57.7637 69.63 57.995C68.4909 60.1284 67.3234 62.2618 66.1844 64.4237C63.3367 70.1128 60.3467 75.546 57.4706 81.1213C57.167 81.7271 56.9741 82.3821 56.9011 83.0556C56.8008 83.822 56.999 84.5977 57.4548 85.2223C57.9105 85.8469 58.589 86.2729 59.3501 86.4122C59.8427 86.455 60.3382 86.455 60.8308 86.4122C63.2807 86.0612 65.6862 85.4509 68.0068 84.5917C73.7021 82.9418 79.141 81.2351 84.7224 79.5568L85.5766 79.2155L85.0641 78.9879ZM106.877 37.7701C106.877 34.6695 107.076 31.569 107.162 28.4968C105.698 27.9437 104.142 27.6734 102.577 27.7003C102.292 28.6391 101.723 50.0586 102.007 50.9405L122.51 55.2073L123.251 50.5138L106.649 47.0719C106.706 43.9144 106.791 40.8423 106.877 37.7701ZM113.056 39.3631C113.056 36.803 113.199 34.2713 113.256 31.7112C113.256 31.3983 113.256 30.9432 112.942 30.8294C112.06 30.3173 111.148 29.8907 110.095 29.3786C109.867 34.6126 109.753 39.6475 109.667 44.7393L123.165 47.5839C123.165 46.5883 122.966 45.7634 122.909 44.9384C122.917 44.7092 122.835 44.486 122.681 44.316C122.527 44.1461 122.312 44.0428 122.083 44.0282C120.517 43.7437 118.951 43.4024 117.385 43.0895L112.828 42.0939C112.828 41.0983 112.999 40.2164 113.056 39.3631ZM117.242 35.8927C117.242 33.7877 117.242 33.7877 115.562 32.5361C115.445 32.4579 115.321 32.3912 115.192 32.337C114.824 35.0903 114.757 37.8754 114.993 40.6431C117.312 41.4051 119.728 41.836 122.169 41.9232C122.026 41.4965 121.827 41.0698 121.713 40.6431C121.634 40.2955 121.444 39.9829 121.172 39.7522C120.9 39.5214 120.56 39.3849 120.204 39.3631C119.207 39.2208 118.21 38.9364 117.356 38.7373L117.242 35.8927ZM120.631 38.2821C120.051 37.1884 119.343 36.1668 118.524 35.2385V37.8555L120.631 38.2821Z" fill="#FFFBE5"/>
<path d="M107.664 117.836L94.5999 96.3548C98.4102 93.0435 102.049 89.7322 105.859 86.6191C109.759 83.6618 113.409 80.3964 116.774 76.8551C115.302 76.5296 113.776 76.5296 112.305 76.8551C108.609 77.7324 104.971 78.6947 101.275 79.6852C101.029 79.768 100.804 79.9033 100.616 80.0815C99.6994 80.8173 98.8112 81.6097 97.9231 82.3739L94.0269 85.77L84.401 94.0058C83.5988 94.685 83.5988 94.7133 84.1432 95.6189L92.7377 109.77C92.9739 110.15 93.2979 110.47 93.6831 110.704C97.503 112.892 101.323 115.043 105.143 117.156C105.854 117.511 106.592 117.814 107.349 118.062L107.664 117.836ZM110.099 98.7604L116.258 93.4963L122.303 88.2606C124.28 86.5059 126.371 84.8644 128.291 82.9965C126.846 81.5275 125.196 80.2695 123.392 79.2607C116.316 85.4304 109.239 91.4303 102.278 97.5434C102.564 98.0529 102.736 98.4208 102.965 98.7604C105.057 102.241 107.177 105.723 109.297 109.204C110.987 112.034 112.734 114.864 114.425 117.694C114.522 117.959 114.721 118.175 114.978 118.297C115.235 118.419 115.53 118.436 115.8 118.345C117.232 117.949 118.665 117.637 120.154 117.298C120.441 117.298 120.699 117.043 121.1 116.873L110.099 98.7604ZM81.9945 102.694C80.4188 100.006 78.7859 97.317 77.1815 94.6284C76.5226 93.5246 76.6086 93.3265 77.5826 92.4775L86.1772 84.7795C86.5588 84.3687 86.9128 83.9338 87.2372 83.4776C86.932 83.4573 86.6257 83.4573 86.3205 83.4776L66.954 89.0247C66.5747 89.134 66.2095 89.2859 65.8653 89.4775C65.4353 89.6596 65.0613 89.9504 64.7812 90.3206C64.501 90.6908 64.3244 91.1273 64.2692 91.5863C64.2141 92.0453 64.2822 92.5106 64.4669 92.9353C64.6515 93.36 64.9461 93.7292 65.321 94.0058C66.275 94.8293 67.3008 95.568 68.3864 96.2133C72.3686 98.5623 76.408 100.855 80.4188 103.147C81.1215 103.571 81.8993 103.859 82.7107 103.996C82.4242 103.317 82.281 103.006 82.0805 102.694H81.9945ZM132.989 89.2511L131.299 86.5625L130.583 85.6285L114.568 99.4679L124.366 115.628C125.736 115.104 126.97 114.282 127.976 113.222L120.24 100.345L132.989 89.2511ZM123.535 100.883L130.096 111.666L132.13 109.345L127.46 101.619L127.89 101.138C130.067 99.2981 132.244 97.4585 134.393 95.4774C134.679 95.251 135.023 94.8548 134.994 94.6001C134.823 93.6944 134.507 92.7888 134.192 91.7699L123.535 100.883ZM133.763 106.345C133.956 106.087 134.06 105.775 134.06 105.454C134.06 105.133 133.956 104.82 133.763 104.562C133.247 103.826 132.817 103.034 132.359 102.241L132.874 101.675C133.591 101.081 134.336 100.487 135.023 99.8358C135.278 99.6276 135.451 99.3369 135.51 99.0151C135.553 98.3554 135.553 97.6937 135.51 97.034H135.224C133.419 98.7321 131.413 100.204 129.494 102.015L133.046 107.845C133.447 107.109 133.619 106.713 133.849 106.345H133.763ZM134.737 103.883C135.073 102.977 135.238 102.018 135.224 101.053L133.476 102.468L134.479 104.053L134.737 103.883Z" fill="#FFFBE5"/>
<path d="M68.2909 110.355L64.2975 123.072C64.2124 123.405 64.2124 123.753 64.2975 124.085C65.0055 127.462 65.7136 130.866 66.45 134.243C66.6302 134.801 66.8478 135.346 67.1014 135.875H67.3563C68.3192 132.752 69.2821 129.657 70.1884 126.533C71.0947 123.41 72.086 120.231 73.1905 117.136C80.8941 118.036 88.456 119.077 96.2444 119.949C96.1241 119.676 95.982 119.412 95.8196 119.161C95.0412 118.072 94.0838 117.121 92.9875 116.348C91.2315 115.222 89.4472 114.125 87.7762 112.915C86.6746 112.177 85.3926 111.75 84.0661 111.677L73.0206 110.355L68.5458 109.764C68.4325 110.101 68.3475 110.214 68.2909 110.355ZM79.8178 127.237C86.1619 127.912 92.3361 128.869 98.5952 129.516C98.7587 127.905 98.6437 126.277 98.2553 124.704L91.2881 123.832L83.1598 122.847L77.0706 122.06C76.9054 122.016 76.7297 122.039 76.5814 122.123C76.4331 122.208 76.324 122.346 76.2776 122.51C76.2776 122.763 76.1077 123.016 76.0227 123.269C74.8049 127.18 73.5587 131.092 72.3409 135.031C71.7744 136.775 71.2363 138.548 70.6699 140.433L74.8049 143.247L79.8178 127.237ZM79.4496 107.203C79.1381 107.006 78.8549 106.781 78.5434 106.612C76.929 105.571 75.2863 104.558 73.672 103.489C70.415 101.407 67.2146 99.2686 63.9576 97.1864C63.4634 96.85 62.9185 96.5935 62.3433 96.4267C61.9944 96.292 61.6169 96.2476 61.246 96.2976C60.8751 96.3476 60.5231 96.4904 60.223 96.7126C59.9229 96.9348 59.6845 97.2291 59.5303 97.5679C59.376 97.9067 59.311 98.2789 59.3412 98.6495C59.3452 99.6701 59.4495 100.688 59.6527 101.688C60.5024 106.05 61.3804 110.383 62.2583 114.744C62.3645 115.502 62.6671 116.219 63.1363 116.826C63.3062 116.348 63.4762 115.982 63.6178 115.588C64.4958 112.774 65.3454 109.961 66.2517 107.288C66.5632 106.275 66.7615 106.162 67.7811 106.275L78.515 107.428C78.7975 107.456 79.0822 107.456 79.3647 107.428L79.4496 107.203ZM81.7154 130.135L77.2405 144.457L80.5542 145.301L84.1511 133.849L97.3773 135.509L98.3403 132.273L81.7154 130.135ZM85.5672 136.1C84.5759 139.251 83.5563 142.262 82.735 145.441H84.6042C84.7727 145.457 84.9408 145.408 85.073 145.303C85.2051 145.197 85.2909 145.045 85.3123 144.879L85.5672 144.119C86.1053 142.318 86.6717 140.546 87.2381 138.717C87.4834 138.704 87.7292 138.704 87.9745 138.717L94.2619 139.533C94.6868 139.533 95.1116 139.73 95.3948 139.308L96.5277 137.45L85.5672 136.1ZM90.4951 142.037H91.7413C92.9025 142.037 93.3556 141.868 93.8937 140.63L88.0878 139.927L86.6434 145.104C88.2577 145.104 88.4276 145.104 88.8525 143.753C89.0224 143.19 89.2207 142.628 89.4472 141.981L90.4951 142.037ZM89.7021 144.203L91.4864 143.106V142.881L89.957 142.684L89.5605 143.978L89.7021 144.203Z" fill="#FFFBE5"/>
<path d="M42.6226 117.962C42.7759 117.559 42.9505 117.167 43.1457 116.787C44.2441 114.908 45.3426 113.029 46.4672 111.149C46.603 110.93 46.782 110.749 46.9903 110.621L54.0781 106.597H54.2874C54.4181 106.803 54.5751 106.979 54.7058 107.155L57.8182 111.707L60.1459 115.143C60.5762 115.745 60.8561 116.464 60.9567 117.228C61.1398 118.579 61.4013 119.9 61.6367 121.251C61.8442 122.295 61.8442 123.378 61.6367 124.422L61.3751 124.158L58.3151 119.753L57.0074 117.815C56.5105 117.11 55.9874 116.376 55.5166 115.642L53.0843 112.265C52.9535 112.059 52.8227 112.265 52.6396 112.265C51.8289 112.764 50.9919 113.234 50.155 113.704L44.4534 116.964L42.4918 118.109L42.6226 117.962ZM51.515 120.018L51.6981 120.282L53.7904 123.218L56.4058 127.095C56.8243 127.741 57.2166 128.387 57.6351 129.003C58.0536 129.62 58.0274 129.532 58.2366 129.855C58.9889 129.167 59.6341 128.343 60.1459 127.418L57.8443 123.982L55.6997 120.987L52.5089 116.317L52.2212 115.994L42.1257 121.868C42.1701 122.954 42.3371 124.029 42.6226 125.068L51.515 120.018ZM49.135 107.009L50.495 106.186L54.1043 103.925C54.1531 103.867 54.212 103.821 54.2772 103.79C54.3424 103.759 54.4126 103.742 54.4835 103.742C54.5545 103.742 54.6247 103.759 54.6899 103.79C54.7551 103.821 54.8139 103.867 54.8627 103.925L55.0458 104.189C56.3012 105.863 57.6613 107.537 58.8382 109.24L59.6751 110.415C59.709 110.301 59.709 110.177 59.6751 110.063C59.492 108.917 59.309 107.801 59.0997 106.656C58.6028 103.72 58.0797 100.783 57.5566 97.8465C57.4952 97.5357 57.3892 97.2381 57.2428 96.9655C57.0693 96.6551 56.7987 96.4287 56.4841 96.3309C56.1695 96.2331 55.8338 96.2709 55.5428 96.4369C55.3743 96.5676 55.2168 96.715 55.072 96.8774C54.3626 97.7341 53.7317 98.6687 53.1889 99.6672L49.0304 106.48L48.8473 106.862L49.135 107.009ZM52.8489 128.622C53.6684 129.796 54.453 130.971 55.2028 132.146C55.8306 131.9 56.415 131.532 56.9289 131.059C56.772 130.648 51.3058 122.572 50.9919 122.249L43.1457 126.742L44.1395 128.68L50.4688 125.127C51.1489 126.331 51.9335 127.476 52.7181 128.622H52.8489ZM50.4165 129.884L52.3781 132.821C52.4132 132.882 52.4591 132.935 52.5132 132.975C52.5672 133.016 52.628 133.043 52.6919 133.056L54.0258 132.733C52.7181 130.736 51.4104 128.827 50.1027 126.86L44.8718 129.796L45.6565 130.677C45.6906 130.716 45.7313 130.747 45.7762 130.769C45.8211 130.79 45.8693 130.801 45.918 130.801C45.9667 130.801 46.0149 130.79 46.0599 130.769C46.1048 130.747 46.1455 130.716 46.1796 130.677L49.6842 128.651L50.4165 129.884ZM49.9458 132.38C50.5211 133.173 50.5212 133.173 51.3842 133.144H51.5673C50.9562 132.029 50.2464 130.986 49.4488 130.031C48.515 130.445 47.6353 130.998 46.8334 131.676L47.3303 132.028C47.4458 132.13 47.5886 132.186 47.7357 132.186C47.8829 132.186 48.0257 132.13 48.1411 132.028C48.514 131.789 48.8981 131.574 49.2919 131.382L49.9458 132.38ZM48.2196 132.38C48.7065 132.599 49.2163 132.747 49.7365 132.821L49.1088 131.823L48.2196 132.38Z" fill="#FFFBE5"/>
<path d="M34.846 97.2129C35.1452 97.0774 35.4569 96.9738 35.7764 96.9035L40.6684 95.9446C40.866 95.8981 41.0711 95.8981 41.2687 95.9446L47.5112 98.1409H47.6913C47.7062 98.3262 47.7062 98.5125 47.6913 98.6978L47.031 103.091L46.5809 106.184C46.5065 106.767 46.2896 107.32 45.9506 107.793C45.3203 108.628 44.7801 109.525 44.1799 110.36C43.7202 111.029 43.1266 111.588 42.4392 112C42.4239 111.897 42.4239 111.793 42.4392 111.69C42.6192 110.329 42.8293 108.999 43.0094 107.638C43.0094 107.019 43.2195 106.401 43.2795 105.782C43.3395 105.163 43.4596 104.39 43.5796 103.709C43.6997 103.029 43.9098 101.606 44.0598 100.616C44.0598 100.399 44.0598 100.337 43.8497 100.306L41.6588 99.533L36.5868 97.7697L34.846 97.151V97.2129ZM38.8977 103.771C38.9168 103.852 38.9168 103.937 38.8977 104.019C38.7476 104.978 38.6276 105.967 38.4775 107.112C38.3275 108.257 38.1474 109.587 37.9673 110.824C37.9673 111.412 37.7572 112 37.6672 112.588V113.392C38.4528 113.517 39.2525 113.517 40.0382 113.392C40.2182 112.278 40.3983 111.196 40.5484 110.113C40.6984 109.03 40.8485 108.133 40.9686 107.019L41.5988 102.596C41.6139 102.472 41.6139 102.348 41.5988 102.224L32.5951 99.1309C32.0247 99.7501 31.5399 100.448 31.1545 101.204L38.8977 103.771ZM44.45 95.3568L45.6505 95.7899L48.9518 96.7798C49.252 96.7798 49.342 96.9963 49.342 97.3366C49.342 97.6769 49.342 97.3366 49.342 97.5841C49.1619 99.2546 49.0119 100.894 48.8618 102.565C48.8618 102.967 48.8618 103.338 48.8618 103.74C48.8618 103.74 49.0419 103.74 49.0719 103.555L50.5425 101.42L54.1139 95.8208C54.242 95.6121 54.3335 95.3817 54.3841 95.1402C54.4507 94.8738 54.4164 94.5912 54.2882 94.3499C54.16 94.1086 53.9475 93.9266 53.6938 93.841C53.5249 93.8121 53.3525 93.8121 53.1836 93.841C52.313 93.8456 51.4462 93.9599 50.6025 94.1813L44.6 95.233H44.2999C44.2999 95.233 44.39 95.3568 44.45 95.3568ZM35.1162 109.278C34.9361 110.391 34.786 111.505 34.6059 112.588C35.0915 112.852 35.6209 113.02 36.1666 113.083C36.3166 112.742 37.4271 105.101 37.3671 104.761L30.4342 102.348L29.954 103.988L35.5963 105.967C35.4163 106.988 35.2662 108.071 35.1162 109.278ZM33.1053 108.349C32.9553 109.247 32.8052 110.175 32.6852 111.072C32.6852 111.072 32.6852 111.35 32.6852 111.412L33.6155 112.062C33.9157 110.175 34.1558 108.38 34.4259 106.555L29.834 104.978V105.937C29.8468 106.002 29.8801 106.062 29.9288 106.107C29.9776 106.152 30.0391 106.179 30.1041 106.184L31.6947 106.71L33.2254 107.267C33.1526 107.623 33.1124 107.986 33.1053 108.349ZM31.4847 109.401C31.4847 110.175 31.4847 110.175 31.9348 110.67C32.177 109.656 32.3178 108.619 32.355 107.576C31.5807 107.211 30.7635 106.951 29.924 106.803V107.298C29.9359 107.428 29.9895 107.55 30.0765 107.646C30.1635 107.741 30.2788 107.804 30.4042 107.824L31.3946 108.164L31.4847 109.401ZM30.4042 108.411C30.5767 108.83 30.7984 109.224 31.0645 109.587V108.659L30.4042 108.411Z" fill="#FFFBE5"/>
<path d="M44.4536 84.1751L44.9871 84.4453L47.6266 86.1744C47.6814 86.2021 47.7296 86.2404 47.7683 86.2869C47.8069 86.3334 47.8352 86.3871 47.8513 86.4446C48.469 87.6604 49.0868 88.8491 49.7326 90.0649L49.4799 90.2811L47.3178 91.8481L45.661 93.0098C45.3794 93.2309 45.0389 93.3714 44.6783 93.4151L42.7688 93.7393C42.2789 93.846 41.7705 93.846 41.2806 93.7393V93.6042L43.3304 92.1453L44.2571 91.4968L45.296 90.7404L46.8966 89.6326C46.8966 89.6326 46.8966 89.4976 46.8966 89.4165C46.8966 89.3354 46.4754 88.5519 46.2507 88.1467L44.9029 85.2288L44.3975 84.2292L44.4536 84.1751ZM43.4147 88.687H43.2743L41.8141 89.7407L39.9608 91.0646L39.0342 91.713L38.6411 91.9832C38.9582 92.3714 39.3373 92.7088 39.7643 92.9828C40.3259 92.6046 40.8875 92.2263 41.421 91.8211L42.9092 90.7674C43.6674 90.254 44.3975 89.7137 45.1275 89.1733H45.296L42.488 83.986C41.9633 83.9899 41.4423 84.0719 40.9436 84.2292L43.4147 88.687ZM49.5642 87.5523C49.5642 87.7955 49.8169 88.0116 49.9292 88.2548L50.9682 90.0919C50.9682 90.2811 50.9682 90.3621 50.9682 90.4972L48.5533 92.3884L47.9917 92.8207H47.9355L49.5361 92.5505L53.6638 91.8211C53.8145 91.7959 53.9579 91.7407 54.085 91.6589C54.235 91.5741 54.345 91.4367 54.3921 91.2756C54.4392 91.1144 54.4198 90.942 54.3378 90.7944L54.1974 90.6323C53.7819 90.2784 53.3409 89.9534 52.8776 89.6597L49.7046 87.4983H49.5361C49.5361 87.4983 49.5361 87.5253 49.5642 87.5523ZM39.3431 89.3084L37.6583 90.4972C37.7557 90.8188 37.9287 91.1146 38.1637 91.3618C38.3603 91.3618 42.2072 88.66 42.3195 88.3898L40.2416 84.3642L39.315 84.8776L40.9998 88.1197L39.3431 89.3084ZM38.7534 88.0656L37.3775 89.0383C37.3775 89.0383 37.3775 89.1733 37.3775 89.2274C37.3775 89.2814 37.3775 89.6326 37.5179 89.9028L40.3259 87.9305L38.9499 85.2288L38.5287 85.6341C38.5287 85.6341 38.5287 85.6341 38.5287 85.8772C38.5287 86.1204 38.8657 86.4986 39.0061 86.7958C39.1465 87.093 39.315 87.3632 39.4554 87.6874L38.7534 88.0656ZM37.574 87.9305C37.209 88.2007 37.209 88.2007 37.209 88.66C37.7405 88.3577 38.2391 88.0047 38.6972 87.6063C38.5082 87.1171 38.2533 86.6539 37.9391 86.2284L37.7706 86.4716C37.7227 86.5291 37.6967 86.6006 37.6967 86.6742C37.6967 86.7479 37.7227 86.8194 37.7706 86.8769C37.7706 87.066 37.9671 87.2821 38.0795 87.4712L37.574 87.9305ZM37.574 87.039C37.4825 87.2955 37.4075 87.5571 37.3494 87.8225L37.8267 87.4983L37.574 87.039Z" fill="#FFFBE5"/>
<path d="M52.4906 80.8488C52.5469 80.9732 52.5937 81.1035 52.6303 81.238L53.1891 83.2677C53.2008 83.3505 53.2008 83.4351 53.1891 83.5179L52.4906 86.4095H49.6267C49.4135 86.4149 49.2035 86.3474 49.0214 86.2149C48.7187 85.9925 48.3927 85.7978 48.0668 85.6032C47.8208 85.4351 47.6068 85.2079 47.4381 84.9359H51.373C51.373 84.6023 51.4894 84.2964 51.5592 83.9628C51.6291 83.6291 51.8154 82.4614 51.9551 81.7107L52.0948 80.96L52.4906 80.8488ZM50.3951 82.9062H47.0423C47.051 83.2459 47.098 83.5825 47.182 83.9072H51.0703L51.7921 79.9312C51.5437 79.7317 51.2783 79.5639 51.0005 79.4308L50.3951 82.9062ZM53.5383 84.8525C53.5383 85.0471 53.5383 85.214 53.5383 85.4086L53.3288 86.8544C53.3288 86.9934 53.3288 87.0212 53.1658 87.049H50.8375L51.6524 87.5773L53.7479 88.884C53.8241 88.9089 53.9045 88.9089 53.9807 88.884C54.0283 88.896 54.0775 88.896 54.1251 88.884C54.1728 88.8719 54.2177 88.8481 54.2572 88.8141C54.2967 88.78 54.3297 88.7365 54.3543 88.6863C54.3788 88.6361 54.3943 88.5804 54.3998 88.5226C54.4232 88.4511 54.4232 88.3717 54.3998 88.3002C54.3633 87.9307 54.2931 87.567 54.1902 87.2158L53.5616 84.7135C53.5673 84.6674 53.5673 84.6206 53.5616 84.5745C53.5616 84.5745 53.4219 84.8803 53.4219 84.9081L53.5383 84.8525ZM48.3462 81.5439H47.182C47.1418 81.7731 47.1418 82.0097 47.182 82.239C47.182 82.239 49.9993 82.378 50.1157 82.239L50.6512 79.1527H50.0691L49.6267 81.6551L48.3462 81.5439ZM48.5557 80.6263H47.3683C47.3683 80.6263 47.2519 80.9044 47.182 81.0712H49.1145L49.487 79.0693H49.1378C49.1103 79.3127 49.0714 79.554 49.0214 79.7922C49.0214 80.0147 49.0214 80.2093 48.905 80.4595L48.5557 80.6263ZM48.1366 79.9869C47.8572 79.9869 47.8572 79.9869 47.6942 80.2371C48.0419 80.2929 48.3943 80.2929 48.742 80.2371C48.835 79.895 48.8898 79.5398 48.905 79.1805H48.742C48.7001 79.1956 48.6625 79.2244 48.6337 79.2638C48.6049 79.3031 48.5859 79.3514 48.579 79.403C48.5921 79.5509 48.5921 79.7 48.579 79.8478L48.1366 79.9869ZM48.4393 79.4864C48.2949 79.5748 48.1616 79.6871 48.0435 79.82H48.3695L48.4393 79.4864Z" fill="#FFFBE5"/>
</svg>
