<svg width="48" height="48" viewBox="0 0 48 48" fill="none" xmlns="http://www.w3.org/2000/svg">
<path d="M47.1861 23.4763C47.1861 36.0673 36.8997 46.2744 24.208 46.2744C20.1804 46.2744 16.397 45.2442 13.1035 43.4403L0.382812 47.4801L4.52944 35.2447C2.43858 31.8108 1.23442 27.7786 1.23442 23.4748C1.23595 10.8838 11.5193 0.676758 24.211 0.676758C36.9012 0.67981 47.1861 10.8854 47.1861 23.4763ZM24.2065 4.31212C13.5553 4.31212 4.89114 12.9106 4.89114 23.4809C4.89114 27.6749 6.2586 31.5575 8.57076 34.7167L6.1594 41.8332L13.5797 39.4753C16.632 41.4776 20.2842 42.6436 24.2065 42.6436C34.8577 42.6436 43.5248 34.0467 43.5248 23.4763C43.5279 12.9106 34.8592 4.31212 24.2065 4.31212ZM35.8115 28.7279C35.6681 28.4975 35.2926 28.3571 34.731 28.0762C34.1709 27.7954 31.3978 26.4448 30.8835 26.2616C30.3646 26.0739 29.9892 25.9793 29.6137 26.5394C29.2429 27.0995 28.1623 28.3571 27.8311 28.7325C27.503 29.1064 27.1749 29.1537 26.6117 28.8775C26.0486 28.5936 24.2324 28.0076 22.0805 26.1044C20.4063 24.621 19.2754 22.7941 18.9488 22.234C18.6176 21.6755 18.9152 21.3733 19.1945 21.0955C19.4463 20.8437 19.7577 20.4423 20.04 20.1142C20.3223 19.7891 20.4154 19.5586 20.6032 19.1847C20.7878 18.8108 20.6947 18.4857 20.5558 18.2034C20.4154 17.9226 19.2906 15.1755 18.8191 14.0568C18.3505 12.9396 17.882 13.1243 17.5523 13.1243C17.2242 13.1243 16.8488 13.0785 16.4733 13.0785C16.0979 13.0785 15.4874 13.2143 14.9731 13.7744C14.4588 14.3345 13.0028 15.6852 13.0028 18.4354C13.0028 21.1886 15.0189 23.8426 15.3012 24.215C15.5851 24.5859 19.1991 30.4144 24.9238 32.6517C30.6515 34.8876 30.6515 34.1413 31.6832 34.0467C32.718 33.952 35.0164 32.696 35.4834 31.3926C35.9535 30.0832 35.9535 28.9614 35.8115 28.7279Z" fill="#FFFBE5"/>
</svg>
