<svg width="58" height="46" viewBox="0 0 58 46" fill="none" xmlns="http://www.w3.org/2000/svg">
<path fill-rule="evenodd" clip-rule="evenodd" d="M44.1704 0.207941C44.0614 0.252555 43.4815 0.60294 42.8818 0.986563C41.4829 1.88142 35.802 5.42009 34.2783 6.3458C32.8569 7.2092 31.6814 7.76169 30.8878 7.93915C30.5451 8.01582 29.7271 8.07072 28.9554 8.06884C26.8406 8.0637 26.0876 7.80412 23.3055 6.12135C20.9315 4.68529 18.4657 3.14377 17.0114 2.1865C16.5207 1.86351 15.9632 1.50858 15.7724 1.39759C15.5816 1.2866 15.2247 1.0653 14.9794 0.905743C14.1085 0.33941 13.8062 0.213283 13.3192 0.213283C12.7761 0.213283 12.5978 0.297269 10.4996 1.54261C7.97467 3.04109 6.66469 3.82535 6.35593 4.02329C6.16512 4.14566 5.33995 4.65531 4.5222 5.15596C1.33102 7.10929 1.22873 7.19298 1.00135 8.0359C0.935331 8.28044 0.909757 11.8191 0.927203 18.2842L0.953867 28.159L1.1976 28.5052C1.47554 28.9 1.65009 29.044 2.28892 29.4054C2.539 29.5468 3.23294 29.9648 3.83114 30.3343C4.85703 30.968 5.1313 31.1389 6.03379 31.7068C6.4383 31.9614 11.0257 34.804 14.0378 36.6665C19.994 40.3496 20.9108 40.9171 21.2488 41.1305C22.1053 41.6712 22.444 41.8815 24.0489 42.8698C28.6641 45.7114 28.698 45.7276 29.5769 45.5046C30.024 45.3912 31.1337 44.7692 33.5879 43.2563C33.8188 43.1139 34.5102 42.6903 35.1243 42.3151C36.1061 41.7151 40.9043 38.7403 41.8411 38.1509C42.0319 38.0308 42.3967 37.8035 42.6519 37.6457C42.907 37.4879 43.4422 37.155 43.8413 36.906C44.2404 36.657 44.9906 36.1933 45.5085 35.8755C46.0264 35.5578 46.7737 35.0939 47.1691 34.8445C48.2106 34.1876 52.7492 31.3902 55.1728 29.9112C56.6349 29.0189 56.8098 28.884 57.0623 28.454L57.3038 28.0426V18.0322C57.3038 7.18546 57.3255 7.63793 56.7787 7.05706C56.6587 6.92945 55.8691 6.39991 55.0241 5.88027C54.1791 5.36053 53.3762 4.86552 53.2399 4.78025C53.1036 4.69498 51.2997 3.61019 49.2313 2.3698C45.503 0.133848 45.4658 0.114459 44.9195 0.120593C44.6165 0.124055 44.2794 0.163426 44.1704 0.207941Z" fill="#FFF1A8"/>
</svg>
