<svg width="52" height="59" viewBox="0 0 52 59" fill="none" xmlns="http://www.w3.org/2000/svg">
<path fill-rule="evenodd" clip-rule="evenodd" d="M25.0371 0.454725C20.767 0.973724 17.0473 3.94689 15.0939 8.40228C14.4103 9.96132 13.9133 11.9243 13.7971 13.5239C13.7747 13.8318 13.7487 14.1256 13.7393 14.1767C13.7299 14.2278 13.7201 14.3045 13.7175 14.3471C13.7138 14.4085 12.4664 14.4245 7.69745 14.4245C1.71543 14.4245 1.68058 14.4252 1.41682 14.5544C1.23241 14.6446 1.10069 14.772 0.984716 14.9721C0.795833 15.2981 0.789094 15.425 0.867453 17.1815C0.891837 17.7267 0.965049 19.3577 1.03024 20.8059C1.09548 22.2541 1.16386 23.7735 1.18224 24.1824C1.20062 24.5914 1.26991 26.1526 1.33626 27.6519C1.40255 29.1513 1.47062 30.6707 1.4874 31.0285C1.5192 31.7052 1.52661 31.8702 1.67384 35.1795C1.72309 36.2869 1.77854 37.5276 1.79698 37.9365C1.81542 38.3454 1.88447 39.8927 1.95027 41.375C2.01613 42.8573 2.08475 44.3767 2.1027 44.7516C2.12071 45.1264 2.16292 46.0743 2.19656 46.858C2.23019 47.6418 2.2838 48.8406 2.31572 49.5221C2.34758 50.2036 2.3901 51.2073 2.41019 51.7525C2.49002 53.9233 2.61427 54.7386 2.99725 55.6056C3.60488 56.9812 4.71754 57.9844 6.12568 58.4264L6.57531 58.5676L25.7822 58.5853C39.364 58.5977 45.1392 58.5832 45.5016 58.5355C47.4731 58.2762 49.1263 56.8074 49.7 54.8055C49.9072 54.0824 49.9064 54.092 50.1358 49.3363C50.2074 47.8524 50.2301 47.3923 50.2597 46.8271C50.2767 46.5034 50.3458 45.0815 50.4133 43.6674C50.7797 35.9907 50.8042 35.4851 50.8724 34.1882C50.8894 33.8645 50.944 32.7354 50.9936 31.679C51.0433 30.6227 51.0986 29.4657 51.1165 29.1079C51.1345 28.7501 51.1897 27.621 51.2391 26.5987C51.2885 25.5764 51.343 24.4542 51.3602 24.105C51.3774 23.7558 51.4055 23.1703 51.4228 22.8039C51.44 22.4376 51.4684 21.8731 51.4858 21.5494C51.5607 20.158 51.7005 17.1659 51.7333 16.2522C51.7737 15.1234 51.7395 14.9936 51.3092 14.6457L51.0738 14.4555L44.9528 14.4388L38.8319 14.4222V14.1421C38.8319 13.988 38.803 13.5913 38.7678 13.2604C38.1207 7.18777 34.2518 2.16258 29.1519 0.770697C27.8689 0.420526 26.3059 0.300519 25.0371 0.454725ZM25.2308 3.85879C22.1068 4.32327 19.468 6.60359 18.0351 10.077C17.6458 11.0206 17.265 12.7382 17.1777 13.9444L17.143 14.4245H26.272H35.401L35.4003 14.0683C35.3995 13.5771 35.1875 12.2321 34.9941 11.4909C33.968 7.55708 31.1081 4.58404 27.7115 3.92006C27.0095 3.78283 25.9223 3.75601 25.2308 3.85879ZM25.2267 21.6809C21.3129 21.9386 18.2268 24.4093 17.599 27.7875C17.4605 28.533 17.5043 29.9241 17.6883 30.6258C17.941 31.5892 18.53 32.6395 19.2722 33.4501C19.8702 34.1034 20.9489 34.9274 21.7999 35.3812C22.5985 35.807 25.0173 36.7739 26.7941 37.3776C28.0661 37.8097 28.9461 38.1843 29.66 38.5974C32.5785 40.2863 33.6358 42.7279 32.4895 45.1312C31.6547 46.8813 29.6337 48.0162 26.9344 48.2506C24.2348 48.485 21.0274 47.3619 18.5012 45.2978C18.1455 45.0071 17.901 44.9558 17.7431 45.1388C17.6916 45.1984 17.3823 45.6469 17.0557 46.1355C16.3729 47.1573 16.3762 47.077 16.9965 47.5919C17.5652 48.0639 19.1071 49.0804 19.6672 49.3525C21.3013 50.1464 23.2737 50.712 25.1083 50.9128C25.3947 50.9442 26.1942 50.9601 26.885 50.9482C28.2664 50.9244 29.0326 50.8022 30.2412 50.4128C33.0924 49.4943 35.0526 47.2817 35.5583 44.4108C35.7007 43.6026 35.7008 42.2516 35.5584 41.5609C34.9128 38.4284 32.2131 36.3068 26.2111 34.2152C23.6889 33.3362 22.5151 32.7018 21.5212 31.6805C19.1435 29.237 20.4588 25.5466 24.0815 24.4969C26.3823 23.8302 29.829 24.4941 32.3838 26.0961C33.1927 26.6033 33.2045 26.6014 33.6723 25.8862C34.1467 25.1608 34.4207 24.6594 34.4207 24.517C34.4207 24.1505 32.2884 22.9766 30.6222 22.4259C29.3988 22.0215 28.0407 21.753 26.952 21.7002C26.5613 21.6813 26.159 21.6596 26.0579 21.652C25.9568 21.6445 25.5827 21.6574 25.2267 21.6809Z" fill="#FFF1A8"/>
</svg>
