<svg width="50" height="50" viewBox="0 0 50 50" fill="none" xmlns="http://www.w3.org/2000/svg">
<path fill-rule="evenodd" clip-rule="evenodd" d="M22.1077 0.653842C18.6828 1.58697 16.7166 2.74998 14.9381 4.89475C13.9878 6.04073 13.5564 6.82224 13.0432 8.32811L12.6805 9.39239L11.3985 9.33296C10.6934 9.30021 7.89555 9.32706 5.18128 9.39272L0.246094 9.51192V29.5507V49.5894H17.8558C33.1883 49.5894 35.6093 49.5565 36.5769 49.3351C39.9146 48.5716 42.6402 47.1499 44.8411 45.0245C46.9272 43.0099 48.1331 40.9709 48.9682 38.0461C49.0563 37.7379 48.9682 38.0461 49.3154 36.9406C49.3154 36.9406 49.3154 36.9967 49.3154 29.45L49.3531 9.39239L43.0403 9.3865L36.7276 9.3806L36.5296 8.60155C35.6063 4.96892 32.0851 1.82177 27.7128 0.721137C26.5878 0.438039 23.056 0.395631 22.1077 0.653842ZM22.3238 3.74205C19.6426 4.44742 17.4713 6.21855 16.5448 8.45599C16.3526 8.92002 16.2343 9.40123 16.2816 9.52535C16.3397 9.67696 16.7869 9.7847 17.6472 9.85413C19.402 9.99559 21.0657 10.3697 23.0013 11.0579C23.9007 11.3777 24.7834 11.6418 24.9628 11.6447C25.1423 11.6477 25.8397 11.4474 26.5127 11.1995C28.3656 10.5173 29.1371 10.3403 32.4676 9.833C33.2131 9.71954 33.2784 9.67435 33.226 9.30889C33.1392 8.70356 32.6191 7.68447 31.9333 6.77656C29.8902 4.07182 25.8818 2.80614 22.3238 3.74205ZM0.325057 29.5318C0.325057 40.6085 0.344634 45.164 0.368454 39.6551C0.392273 34.1464 0.392273 25.0836 0.368454 19.5157C0.344634 13.9478 0.325057 18.4551 0.325057 29.5318ZM36.9541 11.2182C31.3374 11.6141 28.0143 12.2723 25.5182 13.4833C24.9343 13.7666 24.9241 13.7651 23.4788 13.1914C21.8005 12.5251 19.966 12.056 17.5396 11.6726C16.2294 11.4654 14.2252 11.3826 9.01523 11.32L2.20385 11.2383V29.5133C2.20385 39.5645 2.22229 47.7942 2.24464 47.8016C2.60324 47.918 22.7032 47.9335 28.3073 47.8217C35.8351 47.6717 35.9047 47.6672 37.3288 47.2367C42.4308 45.6945 46.051 42.0797 47.1074 37.473C47.2645 36.7879 47.3139 33.5353 47.3139 23.883V11.1935L42.5011 11.1799C39.854 11.1725 37.3579 11.1897 36.9541 11.2182ZM12.2374 16.2825C9.09925 17.012 7.37397 17.8835 5.6376 19.6164C3.50234 21.7475 2.58105 24.0691 2.74207 26.9129C2.87863 29.3244 3.74347 31.2663 5.46777 33.0325C7.20626 34.8133 9.42587 35.9692 11.9584 36.4125C14.1238 36.7914 15.5944 36.6897 18.0568 35.9909L18.8189 35.7747L21.6658 38.5068C23.2315 40.0094 24.6138 41.2363 24.7377 41.233C24.8615 41.2299 26.2476 40.0091 27.8179 38.5202C29.9972 36.4539 30.7501 35.832 30.9992 35.8928C31.1787 35.9365 31.7293 36.0919 32.2228 36.2381C33.3738 36.579 36.2486 36.5721 37.926 36.2243C41.7643 35.4286 44.9125 32.8512 46.1223 29.5137C46.5514 28.3302 46.7041 25.6822 46.422 24.3187C45.7118 20.8853 42.3795 17.679 38.4692 16.667C36.7205 16.2143 33.9241 16.2144 32.1745 16.6673C29.6758 17.3141 27.466 18.689 26.0807 20.4584C25.6637 20.9911 25.2651 21.4269 25.1948 21.4269C25.1245 21.4269 25.0436 21.5869 25.015 21.7826C24.9259 22.3892 24.6561 22.2718 24.1471 21.4052C23.8779 20.9469 23.0967 20.0408 22.4112 19.3919C21.0514 18.1044 19.1889 17.0464 17.4581 16.5782C16.5179 16.324 12.9329 16.1209 12.2374 16.2825ZM11.6664 18.2352C6.90656 19.3997 3.92424 23.6991 4.88142 28.017C5.51687 30.8835 7.81561 33.2753 10.9322 34.3126C12.5991 34.8673 15.4009 34.938 16.9601 34.4648C20.1192 33.506 22.4388 31.3481 23.2728 28.5922C23.5567 27.6544 23.6041 27.1721 23.5381 25.9028C23.4651 24.5035 23.3935 24.2268 22.7851 22.9947C21.6544 20.7042 19.3483 18.9033 16.7135 18.2529C15.424 17.9345 12.9314 17.9258 11.6664 18.2352ZM33.3649 18.0921C32.399 18.2765 30.8886 18.8622 30 19.3971C24.2114 22.8804 24.5716 30.6567 30.6623 33.6987C33.2224 34.9775 35.9633 35.1612 38.6443 34.2337C45.5668 31.839 46.8966 23.7047 41.02 19.7015C39.2825 18.5178 37.9682 18.1162 35.6489 18.0599C34.617 18.0348 33.5892 18.0492 33.3649 18.0921ZM15.2556 21.238C15.2556 21.3143 15.3745 21.6157 15.5197 21.9082C15.8428 22.558 15.7406 23.5899 15.2933 24.1962C14.1517 25.7437 11.7752 25.9026 10.6074 24.5099C10.3788 24.2371 10.0953 24.0513 9.97746 24.0966C9.85951 24.142 9.63127 24.5998 9.47008 25.1139C8.67849 27.6399 9.94435 30.1995 12.6124 31.4682C13.6138 31.9441 13.8429 31.9879 15.3372 31.9879C16.8275 31.9879 17.0621 31.9435 18.0491 31.4741C20.2113 30.4458 21.4552 28.7128 21.4552 26.7284C21.4552 24.7496 20.2888 22.8246 18.551 21.9347C17.3806 21.3354 15.2556 20.8863 15.2556 21.238ZM33.9749 21.1967C33.9215 21.2503 34.0191 21.5266 34.1917 21.8107C34.7975 22.8077 34.4612 24.0495 33.3714 24.8418C32.1166 25.7541 30.6189 25.6608 29.4462 24.5975C29.0958 24.2797 28.7398 24.0627 28.655 24.1153C28.3543 24.3018 27.981 25.7569 27.9827 26.7365C27.9884 30.2803 31.9628 32.8449 35.867 31.8241C37.545 31.3856 38.9601 30.2659 39.7751 28.7321C40.302 27.7404 40.2917 25.4103 39.756 24.3995C39.2673 23.4777 38.1513 22.3642 37.2551 21.9044C36.0829 21.303 34.2607 20.9099 33.9749 21.1967ZM23.263 33.6306C22.2286 33.9204 21.5581 34.3093 20.8964 35.0035L20.419 35.5042L22.4329 37.4301C23.5407 38.4893 24.5683 39.3559 24.7169 39.3559C24.8654 39.3559 25.8993 38.4847 27.0142 37.4198L29.0415 35.4836L28.2644 34.7715C27.0079 33.62 24.9653 33.154 23.263 33.6306Z" fill="#FFF1A8"/>
</svg>
